<?xml version="1.0" encoding="utf-8" standalone="no"?>
<!DOCTYPE svg PUBLIC "-//W3C//DTD SVG 1.1//EN"
  "http://www.w3.org/Graphics/SVG/1.1/DTD/svg11.dtd">
<svg xmlns:xlink="http://www.w3.org/1999/xlink" width="460.8pt" height="345.6pt" viewBox="0 0 460.8 345.6" xmlns="http://www.w3.org/2000/svg" version="1.1">
 <metadata>
  <rdf:RDF xmlns:dc="http://purl.org/dc/elements/1.1/" xmlns:cc="http://creativecommons.org/ns#" xmlns:rdf="http://www.w3.org/1999/02/22-rdf-syntax-ns#">
   <cc:Work>
    <dc:type rdf:resource="http://purl.org/dc/dcmitype/StillImage"/>
    <dc:date>2025-04-17T02:51:34.452437</dc:date>
    <dc:format>image/svg+xml</dc:format>
    <dc:creator>
     <cc:Agent>
      <dc:title>Matplotlib v3.10.1, https://matplotlib.org/</dc:title>
     </cc:Agent>
    </dc:creator>
   </cc:Work>
  </rdf:RDF>
 </metadata>
 <defs>
  <style type="text/css">*{stroke-linejoin: round; stroke-linecap: butt}</style>
 </defs>
 <g id="figure_1">
  <g id="patch_1">
   <path d="M 0 345.6 
L 460.8 345.6 
L 460.8 0 
L 0 0 
z
" style="fill: #ffffff"/>
  </g>
  <g id="axes_1">
   <g id="patch_2">
    <path d="M 57.6 307.584 
L 414.72 307.584 
L 414.72 41.472 
L 57.6 41.472 
z
" style="fill: #ffffff"/>
   </g>
   <g id="PathCollection_1">
    <defs>
     <path id="md62bdba978" d="M 0 1.414214 
C 0.375054 1.414214 0.734797 1.265203 1 1 
C 1.265203 0.734797 1.414214 0.375054 1.414214 0 
C 1.414214 -0.375054 1.265203 -0.734797 1 -1 
C 0.734797 -1.265203 0.375054 -1.414214 0 -1.414214 
C -0.375054 -1.414214 -0.734797 -1.265203 -1 -1 
C -1.265203 -0.734797 -1.414214 -0.375054 -1.414214 0 
C -1.414214 0.375054 -1.265203 0.734797 -1 1 
C -0.734797 1.265203 -0.375054 1.414214 0 1.414214 
z
" style="stroke: #1f77b4"/>
    </defs>
    <g clip-path="url(#pfb486a6f4f)">
     <use xlink:href="#md62bdba978" x="241.285517" y="202.19593" style="fill: #1f77b4; stroke: #1f77b4"/>
     <use xlink:href="#md62bdba978" x="241.389075" y="208.705613" style="fill: #1f77b4; stroke: #1f77b4"/>
     <use xlink:href="#md62bdba978" x="241.492633" y="215.215296" style="fill: #1f77b4; stroke: #1f77b4"/>
     <use xlink:href="#md62bdba978" x="241.596192" y="221.724979" style="fill: #1f77b4; stroke: #1f77b4"/>
     <use xlink:href="#md62bdba978" x="241.69975" y="228.234662" style="fill: #1f77b4; stroke: #1f77b4"/>
     <use xlink:href="#md62bdba978" x="241.803308" y="234.744345" style="fill: #1f77b4; stroke: #1f77b4"/>
     <use xlink:href="#md62bdba978" x="241.906866" y="241.254028" style="fill: #1f77b4; stroke: #1f77b4"/>
     <use xlink:href="#md62bdba978" x="242.010424" y="247.763711" style="fill: #1f77b4; stroke: #1f77b4"/>
     <use xlink:href="#md62bdba978" x="242.113982" y="254.273394" style="fill: #1f77b4; stroke: #1f77b4"/>
     <use xlink:href="#md62bdba978" x="242.21754" y="260.783077" style="fill: #1f77b4; stroke: #1f77b4"/>
     <use xlink:href="#md62bdba978" x="242.321099" y="267.29276" style="fill: #1f77b4; stroke: #1f77b4"/>
     <use xlink:href="#md62bdba978" x="242.424657" y="273.802443" style="fill: #1f77b4; stroke: #1f77b4"/>
     <use xlink:href="#md62bdba978" x="242.528215" y="280.312126" style="fill: #1f77b4; stroke: #1f77b4"/>
     <use xlink:href="#md62bdba978" x="242.631773" y="286.821809" style="fill: #1f77b4; stroke: #1f77b4"/>
     <use xlink:href="#md62bdba978" x="73.832727" y="54.934877" style="fill: #1f77b4; stroke: #1f77b4"/>
     <use xlink:href="#md62bdba978" x="77.249894" y="55.011618" style="fill: #1f77b4; stroke: #1f77b4"/>
     <use xlink:href="#md62bdba978" x="80.66734" y="55.062392" style="fill: #1f77b4; stroke: #1f77b4"/>
     <use xlink:href="#md62bdba978" x="84.085056" y="55.371508" style="fill: #1f77b4; stroke: #1f77b4"/>
     <use xlink:href="#md62bdba978" x="87.502265" y="55.632653" style="fill: #1f77b4; stroke: #1f77b4"/>
     <use xlink:href="#md62bdba978" x="97.75465" y="55.834115" style="fill: #1f77b4; stroke: #1f77b4"/>
     <use xlink:href="#md62bdba978" x="101.170763" y="56.083934" style="fill: #1f77b4; stroke: #1f77b4"/>
     <use xlink:href="#md62bdba978" x="104.588304" y="56.590825" style="fill: #1f77b4; stroke: #1f77b4"/>
     <use xlink:href="#md62bdba978" x="108.006102" y="57.030267" style="fill: #1f77b4; stroke: #1f77b4"/>
     <use xlink:href="#md62bdba978" x="111.425099" y="57.385823" style="fill: #1f77b4; stroke: #1f77b4"/>
     <use xlink:href="#md62bdba978" x="114.841788" y="57.761957" style="fill: #1f77b4; stroke: #1f77b4"/>
     <use xlink:href="#md62bdba978" x="118.260357" y="58.225763" style="fill: #1f77b4; stroke: #1f77b4"/>
     <use xlink:href="#md62bdba978" x="121.677608" y="58.868913" style="fill: #1f77b4; stroke: #1f77b4"/>
     <use xlink:href="#md62bdba978" x="125.094511" y="59.557693" style="fill: #1f77b4; stroke: #1f77b4"/>
     <use xlink:href="#md62bdba978" x="128.510505" y="60.206879" style="fill: #1f77b4; stroke: #1f77b4"/>
     <use xlink:href="#md62bdba978" x="131.927847" y="61.052962" style="fill: #1f77b4; stroke: #1f77b4"/>
     <use xlink:href="#md62bdba978" x="135.346876" y="62.121457" style="fill: #1f77b4; stroke: #1f77b4"/>
     <use xlink:href="#md62bdba978" x="138.763122" y="62.509697" style="fill: #1f77b4; stroke: #1f77b4"/>
     <use xlink:href="#md62bdba978" x="142.181474" y="63.766967" style="fill: #1f77b4; stroke: #1f77b4"/>
     <use xlink:href="#md62bdba978" x="145.598385" y="64.960387" style="fill: #1f77b4; stroke: #1f77b4"/>
     <use xlink:href="#md62bdba978" x="149.015371" y="66.137841" style="fill: #1f77b4; stroke: #1f77b4"/>
     <use xlink:href="#md62bdba978" x="152.433506" y="67.462271" style="fill: #1f77b4; stroke: #1f77b4"/>
     <use xlink:href="#md62bdba978" x="155.851104" y="68.611905" style="fill: #1f77b4; stroke: #1f77b4"/>
     <use xlink:href="#md62bdba978" x="159.267789" y="70.365882" style="fill: #1f77b4; stroke: #1f77b4"/>
     <use xlink:href="#md62bdba978" x="162.685992" y="71.754188" style="fill: #1f77b4; stroke: #1f77b4"/>
     <use xlink:href="#md62bdba978" x="166.102494" y="73.340707" style="fill: #1f77b4; stroke: #1f77b4"/>
     <use xlink:href="#md62bdba978" x="169.520501" y="75.379584" style="fill: #1f77b4; stroke: #1f77b4"/>
     <use xlink:href="#md62bdba978" x="172.937884" y="77.103452" style="fill: #1f77b4; stroke: #1f77b4"/>
     <use xlink:href="#md62bdba978" x="176.355465" y="78.515141" style="fill: #1f77b4; stroke: #1f77b4"/>
     <use xlink:href="#md62bdba978" x="179.772554" y="80.158297" style="fill: #1f77b4; stroke: #1f77b4"/>
     <use xlink:href="#md62bdba978" x="183.189884" y="82.307539" style="fill: #1f77b4; stroke: #1f77b4"/>
     <use xlink:href="#md62bdba978" x="186.607284" y="84.232718" style="fill: #1f77b4; stroke: #1f77b4"/>
     <use xlink:href="#md62bdba978" x="190.024957" y="86.55805" style="fill: #1f77b4; stroke: #1f77b4"/>
     <use xlink:href="#md62bdba978" x="193.442258" y="88.524223" style="fill: #1f77b4; stroke: #1f77b4"/>
     <use xlink:href="#md62bdba978" x="196.859753" y="91.182789" style="fill: #1f77b4; stroke: #1f77b4"/>
     <use xlink:href="#md62bdba978" x="200.279146" y="93.274993" style="fill: #1f77b4; stroke: #1f77b4"/>
     <use xlink:href="#md62bdba978" x="203.695963" y="95.769217" style="fill: #1f77b4; stroke: #1f77b4"/>
     <use xlink:href="#md62bdba978" x="207.112338" y="98.469908" style="fill: #1f77b4; stroke: #1f77b4"/>
     <use xlink:href="#md62bdba978" x="210.527891" y="101.32399" style="fill: #1f77b4; stroke: #1f77b4"/>
     <use xlink:href="#md62bdba978" x="213.947426" y="103.63604" style="fill: #1f77b4; stroke: #1f77b4"/>
     <use xlink:href="#md62bdba978" x="217.364252" y="107.529657" style="fill: #1f77b4; stroke: #1f77b4"/>
     <use xlink:href="#md62bdba978" x="220.780406" y="111.444931" style="fill: #1f77b4; stroke: #1f77b4"/>
     <use xlink:href="#md62bdba978" x="227.617329" y="121.360793" style="fill: #1f77b4; stroke: #1f77b4"/>
     <use xlink:href="#md62bdba978" x="231.033918" y="128.210776" style="fill: #1f77b4; stroke: #1f77b4"/>
     <use xlink:href="#md62bdba978" x="234.451364" y="138.836056" style="fill: #1f77b4; stroke: #1f77b4"/>
     <use xlink:href="#md62bdba978" x="237.868663" y="157.966481" style="fill: #1f77b4; stroke: #1f77b4"/>
     <use xlink:href="#md62bdba978" x="241.285517" y="202.19593" style="fill: #1f77b4; stroke: #1f77b4"/>
     <use xlink:href="#md62bdba978" x="244.703638" y="156.433498" style="fill: #1f77b4; stroke: #1f77b4"/>
     <use xlink:href="#md62bdba978" x="248.121474" y="140.922786" style="fill: #1f77b4; stroke: #1f77b4"/>
     <use xlink:href="#md62bdba978" x="251.537978" y="134.751551" style="fill: #1f77b4; stroke: #1f77b4"/>
     <use xlink:href="#md62bdba978" x="254.95623" y="132.563783" style="fill: #1f77b4; stroke: #1f77b4"/>
     <use xlink:href="#md62bdba978" x="258.373614" y="132.135535" style="fill: #1f77b4; stroke: #1f77b4"/>
     <use xlink:href="#md62bdba978" x="265.20791" y="135.171134" style="fill: #1f77b4; stroke: #1f77b4"/>
     <use xlink:href="#md62bdba978" x="268.625777" y="138.109992" style="fill: #1f77b4; stroke: #1f77b4"/>
     <use xlink:href="#md62bdba978" x="272.042741" y="140.375427" style="fill: #1f77b4; stroke: #1f77b4"/>
     <use xlink:href="#md62bdba978" x="275.459974" y="142.574712" style="fill: #1f77b4; stroke: #1f77b4"/>
     <use xlink:href="#md62bdba978" x="278.877794" y="147.602913" style="fill: #1f77b4; stroke: #1f77b4"/>
     <use xlink:href="#md62bdba978" x="282.295131" y="150.410309" style="fill: #1f77b4; stroke: #1f77b4"/>
     <use xlink:href="#md62bdba978" x="285.712492" y="154.546472" style="fill: #1f77b4; stroke: #1f77b4"/>
     <use xlink:href="#md62bdba978" x="289.130157" y="157.389807" style="fill: #1f77b4; stroke: #1f77b4"/>
     <use xlink:href="#md62bdba978" x="292.547589" y="161.699989" style="fill: #1f77b4; stroke: #1f77b4"/>
     <use xlink:href="#md62bdba978" x="295.964643" y="164.502547" style="fill: #1f77b4; stroke: #1f77b4"/>
     <use xlink:href="#md62bdba978" x="299.382314" y="169.1667" style="fill: #1f77b4; stroke: #1f77b4"/>
     <use xlink:href="#md62bdba978" x="302.801348" y="172.597533" style="fill: #1f77b4; stroke: #1f77b4"/>
     <use xlink:href="#md62bdba978" x="306.21729" y="175.194674" style="fill: #1f77b4; stroke: #1f77b4"/>
     <use xlink:href="#md62bdba978" x="309.634736" y="176.316409" style="fill: #1f77b4; stroke: #1f77b4"/>
     <use xlink:href="#md62bdba978" x="313.053289" y="184.511207" style="fill: #1f77b4; stroke: #1f77b4"/>
     <use xlink:href="#md62bdba978" x="316.468084" y="188.879524" style="fill: #1f77b4; stroke: #1f77b4"/>
     <use xlink:href="#md62bdba978" x="319.886402" y="191.709365" style="fill: #1f77b4; stroke: #1f77b4"/>
     <use xlink:href="#md62bdba978" x="323.303848" y="209.669585" style="fill: #1f77b4; stroke: #1f77b4"/>
     <use xlink:href="#md62bdba978" x="330.139734" y="204.095056" style="fill: #1f77b4; stroke: #1f77b4"/>
     <use xlink:href="#md62bdba978" x="333.557414" y="207.606018" style="fill: #1f77b4; stroke: #1f77b4"/>
     <use xlink:href="#md62bdba978" x="340.390826" y="216.065662" style="fill: #1f77b4; stroke: #1f77b4"/>
     <use xlink:href="#md62bdba978" x="343.808272" y="220.477352" style="fill: #1f77b4; stroke: #1f77b4"/>
     <use xlink:href="#md62bdba978" x="347.225977" y="222.234273" style="fill: #1f77b4; stroke: #1f77b4"/>
     <use xlink:href="#md62bdba978" x="350.642983" y="229.191796" style="fill: #1f77b4; stroke: #1f77b4"/>
     <use xlink:href="#md62bdba978" x="354.061541" y="232.667537" style="fill: #1f77b4; stroke: #1f77b4"/>
     <use xlink:href="#md62bdba978" x="364.312922" y="242.520236" style="fill: #1f77b4; stroke: #1f77b4"/>
     <use xlink:href="#md62bdba978" x="367.730341" y="257.335836" style="fill: #1f77b4; stroke: #1f77b4"/>
     <use xlink:href="#md62bdba978" x="371.147812" y="258.413133" style="fill: #1f77b4; stroke: #1f77b4"/>
     <use xlink:href="#md62bdba978" x="374.565564" y="262.661628" style="fill: #1f77b4; stroke: #1f77b4"/>
     <use xlink:href="#md62bdba978" x="381.400254" y="267.257056" style="fill: #1f77b4; stroke: #1f77b4"/>
     <use xlink:href="#md62bdba978" x="395.070158" y="286.721711" style="fill: #1f77b4; stroke: #1f77b4"/>
     <use xlink:href="#md62bdba978" x="398.487273" y="273.474245" style="fill: #1f77b4; stroke: #1f77b4"/>
    </g>
   </g>
   <g id="matplotlib.axis_1">
    <g id="xtick_1">
     <g id="line2d_1">
      <path d="M 94.732742 307.584 
L 94.732742 41.472 
" clip-path="url(#pfb486a6f4f)" style="fill: none; stroke: #b0b0b0; stroke-width: 0.8; stroke-linecap: square"/>
     </g>
     <g id="line2d_2">
      <defs>
       <path id="me6c9756128" d="M 0 0 
L 0 3.5 
" style="stroke: #000000; stroke-width: 0.8"/>
      </defs>
      <g>
       <use xlink:href="#me6c9756128" x="94.732742" y="307.584" style="stroke: #000000; stroke-width: 0.8"/>
      </g>
     </g>
     <g id="text_1">
      <!-- $\mathdefault{10^{0}}$ -->
      <g transform="translate(85.932742 322.182437) scale(0.1 -0.1)">
       <defs>
        <path id="DejaVuSans-31" d="M 794 531 
L 1825 531 
L 1825 4091 
L 703 3866 
L 703 4441 
L 1819 4666 
L 2450 4666 
L 2450 531 
L 3481 531 
L 3481 0 
L 794 0 
L 794 531 
z
" transform="scale(0.015625)"/>
        <path id="DejaVuSans-30" d="M 2034 4250 
Q 1547 4250 1301 3770 
Q 1056 3291 1056 2328 
Q 1056 1369 1301 889 
Q 1547 409 2034 409 
Q 2525 409 2770 889 
Q 3016 1369 3016 2328 
Q 3016 3291 2770 3770 
Q 2525 4250 2034 4250 
z
M 2034 4750 
Q 2819 4750 3233 4129 
Q 3647 3509 3647 2328 
Q 3647 1150 3233 529 
Q 2819 -91 2034 -91 
Q 1250 -91 836 529 
Q 422 1150 422 2328 
Q 422 3509 836 4129 
Q 1250 4750 2034 4750 
z
" transform="scale(0.015625)"/>
       </defs>
       <use xlink:href="#DejaVuSans-31" transform="translate(0 0.765625)"/>
       <use xlink:href="#DejaVuSans-30" transform="translate(63.623047 0.765625)"/>
       <use xlink:href="#DejaVuSans-30" transform="translate(128.203125 39.046875) scale(0.7)"/>
      </g>
     </g>
    </g>
    <g id="xtick_2">
     <g id="line2d_3">
      <path d="M 198.290892 307.584 
L 198.290892 41.472 
" clip-path="url(#pfb486a6f4f)" style="fill: none; stroke: #b0b0b0; stroke-width: 0.8; stroke-linecap: square"/>
     </g>
     <g id="line2d_4">
      <g>
       <use xlink:href="#me6c9756128" x="198.290892" y="307.584" style="stroke: #000000; stroke-width: 0.8"/>
      </g>
     </g>
     <g id="text_2">
      <!-- $\mathdefault{10^{1}}$ -->
      <g transform="translate(189.490892 322.182437) scale(0.1 -0.1)">
       <use xlink:href="#DejaVuSans-31" transform="translate(0 0.684375)"/>
       <use xlink:href="#DejaVuSans-30" transform="translate(63.623047 0.684375)"/>
       <use xlink:href="#DejaVuSans-31" transform="translate(128.203125 38.965625) scale(0.7)"/>
      </g>
     </g>
    </g>
    <g id="xtick_3">
     <g id="line2d_5">
      <path d="M 301.849042 307.584 
L 301.849042 41.472 
" clip-path="url(#pfb486a6f4f)" style="fill: none; stroke: #b0b0b0; stroke-width: 0.8; stroke-linecap: square"/>
     </g>
     <g id="line2d_6">
      <g>
       <use xlink:href="#me6c9756128" x="301.849042" y="307.584" style="stroke: #000000; stroke-width: 0.8"/>
      </g>
     </g>
     <g id="text_3">
      <!-- $\mathdefault{10^{2}}$ -->
      <g transform="translate(293.049042 322.182437) scale(0.1 -0.1)">
       <defs>
        <path id="DejaVuSans-32" d="M 1228 531 
L 3431 531 
L 3431 0 
L 469 0 
L 469 531 
Q 828 903 1448 1529 
Q 2069 2156 2228 2338 
Q 2531 2678 2651 2914 
Q 2772 3150 2772 3378 
Q 2772 3750 2511 3984 
Q 2250 4219 1831 4219 
Q 1534 4219 1204 4116 
Q 875 4013 500 3803 
L 500 4441 
Q 881 4594 1212 4672 
Q 1544 4750 1819 4750 
Q 2544 4750 2975 4387 
Q 3406 4025 3406 3419 
Q 3406 3131 3298 2873 
Q 3191 2616 2906 2266 
Q 2828 2175 2409 1742 
Q 1991 1309 1228 531 
z
" transform="scale(0.015625)"/>
       </defs>
       <use xlink:href="#DejaVuSans-31" transform="translate(0 0.765625)"/>
       <use xlink:href="#DejaVuSans-30" transform="translate(63.623047 0.765625)"/>
       <use xlink:href="#DejaVuSans-32" transform="translate(128.203125 39.046875) scale(0.7)"/>
      </g>
     </g>
    </g>
    <g id="xtick_4">
     <g id="line2d_7">
      <path d="M 405.407193 307.584 
L 405.407193 41.472 
" clip-path="url(#pfb486a6f4f)" style="fill: none; stroke: #b0b0b0; stroke-width: 0.8; stroke-linecap: square"/>
     </g>
     <g id="line2d_8">
      <g>
       <use xlink:href="#me6c9756128" x="405.407193" y="307.584" style="stroke: #000000; stroke-width: 0.8"/>
      </g>
     </g>
     <g id="text_4">
      <!-- $\mathdefault{10^{3}}$ -->
      <g transform="translate(396.607193 322.182437) scale(0.1 -0.1)">
       <defs>
        <path id="DejaVuSans-33" d="M 2597 2516 
Q 3050 2419 3304 2112 
Q 3559 1806 3559 1356 
Q 3559 666 3084 287 
Q 2609 -91 1734 -91 
Q 1441 -91 1130 -33 
Q 819 25 488 141 
L 488 750 
Q 750 597 1062 519 
Q 1375 441 1716 441 
Q 2309 441 2620 675 
Q 2931 909 2931 1356 
Q 2931 1769 2642 2001 
Q 2353 2234 1838 2234 
L 1294 2234 
L 1294 2753 
L 1863 2753 
Q 2328 2753 2575 2939 
Q 2822 3125 2822 3475 
Q 2822 3834 2567 4026 
Q 2313 4219 1838 4219 
Q 1578 4219 1281 4162 
Q 984 4106 628 3988 
L 628 4550 
Q 988 4650 1302 4700 
Q 1616 4750 1894 4750 
Q 2613 4750 3031 4423 
Q 3450 4097 3450 3541 
Q 3450 3153 3228 2886 
Q 3006 2619 2597 2516 
z
" transform="scale(0.015625)"/>
       </defs>
       <use xlink:href="#DejaVuSans-31" transform="translate(0 0.765625)"/>
       <use xlink:href="#DejaVuSans-30" transform="translate(63.623047 0.765625)"/>
       <use xlink:href="#DejaVuSans-33" transform="translate(128.203125 39.046875) scale(0.7)"/>
      </g>
     </g>
    </g>
    <g id="xtick_5">
     <g id="line2d_9">
      <defs>
       <path id="mca8cf3f483" d="M 0 0 
L 0 2 
" style="stroke: #000000; stroke-width: 0.6"/>
      </defs>
      <g>
       <use xlink:href="#mca8cf3f483" x="63.558632" y="307.584" style="stroke: #000000; stroke-width: 0.6"/>
      </g>
     </g>
    </g>
    <g id="xtick_6">
     <g id="line2d_10">
      <g>
       <use xlink:href="#mca8cf3f483" x="71.758495" y="307.584" style="stroke: #000000; stroke-width: 0.6"/>
      </g>
     </g>
    </g>
    <g id="xtick_7">
     <g id="line2d_11">
      <g>
       <use xlink:href="#mca8cf3f483" x="78.691381" y="307.584" style="stroke: #000000; stroke-width: 0.6"/>
      </g>
     </g>
    </g>
    <g id="xtick_8">
     <g id="line2d_12">
      <g>
       <use xlink:href="#mca8cf3f483" x="84.69692" y="307.584" style="stroke: #000000; stroke-width: 0.6"/>
      </g>
     </g>
    </g>
    <g id="xtick_9">
     <g id="line2d_13">
      <g>
       <use xlink:href="#mca8cf3f483" x="89.994181" y="307.584" style="stroke: #000000; stroke-width: 0.6"/>
      </g>
     </g>
    </g>
    <g id="xtick_10">
     <g id="line2d_14">
      <g>
       <use xlink:href="#mca8cf3f483" x="125.906851" y="307.584" style="stroke: #000000; stroke-width: 0.6"/>
      </g>
     </g>
    </g>
    <g id="xtick_11">
     <g id="line2d_15">
      <g>
       <use xlink:href="#mca8cf3f483" x="144.142536" y="307.584" style="stroke: #000000; stroke-width: 0.6"/>
      </g>
     </g>
    </g>
    <g id="xtick_12">
     <g id="line2d_16">
      <g>
       <use xlink:href="#mca8cf3f483" x="157.080961" y="307.584" style="stroke: #000000; stroke-width: 0.6"/>
      </g>
     </g>
    </g>
    <g id="xtick_13">
     <g id="line2d_17">
      <g>
       <use xlink:href="#mca8cf3f483" x="167.116782" y="307.584" style="stroke: #000000; stroke-width: 0.6"/>
      </g>
     </g>
    </g>
    <g id="xtick_14">
     <g id="line2d_18">
      <g>
       <use xlink:href="#mca8cf3f483" x="175.316646" y="307.584" style="stroke: #000000; stroke-width: 0.6"/>
      </g>
     </g>
    </g>
    <g id="xtick_15">
     <g id="line2d_19">
      <g>
       <use xlink:href="#mca8cf3f483" x="182.249531" y="307.584" style="stroke: #000000; stroke-width: 0.6"/>
      </g>
     </g>
    </g>
    <g id="xtick_16">
     <g id="line2d_20">
      <g>
       <use xlink:href="#mca8cf3f483" x="188.25507" y="307.584" style="stroke: #000000; stroke-width: 0.6"/>
      </g>
     </g>
    </g>
    <g id="xtick_17">
     <g id="line2d_21">
      <g>
       <use xlink:href="#mca8cf3f483" x="193.552331" y="307.584" style="stroke: #000000; stroke-width: 0.6"/>
      </g>
     </g>
    </g>
    <g id="xtick_18">
     <g id="line2d_22">
      <g>
       <use xlink:href="#mca8cf3f483" x="229.465001" y="307.584" style="stroke: #000000; stroke-width: 0.6"/>
      </g>
     </g>
    </g>
    <g id="xtick_19">
     <g id="line2d_23">
      <g>
       <use xlink:href="#mca8cf3f483" x="247.700687" y="307.584" style="stroke: #000000; stroke-width: 0.6"/>
      </g>
     </g>
    </g>
    <g id="xtick_20">
     <g id="line2d_24">
      <g>
       <use xlink:href="#mca8cf3f483" x="260.639111" y="307.584" style="stroke: #000000; stroke-width: 0.6"/>
      </g>
     </g>
    </g>
    <g id="xtick_21">
     <g id="line2d_25">
      <g>
       <use xlink:href="#mca8cf3f483" x="270.674933" y="307.584" style="stroke: #000000; stroke-width: 0.6"/>
      </g>
     </g>
    </g>
    <g id="xtick_22">
     <g id="line2d_26">
      <g>
       <use xlink:href="#mca8cf3f483" x="278.874796" y="307.584" style="stroke: #000000; stroke-width: 0.6"/>
      </g>
     </g>
    </g>
    <g id="xtick_23">
     <g id="line2d_27">
      <g>
       <use xlink:href="#mca8cf3f483" x="285.807682" y="307.584" style="stroke: #000000; stroke-width: 0.6"/>
      </g>
     </g>
    </g>
    <g id="xtick_24">
     <g id="line2d_28">
      <g>
       <use xlink:href="#mca8cf3f483" x="291.813221" y="307.584" style="stroke: #000000; stroke-width: 0.6"/>
      </g>
     </g>
    </g>
    <g id="xtick_25">
     <g id="line2d_29">
      <g>
       <use xlink:href="#mca8cf3f483" x="297.110481" y="307.584" style="stroke: #000000; stroke-width: 0.6"/>
      </g>
     </g>
    </g>
    <g id="xtick_26">
     <g id="line2d_30">
      <g>
       <use xlink:href="#mca8cf3f483" x="333.023152" y="307.584" style="stroke: #000000; stroke-width: 0.6"/>
      </g>
     </g>
    </g>
    <g id="xtick_27">
     <g id="line2d_31">
      <g>
       <use xlink:href="#mca8cf3f483" x="351.258837" y="307.584" style="stroke: #000000; stroke-width: 0.6"/>
      </g>
     </g>
    </g>
    <g id="xtick_28">
     <g id="line2d_32">
      <g>
       <use xlink:href="#mca8cf3f483" x="364.197261" y="307.584" style="stroke: #000000; stroke-width: 0.6"/>
      </g>
     </g>
    </g>
    <g id="xtick_29">
     <g id="line2d_33">
      <g>
       <use xlink:href="#mca8cf3f483" x="374.233083" y="307.584" style="stroke: #000000; stroke-width: 0.6"/>
      </g>
     </g>
    </g>
    <g id="xtick_30">
     <g id="line2d_34">
      <g>
       <use xlink:href="#mca8cf3f483" x="382.432946" y="307.584" style="stroke: #000000; stroke-width: 0.6"/>
      </g>
     </g>
    </g>
    <g id="xtick_31">
     <g id="line2d_35">
      <g>
       <use xlink:href="#mca8cf3f483" x="389.365832" y="307.584" style="stroke: #000000; stroke-width: 0.6"/>
      </g>
     </g>
    </g>
    <g id="xtick_32">
     <g id="line2d_36">
      <g>
       <use xlink:href="#mca8cf3f483" x="395.371371" y="307.584" style="stroke: #000000; stroke-width: 0.6"/>
      </g>
     </g>
    </g>
    <g id="xtick_33">
     <g id="line2d_37">
      <g>
       <use xlink:href="#mca8cf3f483" x="400.668631" y="307.584" style="stroke: #000000; stroke-width: 0.6"/>
      </g>
     </g>
    </g>
    <g id="text_5">
     <!-- ω [rad/sec] -->
     <g transform="translate(208.074062 335.860562) scale(0.1 -0.1)">
      <defs>
       <path id="DejaVuSans-3c9" d="M 1719 -91 
Q 422 -91 422 1766 
Q 422 2500 906 3500 
L 1525 3500 
Q 1078 2500 1078 1750 
Q 1078 397 1772 397 
Q 2406 397 2406 2078 
L 2938 2078 
Q 2938 397 3572 397 
Q 4266 397 4266 1750 
Q 4266 2500 3819 3500 
L 4438 3500 
Q 4922 2500 4922 1766 
Q 4922 -91 3625 -91 
Q 2775 -91 2672 844 
Q 2544 -91 1719 -91 
z
" transform="scale(0.015625)"/>
       <path id="DejaVuSans-20" transform="scale(0.015625)"/>
       <path id="DejaVuSans-5b" d="M 550 4863 
L 1875 4863 
L 1875 4416 
L 1125 4416 
L 1125 -397 
L 1875 -397 
L 1875 -844 
L 550 -844 
L 550 4863 
z
" transform="scale(0.015625)"/>
       <path id="DejaVuSans-72" d="M 2631 2963 
Q 2534 3019 2420 3045 
Q 2306 3072 2169 3072 
Q 1681 3072 1420 2755 
Q 1159 2438 1159 1844 
L 1159 0 
L 581 0 
L 581 3500 
L 1159 3500 
L 1159 2956 
Q 1341 3275 1631 3429 
Q 1922 3584 2338 3584 
Q 2397 3584 2469 3576 
Q 2541 3569 2628 3553 
L 2631 2963 
z
" transform="scale(0.015625)"/>
       <path id="DejaVuSans-61" d="M 2194 1759 
Q 1497 1759 1228 1600 
Q 959 1441 959 1056 
Q 959 750 1161 570 
Q 1363 391 1709 391 
Q 2188 391 2477 730 
Q 2766 1069 2766 1631 
L 2766 1759 
L 2194 1759 
z
M 3341 1997 
L 3341 0 
L 2766 0 
L 2766 531 
Q 2569 213 2275 61 
Q 1981 -91 1556 -91 
Q 1019 -91 701 211 
Q 384 513 384 1019 
Q 384 1609 779 1909 
Q 1175 2209 1959 2209 
L 2766 2209 
L 2766 2266 
Q 2766 2663 2505 2880 
Q 2244 3097 1772 3097 
Q 1472 3097 1187 3025 
Q 903 2953 641 2809 
L 641 3341 
Q 956 3463 1253 3523 
Q 1550 3584 1831 3584 
Q 2591 3584 2966 3190 
Q 3341 2797 3341 1997 
z
" transform="scale(0.015625)"/>
       <path id="DejaVuSans-64" d="M 2906 2969 
L 2906 4863 
L 3481 4863 
L 3481 0 
L 2906 0 
L 2906 525 
Q 2725 213 2448 61 
Q 2172 -91 1784 -91 
Q 1150 -91 751 415 
Q 353 922 353 1747 
Q 353 2572 751 3078 
Q 1150 3584 1784 3584 
Q 2172 3584 2448 3432 
Q 2725 3281 2906 2969 
z
M 947 1747 
Q 947 1113 1208 752 
Q 1469 391 1925 391 
Q 2381 391 2643 752 
Q 2906 1113 2906 1747 
Q 2906 2381 2643 2742 
Q 2381 3103 1925 3103 
Q 1469 3103 1208 2742 
Q 947 2381 947 1747 
z
" transform="scale(0.015625)"/>
       <path id="DejaVuSans-2f" d="M 1625 4666 
L 2156 4666 
L 531 -594 
L 0 -594 
L 1625 4666 
z
" transform="scale(0.015625)"/>
       <path id="DejaVuSans-73" d="M 2834 3397 
L 2834 2853 
Q 2591 2978 2328 3040 
Q 2066 3103 1784 3103 
Q 1356 3103 1142 2972 
Q 928 2841 928 2578 
Q 928 2378 1081 2264 
Q 1234 2150 1697 2047 
L 1894 2003 
Q 2506 1872 2764 1633 
Q 3022 1394 3022 966 
Q 3022 478 2636 193 
Q 2250 -91 1575 -91 
Q 1294 -91 989 -36 
Q 684 19 347 128 
L 347 722 
Q 666 556 975 473 
Q 1284 391 1588 391 
Q 1994 391 2212 530 
Q 2431 669 2431 922 
Q 2431 1156 2273 1281 
Q 2116 1406 1581 1522 
L 1381 1569 
Q 847 1681 609 1914 
Q 372 2147 372 2553 
Q 372 3047 722 3315 
Q 1072 3584 1716 3584 
Q 2034 3584 2315 3537 
Q 2597 3491 2834 3397 
z
" transform="scale(0.015625)"/>
       <path id="DejaVuSans-65" d="M 3597 1894 
L 3597 1613 
L 953 1613 
Q 991 1019 1311 708 
Q 1631 397 2203 397 
Q 2534 397 2845 478 
Q 3156 559 3463 722 
L 3463 178 
Q 3153 47 2828 -22 
Q 2503 -91 2169 -91 
Q 1331 -91 842 396 
Q 353 884 353 1716 
Q 353 2575 817 3079 
Q 1281 3584 2069 3584 
Q 2775 3584 3186 3129 
Q 3597 2675 3597 1894 
z
M 3022 2063 
Q 3016 2534 2758 2815 
Q 2500 3097 2075 3097 
Q 1594 3097 1305 2825 
Q 1016 2553 972 2059 
L 3022 2063 
z
" transform="scale(0.015625)"/>
       <path id="DejaVuSans-63" d="M 3122 3366 
L 3122 2828 
Q 2878 2963 2633 3030 
Q 2388 3097 2138 3097 
Q 1578 3097 1268 2742 
Q 959 2388 959 1747 
Q 959 1106 1268 751 
Q 1578 397 2138 397 
Q 2388 397 2633 464 
Q 2878 531 3122 666 
L 3122 134 
Q 2881 22 2623 -34 
Q 2366 -91 2075 -91 
Q 1284 -91 818 406 
Q 353 903 353 1747 
Q 353 2603 823 3093 
Q 1294 3584 2113 3584 
Q 2378 3584 2631 3529 
Q 2884 3475 3122 3366 
z
" transform="scale(0.015625)"/>
       <path id="DejaVuSans-5d" d="M 1947 4863 
L 1947 -844 
L 622 -844 
L 622 -397 
L 1369 -397 
L 1369 4416 
L 622 4416 
L 622 4863 
L 1947 4863 
z
" transform="scale(0.015625)"/>
      </defs>
      <use xlink:href="#DejaVuSans-3c9"/>
      <use xlink:href="#DejaVuSans-20" transform="translate(83.740234 0)"/>
      <use xlink:href="#DejaVuSans-5b" transform="translate(115.527344 0)"/>
      <use xlink:href="#DejaVuSans-72" transform="translate(154.541016 0)"/>
      <use xlink:href="#DejaVuSans-61" transform="translate(195.654297 0)"/>
      <use xlink:href="#DejaVuSans-64" transform="translate(256.933594 0)"/>
      <use xlink:href="#DejaVuSans-2f" transform="translate(320.410156 0)"/>
      <use xlink:href="#DejaVuSans-73" transform="translate(354.101562 0)"/>
      <use xlink:href="#DejaVuSans-65" transform="translate(406.201172 0)"/>
      <use xlink:href="#DejaVuSans-63" transform="translate(467.724609 0)"/>
      <use xlink:href="#DejaVuSans-5d" transform="translate(522.705078 0)"/>
     </g>
    </g>
   </g>
   <g id="matplotlib.axis_2">
    <g id="ytick_1">
     <g id="line2d_38">
      <path d="M 57.6 299.151799 
L 414.72 299.151799 
" clip-path="url(#pfb486a6f4f)" style="fill: none; stroke: #b0b0b0; stroke-width: 0.8; stroke-linecap: square"/>
     </g>
     <g id="line2d_39">
      <defs>
       <path id="m43a0c50abd" d="M 0 0 
L -3.5 0 
" style="stroke: #000000; stroke-width: 0.8"/>
      </defs>
      <g>
       <use xlink:href="#m43a0c50abd" x="57.6" y="299.151799" style="stroke: #000000; stroke-width: 0.8"/>
      </g>
     </g>
     <g id="text_6">
      <!-- −80 -->
      <g transform="translate(29.495313 302.951018) scale(0.1 -0.1)">
       <defs>
        <path id="DejaVuSans-2212" d="M 678 2272 
L 4684 2272 
L 4684 1741 
L 678 1741 
L 678 2272 
z
" transform="scale(0.015625)"/>
        <path id="DejaVuSans-38" d="M 2034 2216 
Q 1584 2216 1326 1975 
Q 1069 1734 1069 1313 
Q 1069 891 1326 650 
Q 1584 409 2034 409 
Q 2484 409 2743 651 
Q 3003 894 3003 1313 
Q 3003 1734 2745 1975 
Q 2488 2216 2034 2216 
z
M 1403 2484 
Q 997 2584 770 2862 
Q 544 3141 544 3541 
Q 544 4100 942 4425 
Q 1341 4750 2034 4750 
Q 2731 4750 3128 4425 
Q 3525 4100 3525 3541 
Q 3525 3141 3298 2862 
Q 3072 2584 2669 2484 
Q 3125 2378 3379 2068 
Q 3634 1759 3634 1313 
Q 3634 634 3220 271 
Q 2806 -91 2034 -91 
Q 1263 -91 848 271 
Q 434 634 434 1313 
Q 434 1759 690 2068 
Q 947 2378 1403 2484 
z
M 1172 3481 
Q 1172 3119 1398 2916 
Q 1625 2713 2034 2713 
Q 2441 2713 2670 2916 
Q 2900 3119 2900 3481 
Q 2900 3844 2670 4047 
Q 2441 4250 2034 4250 
Q 1625 4250 1398 4047 
Q 1172 3844 1172 3481 
z
" transform="scale(0.015625)"/>
       </defs>
       <use xlink:href="#DejaVuSans-2212"/>
       <use xlink:href="#DejaVuSans-38" transform="translate(83.789062 0)"/>
       <use xlink:href="#DejaVuSans-30" transform="translate(147.412109 0)"/>
      </g>
     </g>
    </g>
    <g id="ytick_2">
     <g id="line2d_40">
      <path d="M 57.6 266.603384 
L 414.72 266.603384 
" clip-path="url(#pfb486a6f4f)" style="fill: none; stroke: #b0b0b0; stroke-width: 0.8; stroke-linecap: square"/>
     </g>
     <g id="line2d_41">
      <g>
       <use xlink:href="#m43a0c50abd" x="57.6" y="266.603384" style="stroke: #000000; stroke-width: 0.8"/>
      </g>
     </g>
     <g id="text_7">
      <!-- −70 -->
      <g transform="translate(29.495313 270.402603) scale(0.1 -0.1)">
       <defs>
        <path id="DejaVuSans-37" d="M 525 4666 
L 3525 4666 
L 3525 4397 
L 1831 0 
L 1172 0 
L 2766 4134 
L 525 4134 
L 525 4666 
z
" transform="scale(0.015625)"/>
       </defs>
       <use xlink:href="#DejaVuSans-2212"/>
       <use xlink:href="#DejaVuSans-37" transform="translate(83.789062 0)"/>
       <use xlink:href="#DejaVuSans-30" transform="translate(147.412109 0)"/>
      </g>
     </g>
    </g>
    <g id="ytick_3">
     <g id="line2d_42">
      <path d="M 57.6 234.054969 
L 414.72 234.054969 
" clip-path="url(#pfb486a6f4f)" style="fill: none; stroke: #b0b0b0; stroke-width: 0.8; stroke-linecap: square"/>
     </g>
     <g id="line2d_43">
      <g>
       <use xlink:href="#m43a0c50abd" x="57.6" y="234.054969" style="stroke: #000000; stroke-width: 0.8"/>
      </g>
     </g>
     <g id="text_8">
      <!-- −60 -->
      <g transform="translate(29.495313 237.854188) scale(0.1 -0.1)">
       <defs>
        <path id="DejaVuSans-36" d="M 2113 2584 
Q 1688 2584 1439 2293 
Q 1191 2003 1191 1497 
Q 1191 994 1439 701 
Q 1688 409 2113 409 
Q 2538 409 2786 701 
Q 3034 994 3034 1497 
Q 3034 2003 2786 2293 
Q 2538 2584 2113 2584 
z
M 3366 4563 
L 3366 3988 
Q 3128 4100 2886 4159 
Q 2644 4219 2406 4219 
Q 1781 4219 1451 3797 
Q 1122 3375 1075 2522 
Q 1259 2794 1537 2939 
Q 1816 3084 2150 3084 
Q 2853 3084 3261 2657 
Q 3669 2231 3669 1497 
Q 3669 778 3244 343 
Q 2819 -91 2113 -91 
Q 1303 -91 875 529 
Q 447 1150 447 2328 
Q 447 3434 972 4092 
Q 1497 4750 2381 4750 
Q 2619 4750 2861 4703 
Q 3103 4656 3366 4563 
z
" transform="scale(0.015625)"/>
       </defs>
       <use xlink:href="#DejaVuSans-2212"/>
       <use xlink:href="#DejaVuSans-36" transform="translate(83.789062 0)"/>
       <use xlink:href="#DejaVuSans-30" transform="translate(147.412109 0)"/>
      </g>
     </g>
    </g>
    <g id="ytick_4">
     <g id="line2d_44">
      <path d="M 57.6 201.506554 
L 414.72 201.506554 
" clip-path="url(#pfb486a6f4f)" style="fill: none; stroke: #b0b0b0; stroke-width: 0.8; stroke-linecap: square"/>
     </g>
     <g id="line2d_45">
      <g>
       <use xlink:href="#m43a0c50abd" x="57.6" y="201.506554" style="stroke: #000000; stroke-width: 0.8"/>
      </g>
     </g>
     <g id="text_9">
      <!-- −50 -->
      <g transform="translate(29.495313 205.305773) scale(0.1 -0.1)">
       <defs>
        <path id="DejaVuSans-35" d="M 691 4666 
L 3169 4666 
L 3169 4134 
L 1269 4134 
L 1269 2991 
Q 1406 3038 1543 3061 
Q 1681 3084 1819 3084 
Q 2600 3084 3056 2656 
Q 3513 2228 3513 1497 
Q 3513 744 3044 326 
Q 2575 -91 1722 -91 
Q 1428 -91 1123 -41 
Q 819 9 494 109 
L 494 744 
Q 775 591 1075 516 
Q 1375 441 1709 441 
Q 2250 441 2565 725 
Q 2881 1009 2881 1497 
Q 2881 1984 2565 2268 
Q 2250 2553 1709 2553 
Q 1456 2553 1204 2497 
Q 953 2441 691 2322 
L 691 4666 
z
" transform="scale(0.015625)"/>
       </defs>
       <use xlink:href="#DejaVuSans-2212"/>
       <use xlink:href="#DejaVuSans-35" transform="translate(83.789062 0)"/>
       <use xlink:href="#DejaVuSans-30" transform="translate(147.412109 0)"/>
      </g>
     </g>
    </g>
    <g id="ytick_5">
     <g id="line2d_46">
      <path d="M 57.6 168.958139 
L 414.72 168.958139 
" clip-path="url(#pfb486a6f4f)" style="fill: none; stroke: #b0b0b0; stroke-width: 0.8; stroke-linecap: square"/>
     </g>
     <g id="line2d_47">
      <g>
       <use xlink:href="#m43a0c50abd" x="57.6" y="168.958139" style="stroke: #000000; stroke-width: 0.8"/>
      </g>
     </g>
     <g id="text_10">
      <!-- −40 -->
      <g transform="translate(29.495313 172.757358) scale(0.1 -0.1)">
       <defs>
        <path id="DejaVuSans-34" d="M 2419 4116 
L 825 1625 
L 2419 1625 
L 2419 4116 
z
M 2253 4666 
L 3047 4666 
L 3047 1625 
L 3713 1625 
L 3713 1100 
L 3047 1100 
L 3047 0 
L 2419 0 
L 2419 1100 
L 313 1100 
L 313 1709 
L 2253 4666 
z
" transform="scale(0.015625)"/>
       </defs>
       <use xlink:href="#DejaVuSans-2212"/>
       <use xlink:href="#DejaVuSans-34" transform="translate(83.789062 0)"/>
       <use xlink:href="#DejaVuSans-30" transform="translate(147.412109 0)"/>
      </g>
     </g>
    </g>
    <g id="ytick_6">
     <g id="line2d_48">
      <path d="M 57.6 136.409724 
L 414.72 136.409724 
" clip-path="url(#pfb486a6f4f)" style="fill: none; stroke: #b0b0b0; stroke-width: 0.8; stroke-linecap: square"/>
     </g>
     <g id="line2d_49">
      <g>
       <use xlink:href="#m43a0c50abd" x="57.6" y="136.409724" style="stroke: #000000; stroke-width: 0.8"/>
      </g>
     </g>
     <g id="text_11">
      <!-- −30 -->
      <g transform="translate(29.495313 140.208943) scale(0.1 -0.1)">
       <use xlink:href="#DejaVuSans-2212"/>
       <use xlink:href="#DejaVuSans-33" transform="translate(83.789062 0)"/>
       <use xlink:href="#DejaVuSans-30" transform="translate(147.412109 0)"/>
      </g>
     </g>
    </g>
    <g id="ytick_7">
     <g id="line2d_50">
      <path d="M 57.6 103.861309 
L 414.72 103.861309 
" clip-path="url(#pfb486a6f4f)" style="fill: none; stroke: #b0b0b0; stroke-width: 0.8; stroke-linecap: square"/>
     </g>
     <g id="line2d_51">
      <g>
       <use xlink:href="#m43a0c50abd" x="57.6" y="103.861309" style="stroke: #000000; stroke-width: 0.8"/>
      </g>
     </g>
     <g id="text_12">
      <!-- −20 -->
      <g transform="translate(29.495313 107.660528) scale(0.1 -0.1)">
       <use xlink:href="#DejaVuSans-2212"/>
       <use xlink:href="#DejaVuSans-32" transform="translate(83.789062 0)"/>
       <use xlink:href="#DejaVuSans-30" transform="translate(147.412109 0)"/>
      </g>
     </g>
    </g>
    <g id="ytick_8">
     <g id="line2d_52">
      <path d="M 57.6 71.312894 
L 414.72 71.312894 
" clip-path="url(#pfb486a6f4f)" style="fill: none; stroke: #b0b0b0; stroke-width: 0.8; stroke-linecap: square"/>
     </g>
     <g id="line2d_53">
      <g>
       <use xlink:href="#m43a0c50abd" x="57.6" y="71.312894" style="stroke: #000000; stroke-width: 0.8"/>
      </g>
     </g>
     <g id="text_13">
      <!-- −10 -->
      <g transform="translate(29.495313 75.112113) scale(0.1 -0.1)">
       <use xlink:href="#DejaVuSans-2212"/>
       <use xlink:href="#DejaVuSans-31" transform="translate(83.789062 0)"/>
       <use xlink:href="#DejaVuSans-30" transform="translate(147.412109 0)"/>
      </g>
     </g>
    </g>
    <g id="text_14">
     <!-- 20log|G(jω)| -->
     <g transform="translate(23.1375 205.233469) rotate(-90) scale(0.1 -0.1)">
      <defs>
       <path id="DejaVuSans-6c" d="M 603 4863 
L 1178 4863 
L 1178 0 
L 603 0 
L 603 4863 
z
" transform="scale(0.015625)"/>
       <path id="DejaVuSans-6f" d="M 1959 3097 
Q 1497 3097 1228 2736 
Q 959 2375 959 1747 
Q 959 1119 1226 758 
Q 1494 397 1959 397 
Q 2419 397 2687 759 
Q 2956 1122 2956 1747 
Q 2956 2369 2687 2733 
Q 2419 3097 1959 3097 
z
M 1959 3584 
Q 2709 3584 3137 3096 
Q 3566 2609 3566 1747 
Q 3566 888 3137 398 
Q 2709 -91 1959 -91 
Q 1206 -91 779 398 
Q 353 888 353 1747 
Q 353 2609 779 3096 
Q 1206 3584 1959 3584 
z
" transform="scale(0.015625)"/>
       <path id="DejaVuSans-67" d="M 2906 1791 
Q 2906 2416 2648 2759 
Q 2391 3103 1925 3103 
Q 1463 3103 1205 2759 
Q 947 2416 947 1791 
Q 947 1169 1205 825 
Q 1463 481 1925 481 
Q 2391 481 2648 825 
Q 2906 1169 2906 1791 
z
M 3481 434 
Q 3481 -459 3084 -895 
Q 2688 -1331 1869 -1331 
Q 1566 -1331 1297 -1286 
Q 1028 -1241 775 -1147 
L 775 -588 
Q 1028 -725 1275 -790 
Q 1522 -856 1778 -856 
Q 2344 -856 2625 -561 
Q 2906 -266 2906 331 
L 2906 616 
Q 2728 306 2450 153 
Q 2172 0 1784 0 
Q 1141 0 747 490 
Q 353 981 353 1791 
Q 353 2603 747 3093 
Q 1141 3584 1784 3584 
Q 2172 3584 2450 3431 
Q 2728 3278 2906 2969 
L 2906 3500 
L 3481 3500 
L 3481 434 
z
" transform="scale(0.015625)"/>
       <path id="DejaVuSans-7c" d="M 1344 4891 
L 1344 -1509 
L 813 -1509 
L 813 4891 
L 1344 4891 
z
" transform="scale(0.015625)"/>
       <path id="DejaVuSans-47" d="M 3809 666 
L 3809 1919 
L 2778 1919 
L 2778 2438 
L 4434 2438 
L 4434 434 
Q 4069 175 3628 42 
Q 3188 -91 2688 -91 
Q 1594 -91 976 548 
Q 359 1188 359 2328 
Q 359 3472 976 4111 
Q 1594 4750 2688 4750 
Q 3144 4750 3555 4637 
Q 3966 4525 4313 4306 
L 4313 3634 
Q 3963 3931 3569 4081 
Q 3175 4231 2741 4231 
Q 1884 4231 1454 3753 
Q 1025 3275 1025 2328 
Q 1025 1384 1454 906 
Q 1884 428 2741 428 
Q 3075 428 3337 486 
Q 3600 544 3809 666 
z
" transform="scale(0.015625)"/>
       <path id="DejaVuSans-28" d="M 1984 4856 
Q 1566 4138 1362 3434 
Q 1159 2731 1159 2009 
Q 1159 1288 1364 580 
Q 1569 -128 1984 -844 
L 1484 -844 
Q 1016 -109 783 600 
Q 550 1309 550 2009 
Q 550 2706 781 3412 
Q 1013 4119 1484 4856 
L 1984 4856 
z
" transform="scale(0.015625)"/>
       <path id="DejaVuSans-6a" d="M 603 3500 
L 1178 3500 
L 1178 -63 
Q 1178 -731 923 -1031 
Q 669 -1331 103 -1331 
L -116 -1331 
L -116 -844 
L 38 -844 
Q 366 -844 484 -692 
Q 603 -541 603 -63 
L 603 3500 
z
M 603 4863 
L 1178 4863 
L 1178 4134 
L 603 4134 
L 603 4863 
z
" transform="scale(0.015625)"/>
       <path id="DejaVuSans-29" d="M 513 4856 
L 1013 4856 
Q 1481 4119 1714 3412 
Q 1947 2706 1947 2009 
Q 1947 1309 1714 600 
Q 1481 -109 1013 -844 
L 513 -844 
Q 928 -128 1133 580 
Q 1338 1288 1338 2009 
Q 1338 2731 1133 3434 
Q 928 4138 513 4856 
z
" transform="scale(0.015625)"/>
      </defs>
      <use xlink:href="#DejaVuSans-32"/>
      <use xlink:href="#DejaVuSans-30" transform="translate(63.623047 0)"/>
      <use xlink:href="#DejaVuSans-6c" transform="translate(127.246094 0)"/>
      <use xlink:href="#DejaVuSans-6f" transform="translate(155.029297 0)"/>
      <use xlink:href="#DejaVuSans-67" transform="translate(216.210938 0)"/>
      <use xlink:href="#DejaVuSans-7c" transform="translate(279.6875 0)"/>
      <use xlink:href="#DejaVuSans-47" transform="translate(313.378906 0)"/>
      <use xlink:href="#DejaVuSans-28" transform="translate(390.869141 0)"/>
      <use xlink:href="#DejaVuSans-6a" transform="translate(429.882812 0)"/>
      <use xlink:href="#DejaVuSans-3c9" transform="translate(457.666016 0)"/>
      <use xlink:href="#DejaVuSans-29" transform="translate(541.40625 0)"/>
      <use xlink:href="#DejaVuSans-7c" transform="translate(580.419922 0)"/>
     </g>
    </g>
   </g>
   <g id="line2d_54">
    <path d="M 241.285517 206.87365 
L 241.389075 210.380437 
L 241.492633 214.378423 
L 241.596192 219.028915 
L 241.69975 224.58866 
L 241.803308 231.504101 
L 241.906866 240.661456 
L 242.010424 254.263096 
L 242.113982 281.384505 
L 242.21754 295.488 
L 242.321099 258.944503 
L 242.424657 243.544053 
L 242.528215 233.645573 
L 242.631773 226.340366 
L 73.832727 53.568 
L 77.249894 53.671381 
L 80.66734 53.790838 
L 84.085056 53.928713 
L 87.502265 54.087599 
L 97.75465 54.721427 
L 101.170763 54.996911 
L 104.588304 55.311451 
L 108.006102 55.66949 
L 111.425099 56.075931 
L 114.841788 56.535293 
L 118.260357 57.0532 
L 121.677608 57.634257 
L 125.094511 58.283552 
L 128.510505 59.005665 
L 131.927847 59.805453 
L 135.346876 60.686969 
L 138.763122 61.652285 
L 142.181474 62.705328 
L 145.598385 63.84686 
L 149.015371 65.078411 
L 152.433506 66.400793 
L 155.851104 67.813132 
L 159.267789 69.314491 
L 162.685992 70.904931 
L 166.102494 72.581816 
L 169.520501 74.345716 
L 172.937884 76.194957 
L 176.355465 78.130022 
L 179.772554 80.15152 
L 183.189884 82.262173 
L 186.607284 84.465852 
L 190.024957 86.768783 
L 193.442258 89.179306 
L 196.859753 91.710046 
L 200.279146 94.379128 
L 203.695963 97.205751 
L 207.112338 100.222379 
L 210.527891 103.470985 
L 213.947426 107.015835 
L 217.364252 110.935136 
L 220.780406 115.356497 
L 227.617329 126.624412 
L 231.033918 134.372313 
L 234.451364 144.959878 
L 237.868663 161.812112 
L 241.285517 206.87365 
L 244.703638 178.388798 
L 248.121474 155.616239 
L 251.537978 144.884753 
L 254.95623 138.993777 
L 258.373614 136.019854 
L 265.20791 135.542175 
L 268.625777 137.050034 
L 272.042741 139.281407 
L 275.459974 142.022441 
L 278.877794 145.1251 
L 282.295131 148.486938 
L 285.712492 152.039071 
L 289.130157 155.734016 
L 292.547589 159.537718 
L 295.964643 163.426077 
L 299.382314 167.382765 
L 302.801348 171.39564 
L 306.21729 175.449473 
L 309.634736 179.541921 
L 313.053289 183.66639 
L 316.468084 187.812023 
L 319.886402 191.983608 
L 323.303848 196.172473 
L 330.139734 204.595817 
L 333.557414 208.825085 
L 340.390826 217.308732 
L 343.808272 221.562647 
L 347.225977 225.822925 
L 350.642983 230.087506 
L 354.061541 234.358462 
L 364.312922 247.186699 
L 367.730341 251.468499 
L 371.147812 255.752426 
L 374.565564 260.038474 
L 381.400254 268.613895 
L 395.070158 285.77773 
L 398.487273 290.070029 
" clip-path="url(#pfb486a6f4f)" style="fill: none; stroke-dasharray: 5.55,2.4; stroke-dashoffset: 0; stroke: #ff0000; stroke-width: 1.5"/>
   </g>
   <g id="patch_3">
    <path d="M 57.6 307.584 
L 57.6 41.472 
" style="fill: none; stroke: #000000; stroke-width: 0.8; stroke-linejoin: miter; stroke-linecap: square"/>
   </g>
   <g id="patch_4">
    <path d="M 414.72 307.584 
L 414.72 41.472 
" style="fill: none; stroke: #000000; stroke-width: 0.8; stroke-linejoin: miter; stroke-linecap: square"/>
   </g>
   <g id="patch_5">
    <path d="M 57.6 307.584 
L 414.72 307.584 
" style="fill: none; stroke: #000000; stroke-width: 0.8; stroke-linejoin: miter; stroke-linecap: square"/>
   </g>
   <g id="patch_6">
    <path d="M 57.6 41.472 
L 414.72 41.472 
" style="fill: none; stroke: #000000; stroke-width: 0.8; stroke-linejoin: miter; stroke-linecap: square"/>
   </g>
   <g id="text_15">
    <!-- Bode Gain Plot (processed) -->
    <g transform="translate(154.810313 35.472) scale(0.12 -0.12)">
     <defs>
      <path id="DejaVuSans-42" d="M 1259 2228 
L 1259 519 
L 2272 519 
Q 2781 519 3026 730 
Q 3272 941 3272 1375 
Q 3272 1813 3026 2020 
Q 2781 2228 2272 2228 
L 1259 2228 
z
M 1259 4147 
L 1259 2741 
L 2194 2741 
Q 2656 2741 2882 2914 
Q 3109 3088 3109 3444 
Q 3109 3797 2882 3972 
Q 2656 4147 2194 4147 
L 1259 4147 
z
M 628 4666 
L 2241 4666 
Q 2963 4666 3353 4366 
Q 3744 4066 3744 3513 
Q 3744 3084 3544 2831 
Q 3344 2578 2956 2516 
Q 3422 2416 3680 2098 
Q 3938 1781 3938 1306 
Q 3938 681 3513 340 
Q 3088 0 2303 0 
L 628 0 
L 628 4666 
z
" transform="scale(0.015625)"/>
      <path id="DejaVuSans-69" d="M 603 3500 
L 1178 3500 
L 1178 0 
L 603 0 
L 603 3500 
z
M 603 4863 
L 1178 4863 
L 1178 4134 
L 603 4134 
L 603 4863 
z
" transform="scale(0.015625)"/>
      <path id="DejaVuSans-6e" d="M 3513 2113 
L 3513 0 
L 2938 0 
L 2938 2094 
Q 2938 2591 2744 2837 
Q 2550 3084 2163 3084 
Q 1697 3084 1428 2787 
Q 1159 2491 1159 1978 
L 1159 0 
L 581 0 
L 581 3500 
L 1159 3500 
L 1159 2956 
Q 1366 3272 1645 3428 
Q 1925 3584 2291 3584 
Q 2894 3584 3203 3211 
Q 3513 2838 3513 2113 
z
" transform="scale(0.015625)"/>
      <path id="DejaVuSans-50" d="M 1259 4147 
L 1259 2394 
L 2053 2394 
Q 2494 2394 2734 2622 
Q 2975 2850 2975 3272 
Q 2975 3691 2734 3919 
Q 2494 4147 2053 4147 
L 1259 4147 
z
M 628 4666 
L 2053 4666 
Q 2838 4666 3239 4311 
Q 3641 3956 3641 3272 
Q 3641 2581 3239 2228 
Q 2838 1875 2053 1875 
L 1259 1875 
L 1259 0 
L 628 0 
L 628 4666 
z
" transform="scale(0.015625)"/>
      <path id="DejaVuSans-74" d="M 1172 4494 
L 1172 3500 
L 2356 3500 
L 2356 3053 
L 1172 3053 
L 1172 1153 
Q 1172 725 1289 603 
Q 1406 481 1766 481 
L 2356 481 
L 2356 0 
L 1766 0 
Q 1100 0 847 248 
Q 594 497 594 1153 
L 594 3053 
L 172 3053 
L 172 3500 
L 594 3500 
L 594 4494 
L 1172 4494 
z
" transform="scale(0.015625)"/>
      <path id="DejaVuSans-70" d="M 1159 525 
L 1159 -1331 
L 581 -1331 
L 581 3500 
L 1159 3500 
L 1159 2969 
Q 1341 3281 1617 3432 
Q 1894 3584 2278 3584 
Q 2916 3584 3314 3078 
Q 3713 2572 3713 1747 
Q 3713 922 3314 415 
Q 2916 -91 2278 -91 
Q 1894 -91 1617 61 
Q 1341 213 1159 525 
z
M 3116 1747 
Q 3116 2381 2855 2742 
Q 2594 3103 2138 3103 
Q 1681 3103 1420 2742 
Q 1159 2381 1159 1747 
Q 1159 1113 1420 752 
Q 1681 391 2138 391 
Q 2594 391 2855 752 
Q 3116 1113 3116 1747 
z
" transform="scale(0.015625)"/>
     </defs>
     <use xlink:href="#DejaVuSans-42"/>
     <use xlink:href="#DejaVuSans-6f" transform="translate(68.603516 0)"/>
     <use xlink:href="#DejaVuSans-64" transform="translate(129.785156 0)"/>
     <use xlink:href="#DejaVuSans-65" transform="translate(193.261719 0)"/>
     <use xlink:href="#DejaVuSans-20" transform="translate(254.785156 0)"/>
     <use xlink:href="#DejaVuSans-47" transform="translate(286.572266 0)"/>
     <use xlink:href="#DejaVuSans-61" transform="translate(364.0625 0)"/>
     <use xlink:href="#DejaVuSans-69" transform="translate(425.341797 0)"/>
     <use xlink:href="#DejaVuSans-6e" transform="translate(453.125 0)"/>
     <use xlink:href="#DejaVuSans-20" transform="translate(516.503906 0)"/>
     <use xlink:href="#DejaVuSans-50" transform="translate(548.291016 0)"/>
     <use xlink:href="#DejaVuSans-6c" transform="translate(608.59375 0)"/>
     <use xlink:href="#DejaVuSans-6f" transform="translate(636.376953 0)"/>
     <use xlink:href="#DejaVuSans-74" transform="translate(697.558594 0)"/>
     <use xlink:href="#DejaVuSans-20" transform="translate(736.767578 0)"/>
     <use xlink:href="#DejaVuSans-28" transform="translate(768.554688 0)"/>
     <use xlink:href="#DejaVuSans-70" transform="translate(807.568359 0)"/>
     <use xlink:href="#DejaVuSans-72" transform="translate(871.044922 0)"/>
     <use xlink:href="#DejaVuSans-6f" transform="translate(909.908203 0)"/>
     <use xlink:href="#DejaVuSans-63" transform="translate(971.089844 0)"/>
     <use xlink:href="#DejaVuSans-65" transform="translate(1026.070312 0)"/>
     <use xlink:href="#DejaVuSans-73" transform="translate(1087.59375 0)"/>
     <use xlink:href="#DejaVuSans-73" transform="translate(1139.693359 0)"/>
     <use xlink:href="#DejaVuSans-65" transform="translate(1191.792969 0)"/>
     <use xlink:href="#DejaVuSans-64" transform="translate(1253.316406 0)"/>
     <use xlink:href="#DejaVuSans-29" transform="translate(1316.792969 0)"/>
    </g>
   </g>
  </g>
 </g>
 <defs>
  <clipPath id="pfb486a6f4f">
   <rect x="57.6" y="41.472" width="357.12" height="266.112"/>
  </clipPath>
 </defs>
</svg>
