<?xml version="1.0" encoding="utf-8" standalone="no"?>
<!DOCTYPE svg PUBLIC "-//W3C//DTD SVG 1.1//EN"
  "http://www.w3.org/Graphics/SVG/1.1/DTD/svg11.dtd">
<svg xmlns:xlink="http://www.w3.org/1999/xlink" width="460.8pt" height="345.6pt" viewBox="0 0 460.8 345.6" xmlns="http://www.w3.org/2000/svg" version="1.1">
 <metadata>
  <rdf:RDF xmlns:dc="http://purl.org/dc/elements/1.1/" xmlns:cc="http://creativecommons.org/ns#" xmlns:rdf="http://www.w3.org/1999/02/22-rdf-syntax-ns#">
   <cc:Work>
    <dc:type rdf:resource="http://purl.org/dc/dcmitype/StillImage"/>
    <dc:date>2025-04-14T03:12:03.605546</dc:date>
    <dc:format>image/svg+xml</dc:format>
    <dc:creator>
     <cc:Agent>
      <dc:title>Matplotlib v3.10.1, https://matplotlib.org/</dc:title>
     </cc:Agent>
    </dc:creator>
   </cc:Work>
  </rdf:RDF>
 </metadata>
 <defs>
  <style type="text/css">*{stroke-linejoin: round; stroke-linecap: butt}</style>
 </defs>
 <g id="figure_1">
  <g id="patch_1">
   <path d="M 0 345.6 
L 460.8 345.6 
L 460.8 0 
L 0 0 
z
" style="fill: #ffffff"/>
  </g>
  <g id="axes_1">
   <g id="patch_2">
    <path d="M 57.6 307.584 
L 414.72 307.584 
L 414.72 41.472 
L 57.6 41.472 
z
" style="fill: #ffffff"/>
   </g>
   <g id="PathCollection_1">
    <defs>
     <path id="m8782ccac75" d="M 0 1.414214 
C 0.375054 1.414214 0.734797 1.265203 1 1 
C 1.265203 0.734797 1.414214 0.375054 1.414214 0 
C 1.414214 -0.375054 1.265203 -0.734797 1 -1 
C 0.734797 -1.265203 0.375054 -1.414214 0 -1.414214 
C -0.375054 -1.414214 -0.734797 -1.265203 -1 -1 
C -1.265203 -0.734797 -1.414214 -0.375054 -1.414214 0 
C -1.414214 0.375054 -1.265203 0.734797 -1 1 
C -0.734797 1.265203 -0.375054 1.414214 0 1.414214 
z
" style="stroke: #1f77b4"/>
    </defs>
    <g clip-path="url(#p734ce594d9)">
     <use xlink:href="#m8782ccac75" x="73.832727" y="54.802238" style="fill: #1f77b4; stroke: #1f77b4"/>
     <use xlink:href="#m8782ccac75" x="81.948831" y="54.985688" style="fill: #1f77b4; stroke: #1f77b4"/>
     <use xlink:href="#m8782ccac75" x="86.007369" y="55.430399" style="fill: #1f77b4; stroke: #1f77b4"/>
     <use xlink:href="#m8782ccac75" x="94.123356" y="53.568" style="fill: #1f77b4; stroke: #1f77b4"/>
     <use xlink:href="#m8782ccac75" x="98.181588" y="55.802403" style="fill: #1f77b4; stroke: #1f77b4"/>
     <use xlink:href="#m8782ccac75" x="102.240016" y="56.095929" style="fill: #1f77b4; stroke: #1f77b4"/>
     <use xlink:href="#m8782ccac75" x="106.29665" y="56.455332" style="fill: #1f77b4; stroke: #1f77b4"/>
     <use xlink:href="#m8782ccac75" x="110.354981" y="57.184573" style="fill: #1f77b4; stroke: #1f77b4"/>
     <use xlink:href="#m8782ccac75" x="114.413617" y="57.816778" style="fill: #1f77b4; stroke: #1f77b4"/>
     <use xlink:href="#m8782ccac75" x="118.473678" y="58.328299" style="fill: #1f77b4; stroke: #1f77b4"/>
     <use xlink:href="#m8782ccac75" x="122.530997" y="58.869425" style="fill: #1f77b4; stroke: #1f77b4"/>
     <use xlink:href="#m8782ccac75" x="126.590547" y="59.536681" style="fill: #1f77b4; stroke: #1f77b4"/>
     <use xlink:href="#m8782ccac75" x="130.648533" y="60.461951" style="fill: #1f77b4; stroke: #1f77b4"/>
     <use xlink:href="#m8782ccac75" x="134.706107" y="61.452865" style="fill: #1f77b4; stroke: #1f77b4"/>
     <use xlink:href="#m8782ccac75" x="138.762601" y="62.38682" style="fill: #1f77b4; stroke: #1f77b4"/>
     <use xlink:href="#m8782ccac75" x="142.820695" y="63.604039" style="fill: #1f77b4; stroke: #1f77b4"/>
     <use xlink:href="#m8782ccac75" x="146.880793" y="65.141232" style="fill: #1f77b4; stroke: #1f77b4"/>
     <use xlink:href="#m8782ccac75" x="150.937585" y="65.699775" style="fill: #1f77b4; stroke: #1f77b4"/>
     <use xlink:href="#m8782ccac75" x="154.99688" y="67.50855" style="fill: #1f77b4; stroke: #1f77b4"/>
     <use xlink:href="#m8782ccac75" x="159.054462" y="69.225468" style="fill: #1f77b4; stroke: #1f77b4"/>
     <use xlink:href="#m8782ccac75" x="163.112134" y="70.919414" style="fill: #1f77b4; stroke: #1f77b4"/>
     <use xlink:href="#m8782ccac75" x="167.17117" y="72.82481" style="fill: #1f77b4; stroke: #1f77b4"/>
     <use xlink:href="#m8782ccac75" x="171.229568" y="74.478734" style="fill: #1f77b4; stroke: #1f77b4"/>
     <use xlink:href="#m8782ccac75" x="175.286882" y="77.002098" style="fill: #1f77b4; stroke: #1f77b4"/>
     <use xlink:href="#m8782ccac75" x="179.345999" y="78.999388" style="fill: #1f77b4; stroke: #1f77b4"/>
     <use xlink:href="#m8782ccac75" x="183.403096" y="81.281839" style="fill: #1f77b4; stroke: #1f77b4"/>
     <use xlink:href="#m8782ccac75" x="187.46198" y="84.215075" style="fill: #1f77b4; stroke: #1f77b4"/>
     <use xlink:href="#m8782ccac75" x="191.520124" y="86.695124" style="fill: #1f77b4; stroke: #1f77b4"/>
     <use xlink:href="#m8782ccac75" x="195.578502" y="88.726053" style="fill: #1f77b4; stroke: #1f77b4"/>
     <use xlink:href="#m8782ccac75" x="199.636295" y="91.089985" style="fill: #1f77b4; stroke: #1f77b4"/>
     <use xlink:href="#m8782ccac75" x="203.694375" y="94.181998" style="fill: #1f77b4; stroke: #1f77b4"/>
     <use xlink:href="#m8782ccac75" x="207.752538" y="96.951662" style="fill: #1f77b4; stroke: #1f77b4"/>
     <use xlink:href="#m8782ccac75" x="211.811026" y="100.297008" style="fill: #1f77b4; stroke: #1f77b4"/>
     <use xlink:href="#m8782ccac75" x="215.869072" y="103.125649" style="fill: #1f77b4; stroke: #1f77b4"/>
     <use xlink:href="#m8782ccac75" x="219.927348" y="106.950402" style="fill: #1f77b4; stroke: #1f77b4"/>
     <use xlink:href="#m8782ccac75" x="223.987878" y="109.960358" style="fill: #1f77b4; stroke: #1f77b4"/>
     <use xlink:href="#m8782ccac75" x="228.045348" y="113.548679" style="fill: #1f77b4; stroke: #1f77b4"/>
     <use xlink:href="#m8782ccac75" x="232.102295" y="117.434037" style="fill: #1f77b4; stroke: #1f77b4"/>
     <use xlink:href="#m8782ccac75" x="236.158265" y="121.54007" style="fill: #1f77b4; stroke: #1f77b4"/>
     <use xlink:href="#m8782ccac75" x="240.218963" y="124.866307" style="fill: #1f77b4; stroke: #1f77b4"/>
     <use xlink:href="#m8782ccac75" x="244.276445" y="130.467871" style="fill: #1f77b4; stroke: #1f77b4"/>
     <use xlink:href="#m8782ccac75" x="248.333129" y="136.100591" style="fill: #1f77b4; stroke: #1f77b4"/>
     <use xlink:href="#m8782ccac75" x="252.392295" y="130.330108" style="fill: #1f77b4; stroke: #1f77b4"/>
     <use xlink:href="#m8782ccac75" x="256.451977" y="150.366075" style="fill: #1f77b4; stroke: #1f77b4"/>
     <use xlink:href="#m8782ccac75" x="260.509177" y="160.220823" style="fill: #1f77b4; stroke: #1f77b4"/>
     <use xlink:href="#m8782ccac75" x="264.567394" y="175.506914" style="fill: #1f77b4; stroke: #1f77b4"/>
     <use xlink:href="#m8782ccac75" x="268.625437" y="203.028954" style="fill: #1f77b4; stroke: #1f77b4"/>
     <use xlink:href="#m8782ccac75" x="272.682953" y="266.65978" style="fill: #1f77b4; stroke: #1f77b4"/>
     <use xlink:href="#m8782ccac75" x="276.741972" y="200.823524" style="fill: #1f77b4; stroke: #1f77b4"/>
     <use xlink:href="#m8782ccac75" x="280.800654" y="178.508993" style="fill: #1f77b4; stroke: #1f77b4"/>
     <use xlink:href="#m8782ccac75" x="288.916927" y="166.483289" style="fill: #1f77b4; stroke: #1f77b4"/>
     <use xlink:href="#m8782ccac75" x="292.975071" y="165.867188" style="fill: #1f77b4; stroke: #1f77b4"/>
     <use xlink:href="#m8782ccac75" x="297.032296" y="110.60026" style="fill: #1f77b4; stroke: #1f77b4"/>
     <use xlink:href="#m8782ccac75" x="301.090799" y="170.234362" style="fill: #1f77b4; stroke: #1f77b4"/>
     <use xlink:href="#m8782ccac75" x="305.149517" y="174.462359" style="fill: #1f77b4; stroke: #1f77b4"/>
     <use xlink:href="#m8782ccac75" x="309.207162" y="177.721534" style="fill: #1f77b4; stroke: #1f77b4"/>
     <use xlink:href="#m8782ccac75" x="313.265127" y="180.885541" style="fill: #1f77b4; stroke: #1f77b4"/>
     <use xlink:href="#m8782ccac75" x="317.32379" y="188.119377" style="fill: #1f77b4; stroke: #1f77b4"/>
     <use xlink:href="#m8782ccac75" x="321.381878" y="192.158245" style="fill: #1f77b4; stroke: #1f77b4"/>
     <use xlink:href="#m8782ccac75" x="325.439995" y="198.108749" style="fill: #1f77b4; stroke: #1f77b4"/>
     <use xlink:href="#m8782ccac75" x="329.498474" y="202.199321" style="fill: #1f77b4; stroke: #1f77b4"/>
     <use xlink:href="#m8782ccac75" x="333.556674" y="208.400177" style="fill: #1f77b4; stroke: #1f77b4"/>
     <use xlink:href="#m8782ccac75" x="337.614427" y="212.432084" style="fill: #1f77b4; stroke: #1f77b4"/>
     <use xlink:href="#m8782ccac75" x="341.672912" y="219.142182" style="fill: #1f77b4; stroke: #1f77b4"/>
     <use xlink:href="#m8782ccac75" x="345.733015" y="224.07796" style="fill: #1f77b4; stroke: #1f77b4"/>
     <use xlink:href="#m8782ccac75" x="349.789448" y="227.814345" style="fill: #1f77b4; stroke: #1f77b4"/>
     <use xlink:href="#m8782ccac75" x="353.847665" y="229.428132" style="fill: #1f77b4; stroke: #1f77b4"/>
     <use xlink:href="#m8782ccac75" x="357.907198" y="241.217602" style="fill: #1f77b4; stroke: #1f77b4"/>
     <use xlink:href="#m8782ccac75" x="361.962268" y="247.502094" style="fill: #1f77b4; stroke: #1f77b4"/>
     <use xlink:href="#m8782ccac75" x="366.021521" y="251.573252" style="fill: #1f77b4; stroke: #1f77b4"/>
     <use xlink:href="#m8782ccac75" x="370.079739" y="277.411775" style="fill: #1f77b4; stroke: #1f77b4"/>
     <use xlink:href="#m8782ccac75" x="374.137714" y="262.826558" style="fill: #1f77b4; stroke: #1f77b4"/>
     <use xlink:href="#m8782ccac75" x="378.197355" y="269.391964" style="fill: #1f77b4; stroke: #1f77b4"/>
     <use xlink:href="#m8782ccac75" x="382.255851" y="274.443019" style="fill: #1f77b4; stroke: #1f77b4"/>
     <use xlink:href="#m8782ccac75" x="386.312073" y="257.578981" style="fill: #1f77b4; stroke: #1f77b4"/>
     <use xlink:href="#m8782ccac75" x="390.37053" y="286.613511" style="fill: #1f77b4; stroke: #1f77b4"/>
     <use xlink:href="#m8782ccac75" x="394.428747" y="292.960401" style="fill: #1f77b4; stroke: #1f77b4"/>
     <use xlink:href="#m8782ccac75" x="398.487273" y="295.488" style="fill: #1f77b4; stroke: #1f77b4"/>
    </g>
   </g>
   <g id="matplotlib.axis_1">
    <g id="xtick_1">
     <g id="line2d_1">
      <path d="M 98.651499 307.584 
L 98.651499 41.472 
" clip-path="url(#p734ce594d9)" style="fill: none; stroke: #b0b0b0; stroke-width: 0.8; stroke-linecap: square"/>
     </g>
     <g id="line2d_2">
      <defs>
       <path id="mc074bca091" d="M 0 0 
L 0 3.5 
" style="stroke: #000000; stroke-width: 0.8"/>
      </defs>
      <g>
       <use xlink:href="#mc074bca091" x="98.651499" y="307.584" style="stroke: #000000; stroke-width: 0.8"/>
      </g>
     </g>
     <g id="text_1">
      <!-- $\mathdefault{10^{0}}$ -->
      <g transform="translate(89.851499 322.182437) scale(0.1 -0.1)">
       <defs>
        <path id="DejaVuSans-31" d="M 794 531 
L 1825 531 
L 1825 4091 
L 703 3866 
L 703 4441 
L 1819 4666 
L 2450 4666 
L 2450 531 
L 3481 531 
L 3481 0 
L 794 0 
L 794 531 
z
" transform="scale(0.015625)"/>
        <path id="DejaVuSans-30" d="M 2034 4250 
Q 1547 4250 1301 3770 
Q 1056 3291 1056 2328 
Q 1056 1369 1301 889 
Q 1547 409 2034 409 
Q 2525 409 2770 889 
Q 3016 1369 3016 2328 
Q 3016 3291 2770 3770 
Q 2525 4250 2034 4250 
z
M 2034 4750 
Q 2819 4750 3233 4129 
Q 3647 3509 3647 2328 
Q 3647 1150 3233 529 
Q 2819 -91 2034 -91 
Q 1250 -91 836 529 
Q 422 1150 422 2328 
Q 422 3509 836 4129 
Q 1250 4750 2034 4750 
z
" transform="scale(0.015625)"/>
       </defs>
       <use xlink:href="#DejaVuSans-31" transform="translate(0 0.765625)"/>
       <use xlink:href="#DejaVuSans-30" transform="translate(63.623047 0.765625)"/>
       <use xlink:href="#DejaVuSans-30" transform="translate(128.203125 39.046875) scale(0.7)"/>
      </g>
     </g>
    </g>
    <g id="xtick_2">
     <g id="line2d_3">
      <path d="M 221.626826 307.584 
L 221.626826 41.472 
" clip-path="url(#p734ce594d9)" style="fill: none; stroke: #b0b0b0; stroke-width: 0.8; stroke-linecap: square"/>
     </g>
     <g id="line2d_4">
      <g>
       <use xlink:href="#mc074bca091" x="221.626826" y="307.584" style="stroke: #000000; stroke-width: 0.8"/>
      </g>
     </g>
     <g id="text_2">
      <!-- $\mathdefault{10^{1}}$ -->
      <g transform="translate(212.826826 322.182437) scale(0.1 -0.1)">
       <use xlink:href="#DejaVuSans-31" transform="translate(0 0.684375)"/>
       <use xlink:href="#DejaVuSans-30" transform="translate(63.623047 0.684375)"/>
       <use xlink:href="#DejaVuSans-31" transform="translate(128.203125 38.965625) scale(0.7)"/>
      </g>
     </g>
    </g>
    <g id="xtick_3">
     <g id="line2d_5">
      <path d="M 344.602152 307.584 
L 344.602152 41.472 
" clip-path="url(#p734ce594d9)" style="fill: none; stroke: #b0b0b0; stroke-width: 0.8; stroke-linecap: square"/>
     </g>
     <g id="line2d_6">
      <g>
       <use xlink:href="#mc074bca091" x="344.602152" y="307.584" style="stroke: #000000; stroke-width: 0.8"/>
      </g>
     </g>
     <g id="text_3">
      <!-- $\mathdefault{10^{2}}$ -->
      <g transform="translate(335.802152 322.182437) scale(0.1 -0.1)">
       <defs>
        <path id="DejaVuSans-32" d="M 1228 531 
L 3431 531 
L 3431 0 
L 469 0 
L 469 531 
Q 828 903 1448 1529 
Q 2069 2156 2228 2338 
Q 2531 2678 2651 2914 
Q 2772 3150 2772 3378 
Q 2772 3750 2511 3984 
Q 2250 4219 1831 4219 
Q 1534 4219 1204 4116 
Q 875 4013 500 3803 
L 500 4441 
Q 881 4594 1212 4672 
Q 1544 4750 1819 4750 
Q 2544 4750 2975 4387 
Q 3406 4025 3406 3419 
Q 3406 3131 3298 2873 
Q 3191 2616 2906 2266 
Q 2828 2175 2409 1742 
Q 1991 1309 1228 531 
z
" transform="scale(0.015625)"/>
       </defs>
       <use xlink:href="#DejaVuSans-31" transform="translate(0 0.765625)"/>
       <use xlink:href="#DejaVuSans-30" transform="translate(63.623047 0.765625)"/>
       <use xlink:href="#DejaVuSans-32" transform="translate(128.203125 39.046875) scale(0.7)"/>
      </g>
     </g>
    </g>
    <g id="xtick_4">
     <g id="line2d_7">
      <defs>
       <path id="mc1af3721e7" d="M 0 0 
L 0 2 
" style="stroke: #000000; stroke-width: 0.6"/>
      </defs>
      <g>
       <use xlink:href="#mc1af3721e7" x="61.632237" y="307.584" style="stroke: #000000; stroke-width: 0.6"/>
      </g>
     </g>
    </g>
    <g id="xtick_5">
     <g id="line2d_8">
      <g>
       <use xlink:href="#mc1af3721e7" x="71.369577" y="307.584" style="stroke: #000000; stroke-width: 0.6"/>
      </g>
     </g>
    </g>
    <g id="xtick_6">
     <g id="line2d_9">
      <g>
       <use xlink:href="#mc1af3721e7" x="79.60238" y="307.584" style="stroke: #000000; stroke-width: 0.6"/>
      </g>
     </g>
    </g>
    <g id="xtick_7">
     <g id="line2d_10">
      <g>
       <use xlink:href="#mc1af3721e7" x="86.733958" y="307.584" style="stroke: #000000; stroke-width: 0.6"/>
      </g>
     </g>
    </g>
    <g id="xtick_8">
     <g id="line2d_11">
      <g>
       <use xlink:href="#mc1af3721e7" x="93.024457" y="307.584" style="stroke: #000000; stroke-width: 0.6"/>
      </g>
     </g>
    </g>
    <g id="xtick_9">
     <g id="line2d_12">
      <g>
       <use xlink:href="#mc1af3721e7" x="135.670761" y="307.584" style="stroke: #000000; stroke-width: 0.6"/>
      </g>
     </g>
    </g>
    <g id="xtick_10">
     <g id="line2d_13">
      <g>
       <use xlink:href="#mc1af3721e7" x="157.325641" y="307.584" style="stroke: #000000; stroke-width: 0.6"/>
      </g>
     </g>
    </g>
    <g id="xtick_11">
     <g id="line2d_14">
      <g>
       <use xlink:href="#mc1af3721e7" x="172.690023" y="307.584" style="stroke: #000000; stroke-width: 0.6"/>
      </g>
     </g>
    </g>
    <g id="xtick_12">
     <g id="line2d_15">
      <g>
       <use xlink:href="#mc1af3721e7" x="184.607564" y="307.584" style="stroke: #000000; stroke-width: 0.6"/>
      </g>
     </g>
    </g>
    <g id="xtick_13">
     <g id="line2d_16">
      <g>
       <use xlink:href="#mc1af3721e7" x="194.344903" y="307.584" style="stroke: #000000; stroke-width: 0.6"/>
      </g>
     </g>
    </g>
    <g id="xtick_14">
     <g id="line2d_17">
      <g>
       <use xlink:href="#mc1af3721e7" x="202.577707" y="307.584" style="stroke: #000000; stroke-width: 0.6"/>
      </g>
     </g>
    </g>
    <g id="xtick_15">
     <g id="line2d_18">
      <g>
       <use xlink:href="#mc1af3721e7" x="209.709285" y="307.584" style="stroke: #000000; stroke-width: 0.6"/>
      </g>
     </g>
    </g>
    <g id="xtick_16">
     <g id="line2d_19">
      <g>
       <use xlink:href="#mc1af3721e7" x="215.999783" y="307.584" style="stroke: #000000; stroke-width: 0.6"/>
      </g>
     </g>
    </g>
    <g id="xtick_17">
     <g id="line2d_20">
      <g>
       <use xlink:href="#mc1af3721e7" x="258.646088" y="307.584" style="stroke: #000000; stroke-width: 0.6"/>
      </g>
     </g>
    </g>
    <g id="xtick_18">
     <g id="line2d_21">
      <g>
       <use xlink:href="#mc1af3721e7" x="280.300968" y="307.584" style="stroke: #000000; stroke-width: 0.6"/>
      </g>
     </g>
    </g>
    <g id="xtick_19">
     <g id="line2d_22">
      <g>
       <use xlink:href="#mc1af3721e7" x="295.66535" y="307.584" style="stroke: #000000; stroke-width: 0.6"/>
      </g>
     </g>
    </g>
    <g id="xtick_20">
     <g id="line2d_23">
      <g>
       <use xlink:href="#mc1af3721e7" x="307.58289" y="307.584" style="stroke: #000000; stroke-width: 0.6"/>
      </g>
     </g>
    </g>
    <g id="xtick_21">
     <g id="line2d_24">
      <g>
       <use xlink:href="#mc1af3721e7" x="317.32023" y="307.584" style="stroke: #000000; stroke-width: 0.6"/>
      </g>
     </g>
    </g>
    <g id="xtick_22">
     <g id="line2d_25">
      <g>
       <use xlink:href="#mc1af3721e7" x="325.553033" y="307.584" style="stroke: #000000; stroke-width: 0.6"/>
      </g>
     </g>
    </g>
    <g id="xtick_23">
     <g id="line2d_26">
      <g>
       <use xlink:href="#mc1af3721e7" x="332.684612" y="307.584" style="stroke: #000000; stroke-width: 0.6"/>
      </g>
     </g>
    </g>
    <g id="xtick_24">
     <g id="line2d_27">
      <g>
       <use xlink:href="#mc1af3721e7" x="338.97511" y="307.584" style="stroke: #000000; stroke-width: 0.6"/>
      </g>
     </g>
    </g>
    <g id="xtick_25">
     <g id="line2d_28">
      <g>
       <use xlink:href="#mc1af3721e7" x="381.621414" y="307.584" style="stroke: #000000; stroke-width: 0.6"/>
      </g>
     </g>
    </g>
    <g id="xtick_26">
     <g id="line2d_29">
      <g>
       <use xlink:href="#mc1af3721e7" x="403.276295" y="307.584" style="stroke: #000000; stroke-width: 0.6"/>
      </g>
     </g>
    </g>
    <g id="text_4">
     <!-- ω [rad/sec] -->
     <g transform="translate(208.074062 335.860562) scale(0.1 -0.1)">
      <defs>
       <path id="DejaVuSans-3c9" d="M 1719 -91 
Q 422 -91 422 1766 
Q 422 2500 906 3500 
L 1525 3500 
Q 1078 2500 1078 1750 
Q 1078 397 1772 397 
Q 2406 397 2406 2078 
L 2938 2078 
Q 2938 397 3572 397 
Q 4266 397 4266 1750 
Q 4266 2500 3819 3500 
L 4438 3500 
Q 4922 2500 4922 1766 
Q 4922 -91 3625 -91 
Q 2775 -91 2672 844 
Q 2544 -91 1719 -91 
z
" transform="scale(0.015625)"/>
       <path id="DejaVuSans-20" transform="scale(0.015625)"/>
       <path id="DejaVuSans-5b" d="M 550 4863 
L 1875 4863 
L 1875 4416 
L 1125 4416 
L 1125 -397 
L 1875 -397 
L 1875 -844 
L 550 -844 
L 550 4863 
z
" transform="scale(0.015625)"/>
       <path id="DejaVuSans-72" d="M 2631 2963 
Q 2534 3019 2420 3045 
Q 2306 3072 2169 3072 
Q 1681 3072 1420 2755 
Q 1159 2438 1159 1844 
L 1159 0 
L 581 0 
L 581 3500 
L 1159 3500 
L 1159 2956 
Q 1341 3275 1631 3429 
Q 1922 3584 2338 3584 
Q 2397 3584 2469 3576 
Q 2541 3569 2628 3553 
L 2631 2963 
z
" transform="scale(0.015625)"/>
       <path id="DejaVuSans-61" d="M 2194 1759 
Q 1497 1759 1228 1600 
Q 959 1441 959 1056 
Q 959 750 1161 570 
Q 1363 391 1709 391 
Q 2188 391 2477 730 
Q 2766 1069 2766 1631 
L 2766 1759 
L 2194 1759 
z
M 3341 1997 
L 3341 0 
L 2766 0 
L 2766 531 
Q 2569 213 2275 61 
Q 1981 -91 1556 -91 
Q 1019 -91 701 211 
Q 384 513 384 1019 
Q 384 1609 779 1909 
Q 1175 2209 1959 2209 
L 2766 2209 
L 2766 2266 
Q 2766 2663 2505 2880 
Q 2244 3097 1772 3097 
Q 1472 3097 1187 3025 
Q 903 2953 641 2809 
L 641 3341 
Q 956 3463 1253 3523 
Q 1550 3584 1831 3584 
Q 2591 3584 2966 3190 
Q 3341 2797 3341 1997 
z
" transform="scale(0.015625)"/>
       <path id="DejaVuSans-64" d="M 2906 2969 
L 2906 4863 
L 3481 4863 
L 3481 0 
L 2906 0 
L 2906 525 
Q 2725 213 2448 61 
Q 2172 -91 1784 -91 
Q 1150 -91 751 415 
Q 353 922 353 1747 
Q 353 2572 751 3078 
Q 1150 3584 1784 3584 
Q 2172 3584 2448 3432 
Q 2725 3281 2906 2969 
z
M 947 1747 
Q 947 1113 1208 752 
Q 1469 391 1925 391 
Q 2381 391 2643 752 
Q 2906 1113 2906 1747 
Q 2906 2381 2643 2742 
Q 2381 3103 1925 3103 
Q 1469 3103 1208 2742 
Q 947 2381 947 1747 
z
" transform="scale(0.015625)"/>
       <path id="DejaVuSans-2f" d="M 1625 4666 
L 2156 4666 
L 531 -594 
L 0 -594 
L 1625 4666 
z
" transform="scale(0.015625)"/>
       <path id="DejaVuSans-73" d="M 2834 3397 
L 2834 2853 
Q 2591 2978 2328 3040 
Q 2066 3103 1784 3103 
Q 1356 3103 1142 2972 
Q 928 2841 928 2578 
Q 928 2378 1081 2264 
Q 1234 2150 1697 2047 
L 1894 2003 
Q 2506 1872 2764 1633 
Q 3022 1394 3022 966 
Q 3022 478 2636 193 
Q 2250 -91 1575 -91 
Q 1294 -91 989 -36 
Q 684 19 347 128 
L 347 722 
Q 666 556 975 473 
Q 1284 391 1588 391 
Q 1994 391 2212 530 
Q 2431 669 2431 922 
Q 2431 1156 2273 1281 
Q 2116 1406 1581 1522 
L 1381 1569 
Q 847 1681 609 1914 
Q 372 2147 372 2553 
Q 372 3047 722 3315 
Q 1072 3584 1716 3584 
Q 2034 3584 2315 3537 
Q 2597 3491 2834 3397 
z
" transform="scale(0.015625)"/>
       <path id="DejaVuSans-65" d="M 3597 1894 
L 3597 1613 
L 953 1613 
Q 991 1019 1311 708 
Q 1631 397 2203 397 
Q 2534 397 2845 478 
Q 3156 559 3463 722 
L 3463 178 
Q 3153 47 2828 -22 
Q 2503 -91 2169 -91 
Q 1331 -91 842 396 
Q 353 884 353 1716 
Q 353 2575 817 3079 
Q 1281 3584 2069 3584 
Q 2775 3584 3186 3129 
Q 3597 2675 3597 1894 
z
M 3022 2063 
Q 3016 2534 2758 2815 
Q 2500 3097 2075 3097 
Q 1594 3097 1305 2825 
Q 1016 2553 972 2059 
L 3022 2063 
z
" transform="scale(0.015625)"/>
       <path id="DejaVuSans-63" d="M 3122 3366 
L 3122 2828 
Q 2878 2963 2633 3030 
Q 2388 3097 2138 3097 
Q 1578 3097 1268 2742 
Q 959 2388 959 1747 
Q 959 1106 1268 751 
Q 1578 397 2138 397 
Q 2388 397 2633 464 
Q 2878 531 3122 666 
L 3122 134 
Q 2881 22 2623 -34 
Q 2366 -91 2075 -91 
Q 1284 -91 818 406 
Q 353 903 353 1747 
Q 353 2603 823 3093 
Q 1294 3584 2113 3584 
Q 2378 3584 2631 3529 
Q 2884 3475 3122 3366 
z
" transform="scale(0.015625)"/>
       <path id="DejaVuSans-5d" d="M 1947 4863 
L 1947 -844 
L 622 -844 
L 622 -397 
L 1369 -397 
L 1369 4416 
L 622 4416 
L 622 4863 
L 1947 4863 
z
" transform="scale(0.015625)"/>
      </defs>
      <use xlink:href="#DejaVuSans-3c9"/>
      <use xlink:href="#DejaVuSans-20" transform="translate(83.740234 0)"/>
      <use xlink:href="#DejaVuSans-5b" transform="translate(115.527344 0)"/>
      <use xlink:href="#DejaVuSans-72" transform="translate(154.541016 0)"/>
      <use xlink:href="#DejaVuSans-61" transform="translate(195.654297 0)"/>
      <use xlink:href="#DejaVuSans-64" transform="translate(256.933594 0)"/>
      <use xlink:href="#DejaVuSans-2f" transform="translate(320.410156 0)"/>
      <use xlink:href="#DejaVuSans-73" transform="translate(354.101562 0)"/>
      <use xlink:href="#DejaVuSans-65" transform="translate(406.201172 0)"/>
      <use xlink:href="#DejaVuSans-63" transform="translate(467.724609 0)"/>
      <use xlink:href="#DejaVuSans-5d" transform="translate(522.705078 0)"/>
     </g>
    </g>
   </g>
   <g id="matplotlib.axis_2">
    <g id="ytick_1">
     <g id="line2d_30">
      <path d="M 57.6 265.668008 
L 414.72 265.668008 
" clip-path="url(#p734ce594d9)" style="fill: none; stroke: #b0b0b0; stroke-width: 0.8; stroke-linecap: square"/>
     </g>
     <g id="line2d_31">
      <defs>
       <path id="mdae6a4ff83" d="M 0 0 
L -3.5 0 
" style="stroke: #000000; stroke-width: 0.8"/>
      </defs>
      <g>
       <use xlink:href="#mdae6a4ff83" x="57.6" y="265.668008" style="stroke: #000000; stroke-width: 0.8"/>
      </g>
     </g>
     <g id="text_5">
      <!-- −50 -->
      <g transform="translate(29.495313 269.467226) scale(0.1 -0.1)">
       <defs>
        <path id="DejaVuSans-2212" d="M 678 2272 
L 4684 2272 
L 4684 1741 
L 678 1741 
L 678 2272 
z
" transform="scale(0.015625)"/>
        <path id="DejaVuSans-35" d="M 691 4666 
L 3169 4666 
L 3169 4134 
L 1269 4134 
L 1269 2991 
Q 1406 3038 1543 3061 
Q 1681 3084 1819 3084 
Q 2600 3084 3056 2656 
Q 3513 2228 3513 1497 
Q 3513 744 3044 326 
Q 2575 -91 1722 -91 
Q 1428 -91 1123 -41 
Q 819 9 494 109 
L 494 744 
Q 775 591 1075 516 
Q 1375 441 1709 441 
Q 2250 441 2565 725 
Q 2881 1009 2881 1497 
Q 2881 1984 2565 2268 
Q 2250 2553 1709 2553 
Q 1456 2553 1204 2497 
Q 953 2441 691 2322 
L 691 4666 
z
" transform="scale(0.015625)"/>
       </defs>
       <use xlink:href="#DejaVuSans-2212"/>
       <use xlink:href="#DejaVuSans-35" transform="translate(83.789062 0)"/>
       <use xlink:href="#DejaVuSans-30" transform="translate(147.412109 0)"/>
      </g>
     </g>
    </g>
    <g id="ytick_2">
     <g id="line2d_32">
      <path d="M 57.6 218.842136 
L 414.72 218.842136 
" clip-path="url(#p734ce594d9)" style="fill: none; stroke: #b0b0b0; stroke-width: 0.8; stroke-linecap: square"/>
     </g>
     <g id="line2d_33">
      <g>
       <use xlink:href="#mdae6a4ff83" x="57.6" y="218.842136" style="stroke: #000000; stroke-width: 0.8"/>
      </g>
     </g>
     <g id="text_6">
      <!-- −40 -->
      <g transform="translate(29.495313 222.641355) scale(0.1 -0.1)">
       <defs>
        <path id="DejaVuSans-34" d="M 2419 4116 
L 825 1625 
L 2419 1625 
L 2419 4116 
z
M 2253 4666 
L 3047 4666 
L 3047 1625 
L 3713 1625 
L 3713 1100 
L 3047 1100 
L 3047 0 
L 2419 0 
L 2419 1100 
L 313 1100 
L 313 1709 
L 2253 4666 
z
" transform="scale(0.015625)"/>
       </defs>
       <use xlink:href="#DejaVuSans-2212"/>
       <use xlink:href="#DejaVuSans-34" transform="translate(83.789062 0)"/>
       <use xlink:href="#DejaVuSans-30" transform="translate(147.412109 0)"/>
      </g>
     </g>
    </g>
    <g id="ytick_3">
     <g id="line2d_34">
      <path d="M 57.6 172.016264 
L 414.72 172.016264 
" clip-path="url(#p734ce594d9)" style="fill: none; stroke: #b0b0b0; stroke-width: 0.8; stroke-linecap: square"/>
     </g>
     <g id="line2d_35">
      <g>
       <use xlink:href="#mdae6a4ff83" x="57.6" y="172.016264" style="stroke: #000000; stroke-width: 0.8"/>
      </g>
     </g>
     <g id="text_7">
      <!-- −30 -->
      <g transform="translate(29.495313 175.815483) scale(0.1 -0.1)">
       <defs>
        <path id="DejaVuSans-33" d="M 2597 2516 
Q 3050 2419 3304 2112 
Q 3559 1806 3559 1356 
Q 3559 666 3084 287 
Q 2609 -91 1734 -91 
Q 1441 -91 1130 -33 
Q 819 25 488 141 
L 488 750 
Q 750 597 1062 519 
Q 1375 441 1716 441 
Q 2309 441 2620 675 
Q 2931 909 2931 1356 
Q 2931 1769 2642 2001 
Q 2353 2234 1838 2234 
L 1294 2234 
L 1294 2753 
L 1863 2753 
Q 2328 2753 2575 2939 
Q 2822 3125 2822 3475 
Q 2822 3834 2567 4026 
Q 2313 4219 1838 4219 
Q 1578 4219 1281 4162 
Q 984 4106 628 3988 
L 628 4550 
Q 988 4650 1302 4700 
Q 1616 4750 1894 4750 
Q 2613 4750 3031 4423 
Q 3450 4097 3450 3541 
Q 3450 3153 3228 2886 
Q 3006 2619 2597 2516 
z
" transform="scale(0.015625)"/>
       </defs>
       <use xlink:href="#DejaVuSans-2212"/>
       <use xlink:href="#DejaVuSans-33" transform="translate(83.789062 0)"/>
       <use xlink:href="#DejaVuSans-30" transform="translate(147.412109 0)"/>
      </g>
     </g>
    </g>
    <g id="ytick_4">
     <g id="line2d_36">
      <path d="M 57.6 125.190392 
L 414.72 125.190392 
" clip-path="url(#p734ce594d9)" style="fill: none; stroke: #b0b0b0; stroke-width: 0.8; stroke-linecap: square"/>
     </g>
     <g id="line2d_37">
      <g>
       <use xlink:href="#mdae6a4ff83" x="57.6" y="125.190392" style="stroke: #000000; stroke-width: 0.8"/>
      </g>
     </g>
     <g id="text_8">
      <!-- −20 -->
      <g transform="translate(29.495313 128.989611) scale(0.1 -0.1)">
       <use xlink:href="#DejaVuSans-2212"/>
       <use xlink:href="#DejaVuSans-32" transform="translate(83.789062 0)"/>
       <use xlink:href="#DejaVuSans-30" transform="translate(147.412109 0)"/>
      </g>
     </g>
    </g>
    <g id="ytick_5">
     <g id="line2d_38">
      <path d="M 57.6 78.36452 
L 414.72 78.36452 
" clip-path="url(#p734ce594d9)" style="fill: none; stroke: #b0b0b0; stroke-width: 0.8; stroke-linecap: square"/>
     </g>
     <g id="line2d_39">
      <g>
       <use xlink:href="#mdae6a4ff83" x="57.6" y="78.36452" style="stroke: #000000; stroke-width: 0.8"/>
      </g>
     </g>
     <g id="text_9">
      <!-- −10 -->
      <g transform="translate(29.495313 82.163739) scale(0.1 -0.1)">
       <use xlink:href="#DejaVuSans-2212"/>
       <use xlink:href="#DejaVuSans-31" transform="translate(83.789062 0)"/>
       <use xlink:href="#DejaVuSans-30" transform="translate(147.412109 0)"/>
      </g>
     </g>
    </g>
    <g id="text_10">
     <!-- 20log|G(jω)| -->
     <g transform="translate(23.1375 205.233469) rotate(-90) scale(0.1 -0.1)">
      <defs>
       <path id="DejaVuSans-6c" d="M 603 4863 
L 1178 4863 
L 1178 0 
L 603 0 
L 603 4863 
z
" transform="scale(0.015625)"/>
       <path id="DejaVuSans-6f" d="M 1959 3097 
Q 1497 3097 1228 2736 
Q 959 2375 959 1747 
Q 959 1119 1226 758 
Q 1494 397 1959 397 
Q 2419 397 2687 759 
Q 2956 1122 2956 1747 
Q 2956 2369 2687 2733 
Q 2419 3097 1959 3097 
z
M 1959 3584 
Q 2709 3584 3137 3096 
Q 3566 2609 3566 1747 
Q 3566 888 3137 398 
Q 2709 -91 1959 -91 
Q 1206 -91 779 398 
Q 353 888 353 1747 
Q 353 2609 779 3096 
Q 1206 3584 1959 3584 
z
" transform="scale(0.015625)"/>
       <path id="DejaVuSans-67" d="M 2906 1791 
Q 2906 2416 2648 2759 
Q 2391 3103 1925 3103 
Q 1463 3103 1205 2759 
Q 947 2416 947 1791 
Q 947 1169 1205 825 
Q 1463 481 1925 481 
Q 2391 481 2648 825 
Q 2906 1169 2906 1791 
z
M 3481 434 
Q 3481 -459 3084 -895 
Q 2688 -1331 1869 -1331 
Q 1566 -1331 1297 -1286 
Q 1028 -1241 775 -1147 
L 775 -588 
Q 1028 -725 1275 -790 
Q 1522 -856 1778 -856 
Q 2344 -856 2625 -561 
Q 2906 -266 2906 331 
L 2906 616 
Q 2728 306 2450 153 
Q 2172 0 1784 0 
Q 1141 0 747 490 
Q 353 981 353 1791 
Q 353 2603 747 3093 
Q 1141 3584 1784 3584 
Q 2172 3584 2450 3431 
Q 2728 3278 2906 2969 
L 2906 3500 
L 3481 3500 
L 3481 434 
z
" transform="scale(0.015625)"/>
       <path id="DejaVuSans-7c" d="M 1344 4891 
L 1344 -1509 
L 813 -1509 
L 813 4891 
L 1344 4891 
z
" transform="scale(0.015625)"/>
       <path id="DejaVuSans-47" d="M 3809 666 
L 3809 1919 
L 2778 1919 
L 2778 2438 
L 4434 2438 
L 4434 434 
Q 4069 175 3628 42 
Q 3188 -91 2688 -91 
Q 1594 -91 976 548 
Q 359 1188 359 2328 
Q 359 3472 976 4111 
Q 1594 4750 2688 4750 
Q 3144 4750 3555 4637 
Q 3966 4525 4313 4306 
L 4313 3634 
Q 3963 3931 3569 4081 
Q 3175 4231 2741 4231 
Q 1884 4231 1454 3753 
Q 1025 3275 1025 2328 
Q 1025 1384 1454 906 
Q 1884 428 2741 428 
Q 3075 428 3337 486 
Q 3600 544 3809 666 
z
" transform="scale(0.015625)"/>
       <path id="DejaVuSans-28" d="M 1984 4856 
Q 1566 4138 1362 3434 
Q 1159 2731 1159 2009 
Q 1159 1288 1364 580 
Q 1569 -128 1984 -844 
L 1484 -844 
Q 1016 -109 783 600 
Q 550 1309 550 2009 
Q 550 2706 781 3412 
Q 1013 4119 1484 4856 
L 1984 4856 
z
" transform="scale(0.015625)"/>
       <path id="DejaVuSans-6a" d="M 603 3500 
L 1178 3500 
L 1178 -63 
Q 1178 -731 923 -1031 
Q 669 -1331 103 -1331 
L -116 -1331 
L -116 -844 
L 38 -844 
Q 366 -844 484 -692 
Q 603 -541 603 -63 
L 603 3500 
z
M 603 4863 
L 1178 4863 
L 1178 4134 
L 603 4134 
L 603 4863 
z
" transform="scale(0.015625)"/>
       <path id="DejaVuSans-29" d="M 513 4856 
L 1013 4856 
Q 1481 4119 1714 3412 
Q 1947 2706 1947 2009 
Q 1947 1309 1714 600 
Q 1481 -109 1013 -844 
L 513 -844 
Q 928 -128 1133 580 
Q 1338 1288 1338 2009 
Q 1338 2731 1133 3434 
Q 928 4138 513 4856 
z
" transform="scale(0.015625)"/>
      </defs>
      <use xlink:href="#DejaVuSans-32"/>
      <use xlink:href="#DejaVuSans-30" transform="translate(63.623047 0)"/>
      <use xlink:href="#DejaVuSans-6c" transform="translate(127.246094 0)"/>
      <use xlink:href="#DejaVuSans-6f" transform="translate(155.029297 0)"/>
      <use xlink:href="#DejaVuSans-67" transform="translate(216.210938 0)"/>
      <use xlink:href="#DejaVuSans-7c" transform="translate(279.6875 0)"/>
      <use xlink:href="#DejaVuSans-47" transform="translate(313.378906 0)"/>
      <use xlink:href="#DejaVuSans-28" transform="translate(390.869141 0)"/>
      <use xlink:href="#DejaVuSans-6a" transform="translate(429.882812 0)"/>
      <use xlink:href="#DejaVuSans-3c9" transform="translate(457.666016 0)"/>
      <use xlink:href="#DejaVuSans-29" transform="translate(541.40625 0)"/>
      <use xlink:href="#DejaVuSans-7c" transform="translate(580.419922 0)"/>
     </g>
    </g>
   </g>
   <g id="patch_3">
    <path d="M 57.6 307.584 
L 57.6 41.472 
" style="fill: none; stroke: #000000; stroke-width: 0.8; stroke-linejoin: miter; stroke-linecap: square"/>
   </g>
   <g id="patch_4">
    <path d="M 414.72 307.584 
L 414.72 41.472 
" style="fill: none; stroke: #000000; stroke-width: 0.8; stroke-linejoin: miter; stroke-linecap: square"/>
   </g>
   <g id="patch_5">
    <path d="M 57.6 307.584 
L 414.72 307.584 
" style="fill: none; stroke: #000000; stroke-width: 0.8; stroke-linejoin: miter; stroke-linecap: square"/>
   </g>
   <g id="patch_6">
    <path d="M 57.6 41.472 
L 414.72 41.472 
" style="fill: none; stroke: #000000; stroke-width: 0.8; stroke-linejoin: miter; stroke-linecap: square"/>
   </g>
   <g id="text_11">
    <!-- Bode Gain Plot (processed by vec continuous connectivity score) -->
    <g transform="translate(41.550938 35.472) scale(0.12 -0.12)">
     <defs>
      <path id="DejaVuSans-42" d="M 1259 2228 
L 1259 519 
L 2272 519 
Q 2781 519 3026 730 
Q 3272 941 3272 1375 
Q 3272 1813 3026 2020 
Q 2781 2228 2272 2228 
L 1259 2228 
z
M 1259 4147 
L 1259 2741 
L 2194 2741 
Q 2656 2741 2882 2914 
Q 3109 3088 3109 3444 
Q 3109 3797 2882 3972 
Q 2656 4147 2194 4147 
L 1259 4147 
z
M 628 4666 
L 2241 4666 
Q 2963 4666 3353 4366 
Q 3744 4066 3744 3513 
Q 3744 3084 3544 2831 
Q 3344 2578 2956 2516 
Q 3422 2416 3680 2098 
Q 3938 1781 3938 1306 
Q 3938 681 3513 340 
Q 3088 0 2303 0 
L 628 0 
L 628 4666 
z
" transform="scale(0.015625)"/>
      <path id="DejaVuSans-69" d="M 603 3500 
L 1178 3500 
L 1178 0 
L 603 0 
L 603 3500 
z
M 603 4863 
L 1178 4863 
L 1178 4134 
L 603 4134 
L 603 4863 
z
" transform="scale(0.015625)"/>
      <path id="DejaVuSans-6e" d="M 3513 2113 
L 3513 0 
L 2938 0 
L 2938 2094 
Q 2938 2591 2744 2837 
Q 2550 3084 2163 3084 
Q 1697 3084 1428 2787 
Q 1159 2491 1159 1978 
L 1159 0 
L 581 0 
L 581 3500 
L 1159 3500 
L 1159 2956 
Q 1366 3272 1645 3428 
Q 1925 3584 2291 3584 
Q 2894 3584 3203 3211 
Q 3513 2838 3513 2113 
z
" transform="scale(0.015625)"/>
      <path id="DejaVuSans-50" d="M 1259 4147 
L 1259 2394 
L 2053 2394 
Q 2494 2394 2734 2622 
Q 2975 2850 2975 3272 
Q 2975 3691 2734 3919 
Q 2494 4147 2053 4147 
L 1259 4147 
z
M 628 4666 
L 2053 4666 
Q 2838 4666 3239 4311 
Q 3641 3956 3641 3272 
Q 3641 2581 3239 2228 
Q 2838 1875 2053 1875 
L 1259 1875 
L 1259 0 
L 628 0 
L 628 4666 
z
" transform="scale(0.015625)"/>
      <path id="DejaVuSans-74" d="M 1172 4494 
L 1172 3500 
L 2356 3500 
L 2356 3053 
L 1172 3053 
L 1172 1153 
Q 1172 725 1289 603 
Q 1406 481 1766 481 
L 2356 481 
L 2356 0 
L 1766 0 
Q 1100 0 847 248 
Q 594 497 594 1153 
L 594 3053 
L 172 3053 
L 172 3500 
L 594 3500 
L 594 4494 
L 1172 4494 
z
" transform="scale(0.015625)"/>
      <path id="DejaVuSans-70" d="M 1159 525 
L 1159 -1331 
L 581 -1331 
L 581 3500 
L 1159 3500 
L 1159 2969 
Q 1341 3281 1617 3432 
Q 1894 3584 2278 3584 
Q 2916 3584 3314 3078 
Q 3713 2572 3713 1747 
Q 3713 922 3314 415 
Q 2916 -91 2278 -91 
Q 1894 -91 1617 61 
Q 1341 213 1159 525 
z
M 3116 1747 
Q 3116 2381 2855 2742 
Q 2594 3103 2138 3103 
Q 1681 3103 1420 2742 
Q 1159 2381 1159 1747 
Q 1159 1113 1420 752 
Q 1681 391 2138 391 
Q 2594 391 2855 752 
Q 3116 1113 3116 1747 
z
" transform="scale(0.015625)"/>
      <path id="DejaVuSans-62" d="M 3116 1747 
Q 3116 2381 2855 2742 
Q 2594 3103 2138 3103 
Q 1681 3103 1420 2742 
Q 1159 2381 1159 1747 
Q 1159 1113 1420 752 
Q 1681 391 2138 391 
Q 2594 391 2855 752 
Q 3116 1113 3116 1747 
z
M 1159 2969 
Q 1341 3281 1617 3432 
Q 1894 3584 2278 3584 
Q 2916 3584 3314 3078 
Q 3713 2572 3713 1747 
Q 3713 922 3314 415 
Q 2916 -91 2278 -91 
Q 1894 -91 1617 61 
Q 1341 213 1159 525 
L 1159 0 
L 581 0 
L 581 4863 
L 1159 4863 
L 1159 2969 
z
" transform="scale(0.015625)"/>
      <path id="DejaVuSans-79" d="M 2059 -325 
Q 1816 -950 1584 -1140 
Q 1353 -1331 966 -1331 
L 506 -1331 
L 506 -850 
L 844 -850 
Q 1081 -850 1212 -737 
Q 1344 -625 1503 -206 
L 1606 56 
L 191 3500 
L 800 3500 
L 1894 763 
L 2988 3500 
L 3597 3500 
L 2059 -325 
z
" transform="scale(0.015625)"/>
      <path id="DejaVuSans-76" d="M 191 3500 
L 800 3500 
L 1894 563 
L 2988 3500 
L 3597 3500 
L 2284 0 
L 1503 0 
L 191 3500 
z
" transform="scale(0.015625)"/>
      <path id="DejaVuSans-75" d="M 544 1381 
L 544 3500 
L 1119 3500 
L 1119 1403 
Q 1119 906 1312 657 
Q 1506 409 1894 409 
Q 2359 409 2629 706 
Q 2900 1003 2900 1516 
L 2900 3500 
L 3475 3500 
L 3475 0 
L 2900 0 
L 2900 538 
Q 2691 219 2414 64 
Q 2138 -91 1772 -91 
Q 1169 -91 856 284 
Q 544 659 544 1381 
z
M 1991 3584 
L 1991 3584 
z
" transform="scale(0.015625)"/>
     </defs>
     <use xlink:href="#DejaVuSans-42"/>
     <use xlink:href="#DejaVuSans-6f" transform="translate(68.603516 0)"/>
     <use xlink:href="#DejaVuSans-64" transform="translate(129.785156 0)"/>
     <use xlink:href="#DejaVuSans-65" transform="translate(193.261719 0)"/>
     <use xlink:href="#DejaVuSans-20" transform="translate(254.785156 0)"/>
     <use xlink:href="#DejaVuSans-47" transform="translate(286.572266 0)"/>
     <use xlink:href="#DejaVuSans-61" transform="translate(364.0625 0)"/>
     <use xlink:href="#DejaVuSans-69" transform="translate(425.341797 0)"/>
     <use xlink:href="#DejaVuSans-6e" transform="translate(453.125 0)"/>
     <use xlink:href="#DejaVuSans-20" transform="translate(516.503906 0)"/>
     <use xlink:href="#DejaVuSans-50" transform="translate(548.291016 0)"/>
     <use xlink:href="#DejaVuSans-6c" transform="translate(608.59375 0)"/>
     <use xlink:href="#DejaVuSans-6f" transform="translate(636.376953 0)"/>
     <use xlink:href="#DejaVuSans-74" transform="translate(697.558594 0)"/>
     <use xlink:href="#DejaVuSans-20" transform="translate(736.767578 0)"/>
     <use xlink:href="#DejaVuSans-28" transform="translate(768.554688 0)"/>
     <use xlink:href="#DejaVuSans-70" transform="translate(807.568359 0)"/>
     <use xlink:href="#DejaVuSans-72" transform="translate(871.044922 0)"/>
     <use xlink:href="#DejaVuSans-6f" transform="translate(909.908203 0)"/>
     <use xlink:href="#DejaVuSans-63" transform="translate(971.089844 0)"/>
     <use xlink:href="#DejaVuSans-65" transform="translate(1026.070312 0)"/>
     <use xlink:href="#DejaVuSans-73" transform="translate(1087.59375 0)"/>
     <use xlink:href="#DejaVuSans-73" transform="translate(1139.693359 0)"/>
     <use xlink:href="#DejaVuSans-65" transform="translate(1191.792969 0)"/>
     <use xlink:href="#DejaVuSans-64" transform="translate(1253.316406 0)"/>
     <use xlink:href="#DejaVuSans-20" transform="translate(1316.792969 0)"/>
     <use xlink:href="#DejaVuSans-62" transform="translate(1348.580078 0)"/>
     <use xlink:href="#DejaVuSans-79" transform="translate(1412.056641 0)"/>
     <use xlink:href="#DejaVuSans-20" transform="translate(1471.236328 0)"/>
     <use xlink:href="#DejaVuSans-76" transform="translate(1503.023438 0)"/>
     <use xlink:href="#DejaVuSans-65" transform="translate(1562.203125 0)"/>
     <use xlink:href="#DejaVuSans-63" transform="translate(1623.726562 0)"/>
     <use xlink:href="#DejaVuSans-20" transform="translate(1678.707031 0)"/>
     <use xlink:href="#DejaVuSans-63" transform="translate(1710.494141 0)"/>
     <use xlink:href="#DejaVuSans-6f" transform="translate(1765.474609 0)"/>
     <use xlink:href="#DejaVuSans-6e" transform="translate(1826.65625 0)"/>
     <use xlink:href="#DejaVuSans-74" transform="translate(1890.035156 0)"/>
     <use xlink:href="#DejaVuSans-69" transform="translate(1929.244141 0)"/>
     <use xlink:href="#DejaVuSans-6e" transform="translate(1957.027344 0)"/>
     <use xlink:href="#DejaVuSans-75" transform="translate(2020.40625 0)"/>
     <use xlink:href="#DejaVuSans-6f" transform="translate(2083.785156 0)"/>
     <use xlink:href="#DejaVuSans-75" transform="translate(2144.966797 0)"/>
     <use xlink:href="#DejaVuSans-73" transform="translate(2208.345703 0)"/>
     <use xlink:href="#DejaVuSans-20" transform="translate(2260.445312 0)"/>
     <use xlink:href="#DejaVuSans-63" transform="translate(2292.232422 0)"/>
     <use xlink:href="#DejaVuSans-6f" transform="translate(2347.212891 0)"/>
     <use xlink:href="#DejaVuSans-6e" transform="translate(2408.394531 0)"/>
     <use xlink:href="#DejaVuSans-6e" transform="translate(2471.773438 0)"/>
     <use xlink:href="#DejaVuSans-65" transform="translate(2535.152344 0)"/>
     <use xlink:href="#DejaVuSans-63" transform="translate(2596.675781 0)"/>
     <use xlink:href="#DejaVuSans-74" transform="translate(2651.65625 0)"/>
     <use xlink:href="#DejaVuSans-69" transform="translate(2690.865234 0)"/>
     <use xlink:href="#DejaVuSans-76" transform="translate(2718.648438 0)"/>
     <use xlink:href="#DejaVuSans-69" transform="translate(2777.828125 0)"/>
     <use xlink:href="#DejaVuSans-74" transform="translate(2805.611328 0)"/>
     <use xlink:href="#DejaVuSans-79" transform="translate(2844.820312 0)"/>
     <use xlink:href="#DejaVuSans-20" transform="translate(2904 0)"/>
     <use xlink:href="#DejaVuSans-73" transform="translate(2935.787109 0)"/>
     <use xlink:href="#DejaVuSans-63" transform="translate(2987.886719 0)"/>
     <use xlink:href="#DejaVuSans-6f" transform="translate(3042.867188 0)"/>
     <use xlink:href="#DejaVuSans-72" transform="translate(3104.048828 0)"/>
     <use xlink:href="#DejaVuSans-65" transform="translate(3142.912109 0)"/>
     <use xlink:href="#DejaVuSans-29" transform="translate(3204.435547 0)"/>
    </g>
   </g>
  </g>
 </g>
 <defs>
  <clipPath id="p734ce594d9">
   <rect x="57.6" y="41.472" width="357.12" height="266.112"/>
  </clipPath>
 </defs>
</svg>
