<?xml version="1.0" encoding="utf-8" standalone="no"?>
<!DOCTYPE svg PUBLIC "-//W3C//DTD SVG 1.1//EN"
  "http://www.w3.org/Graphics/SVG/1.1/DTD/svg11.dtd">
<svg xmlns:xlink="http://www.w3.org/1999/xlink" width="460.8pt" height="345.6pt" viewBox="0 0 460.8 345.6" xmlns="http://www.w3.org/2000/svg" version="1.1">
 <metadata>
  <rdf:RDF xmlns:dc="http://purl.org/dc/elements/1.1/" xmlns:cc="http://creativecommons.org/ns#" xmlns:rdf="http://www.w3.org/1999/02/22-rdf-syntax-ns#">
   <cc:Work>
    <dc:type rdf:resource="http://purl.org/dc/dcmitype/StillImage"/>
    <dc:date>2025-04-14T23:38:53.065207</dc:date>
    <dc:format>image/svg+xml</dc:format>
    <dc:creator>
     <cc:Agent>
      <dc:title>Matplotlib v3.10.1, https://matplotlib.org/</dc:title>
     </cc:Agent>
    </dc:creator>
   </cc:Work>
  </rdf:RDF>
 </metadata>
 <defs>
  <style type="text/css">*{stroke-linejoin: round; stroke-linecap: butt}</style>
 </defs>
 <g id="figure_1">
  <g id="patch_1">
   <path d="M 0 345.6 
L 460.8 345.6 
L 460.8 0 
L 0 0 
z
" style="fill: #ffffff"/>
  </g>
  <g id="axes_1">
   <g id="patch_2">
    <path d="M 57.6 307.584 
L 414.72 307.584 
L 414.72 41.472 
L 57.6 41.472 
z
" style="fill: #ffffff"/>
   </g>
   <g id="PathCollection_1">
    <defs>
     <path id="m4fec8b6b6c" d="M 0 1.414214 
C 0.375054 1.414214 0.734797 1.265203 1 1 
C 1.265203 0.734797 1.414214 0.375054 1.414214 0 
C 1.414214 -0.375054 1.265203 -0.734797 1 -1 
C 0.734797 -1.265203 0.375054 -1.414214 0 -1.414214 
C -0.375054 -1.414214 -0.734797 -1.265203 -1 -1 
C -1.265203 -0.734797 -1.414214 -0.375054 -1.414214 0 
C -1.414214 0.375054 -1.265203 0.734797 -1 1 
C -0.734797 1.265203 -0.375054 1.414214 0 1.414214 
z
" style="stroke: #1f77b4"/>
    </defs>
    <g clip-path="url(#pdf669744f3)">
     <use xlink:href="#m4fec8b6b6c" x="73.832727" y="135.450767" style="fill: #1f77b4; stroke: #1f77b4"/>
     <use xlink:href="#m4fec8b6b6c" x="89.669749" y="102.291924" style="fill: #1f77b4; stroke: #1f77b4"/>
     <use xlink:href="#m4fec8b6b6c" x="94.82668" y="118.443336" style="fill: #1f77b4; stroke: #1f77b4"/>
     <use xlink:href="#m4fec8b6b6c" x="94.850843" y="107.549814" style="fill: #1f77b4; stroke: #1f77b4"/>
     <use xlink:href="#m4fec8b6b6c" x="94.96768" y="97.553708" style="fill: #1f77b4; stroke: #1f77b4"/>
     <use xlink:href="#m4fec8b6b6c" x="96.42077" y="126.492113" style="fill: #1f77b4; stroke: #1f77b4"/>
     <use xlink:href="#m4fec8b6b6c" x="97.832325" y="78.691191" style="fill: #1f77b4; stroke: #1f77b4"/>
     <use xlink:href="#m4fec8b6b6c" x="98.273073" y="136.632039" style="fill: #1f77b4; stroke: #1f77b4"/>
     <use xlink:href="#m4fec8b6b6c" x="100.568551" y="146.922161" style="fill: #1f77b4; stroke: #1f77b4"/>
     <use xlink:href="#m4fec8b6b6c" x="100.847431" y="70.295265" style="fill: #1f77b4; stroke: #1f77b4"/>
     <use xlink:href="#m4fec8b6b6c" x="103.543026" y="157.157351" style="fill: #1f77b4; stroke: #1f77b4"/>
     <use xlink:href="#m4fec8b6b6c" x="105.550239" y="62.501237" style="fill: #1f77b4; stroke: #1f77b4"/>
     <use xlink:href="#m4fec8b6b6c" x="106.759256" y="166.249151" style="fill: #1f77b4; stroke: #1f77b4"/>
     <use xlink:href="#m4fec8b6b6c" x="110.972744" y="178.285649" style="fill: #1f77b4; stroke: #1f77b4"/>
     <use xlink:href="#m4fec8b6b6c" x="111.839043" y="56.927443" style="fill: #1f77b4; stroke: #1f77b4"/>
     <use xlink:href="#m4fec8b6b6c" x="111.99176" y="69.3927" style="fill: #1f77b4; stroke: #1f77b4"/>
     <use xlink:href="#m4fec8b6b6c" x="112.310886" y="64.088061" style="fill: #1f77b4; stroke: #1f77b4"/>
     <use xlink:href="#m4fec8b6b6c" x="112.33158" y="66.042041" style="fill: #1f77b4; stroke: #1f77b4"/>
     <use xlink:href="#m4fec8b6b6c" x="112.49061" y="71.54247" style="fill: #1f77b4; stroke: #1f77b4"/>
     <use xlink:href="#m4fec8b6b6c" x="112.754977" y="62.01374" style="fill: #1f77b4; stroke: #1f77b4"/>
     <use xlink:href="#m4fec8b6b6c" x="113.011726" y="60.653204" style="fill: #1f77b4; stroke: #1f77b4"/>
     <use xlink:href="#m4fec8b6b6c" x="113.051481" y="62.180031" style="fill: #1f77b4; stroke: #1f77b4"/>
     <use xlink:href="#m4fec8b6b6c" x="113.569644" y="59.11688" style="fill: #1f77b4; stroke: #1f77b4"/>
     <use xlink:href="#m4fec8b6b6c" x="113.571729" y="74.073731" style="fill: #1f77b4; stroke: #1f77b4"/>
     <use xlink:href="#m4fec8b6b6c" x="113.889394" y="58.173255" style="fill: #1f77b4; stroke: #1f77b4"/>
     <use xlink:href="#m4fec8b6b6c" x="114.495272" y="57.04396" style="fill: #1f77b4; stroke: #1f77b4"/>
     <use xlink:href="#m4fec8b6b6c" x="114.885889" y="56.264155" style="fill: #1f77b4; stroke: #1f77b4"/>
     <use xlink:href="#m4fec8b6b6c" x="115.114538" y="77.236391" style="fill: #1f77b4; stroke: #1f77b4"/>
     <use xlink:href="#m4fec8b6b6c" x="115.197319" y="55.852208" style="fill: #1f77b4; stroke: #1f77b4"/>
     <use xlink:href="#m4fec8b6b6c" x="115.308184" y="55.611238" style="fill: #1f77b4; stroke: #1f77b4"/>
     <use xlink:href="#m4fec8b6b6c" x="115.386492" y="187.711426" style="fill: #1f77b4; stroke: #1f77b4"/>
     <use xlink:href="#m4fec8b6b6c" x="116.147537" y="54.570748" style="fill: #1f77b4; stroke: #1f77b4"/>
     <use xlink:href="#m4fec8b6b6c" x="116.535526" y="54.109179" style="fill: #1f77b4; stroke: #1f77b4"/>
     <use xlink:href="#m4fec8b6b6c" x="116.55741" y="56.977319" style="fill: #1f77b4; stroke: #1f77b4"/>
     <use xlink:href="#m4fec8b6b6c" x="116.772121" y="53.9844" style="fill: #1f77b4; stroke: #1f77b4"/>
     <use xlink:href="#m4fec8b6b6c" x="117.170531" y="54.733833" style="fill: #1f77b4; stroke: #1f77b4"/>
     <use xlink:href="#m4fec8b6b6c" x="117.426406" y="55.885471" style="fill: #1f77b4; stroke: #1f77b4"/>
     <use xlink:href="#m4fec8b6b6c" x="117.432072" y="54.777335" style="fill: #1f77b4; stroke: #1f77b4"/>
     <use xlink:href="#m4fec8b6b6c" x="117.585784" y="54.104627" style="fill: #1f77b4; stroke: #1f77b4"/>
     <use xlink:href="#m4fec8b6b6c" x="117.751383" y="53.889511" style="fill: #1f77b4; stroke: #1f77b4"/>
     <use xlink:href="#m4fec8b6b6c" x="117.801581" y="54.666698" style="fill: #1f77b4; stroke: #1f77b4"/>
     <use xlink:href="#m4fec8b6b6c" x="117.866712" y="53.571262" style="fill: #1f77b4; stroke: #1f77b4"/>
     <use xlink:href="#m4fec8b6b6c" x="117.89518" y="55.282298" style="fill: #1f77b4; stroke: #1f77b4"/>
     <use xlink:href="#m4fec8b6b6c" x="118.097905" y="55.127778" style="fill: #1f77b4; stroke: #1f77b4"/>
     <use xlink:href="#m4fec8b6b6c" x="118.099538" y="53.692273" style="fill: #1f77b4; stroke: #1f77b4"/>
     <use xlink:href="#m4fec8b6b6c" x="118.192283" y="54.343266" style="fill: #1f77b4; stroke: #1f77b4"/>
     <use xlink:href="#m4fec8b6b6c" x="118.256304" y="53.5978" style="fill: #1f77b4; stroke: #1f77b4"/>
     <use xlink:href="#m4fec8b6b6c" x="118.29373" y="53.676075" style="fill: #1f77b4; stroke: #1f77b4"/>
     <use xlink:href="#m4fec8b6b6c" x="118.451394" y="54.626511" style="fill: #1f77b4; stroke: #1f77b4"/>
     <use xlink:href="#m4fec8b6b6c" x="118.494995" y="53.568" style="fill: #1f77b4; stroke: #1f77b4"/>
     <use xlink:href="#m4fec8b6b6c" x="118.547536" y="53.649009" style="fill: #1f77b4; stroke: #1f77b4"/>
     <use xlink:href="#m4fec8b6b6c" x="118.679198" y="53.807557" style="fill: #1f77b4; stroke: #1f77b4"/>
     <use xlink:href="#m4fec8b6b6c" x="118.717993" y="54.038222" style="fill: #1f77b4; stroke: #1f77b4"/>
     <use xlink:href="#m4fec8b6b6c" x="118.837928" y="53.856453" style="fill: #1f77b4; stroke: #1f77b4"/>
     <use xlink:href="#m4fec8b6b6c" x="118.867451" y="53.727919" style="fill: #1f77b4; stroke: #1f77b4"/>
     <use xlink:href="#m4fec8b6b6c" x="118.890587" y="53.777359" style="fill: #1f77b4; stroke: #1f77b4"/>
     <use xlink:href="#m4fec8b6b6c" x="118.892711" y="53.892432" style="fill: #1f77b4; stroke: #1f77b4"/>
     <use xlink:href="#m4fec8b6b6c" x="118.935264" y="53.990034" style="fill: #1f77b4; stroke: #1f77b4"/>
     <use xlink:href="#m4fec8b6b6c" x="118.955611" y="53.991488" style="fill: #1f77b4; stroke: #1f77b4"/>
     <use xlink:href="#m4fec8b6b6c" x="118.970378" y="53.913211" style="fill: #1f77b4; stroke: #1f77b4"/>
     <use xlink:href="#m4fec8b6b6c" x="119.124703" y="56.151126" style="fill: #1f77b4; stroke: #1f77b4"/>
     <use xlink:href="#m4fec8b6b6c" x="120.462629" y="80.544368" style="fill: #1f77b4; stroke: #1f77b4"/>
     <use xlink:href="#m4fec8b6b6c" x="121.119317" y="199.262354" style="fill: #1f77b4; stroke: #1f77b4"/>
     <use xlink:href="#m4fec8b6b6c" x="123.982505" y="79.261703" style="fill: #1f77b4; stroke: #1f77b4"/>
     <use xlink:href="#m4fec8b6b6c" x="125.563085" y="60.367238" style="fill: #1f77b4; stroke: #1f77b4"/>
     <use xlink:href="#m4fec8b6b6c" x="126.510919" y="209.173158" style="fill: #1f77b4; stroke: #1f77b4"/>
     <use xlink:href="#m4fec8b6b6c" x="127.158643" y="75.341125" style="fill: #1f77b4; stroke: #1f77b4"/>
     <use xlink:href="#m4fec8b6b6c" x="128.185746" y="68.523872" style="fill: #1f77b4; stroke: #1f77b4"/>
     <use xlink:href="#m4fec8b6b6c" x="128.592154" y="221.277389" style="fill: #1f77b4; stroke: #1f77b4"/>
     <use xlink:href="#m4fec8b6b6c" x="141.191984" y="229.056708" style="fill: #1f77b4; stroke: #1f77b4"/>
     <use xlink:href="#m4fec8b6b6c" x="148.688111" y="236.157141" style="fill: #1f77b4; stroke: #1f77b4"/>
     <use xlink:href="#m4fec8b6b6c" x="160.698536" y="243.68256" style="fill: #1f77b4; stroke: #1f77b4"/>
     <use xlink:href="#m4fec8b6b6c" x="167.560453" y="256.125567" style="fill: #1f77b4; stroke: #1f77b4"/>
     <use xlink:href="#m4fec8b6b6c" x="177.619037" y="263.975288" style="fill: #1f77b4; stroke: #1f77b4"/>
     <use xlink:href="#m4fec8b6b6c" x="188.619844" y="269.632772" style="fill: #1f77b4; stroke: #1f77b4"/>
     <use xlink:href="#m4fec8b6b6c" x="201.51475" y="277.516426" style="fill: #1f77b4; stroke: #1f77b4"/>
     <use xlink:href="#m4fec8b6b6c" x="212.884182" y="280.480385" style="fill: #1f77b4; stroke: #1f77b4"/>
     <use xlink:href="#m4fec8b6b6c" x="225.053473" y="284.544594" style="fill: #1f77b4; stroke: #1f77b4"/>
     <use xlink:href="#m4fec8b6b6c" x="236.901946" y="287.162658" style="fill: #1f77b4; stroke: #1f77b4"/>
     <use xlink:href="#m4fec8b6b6c" x="250.424775" y="288.084549" style="fill: #1f77b4; stroke: #1f77b4"/>
     <use xlink:href="#m4fec8b6b6c" x="259.198961" y="295.488" style="fill: #1f77b4; stroke: #1f77b4"/>
     <use xlink:href="#m4fec8b6b6c" x="271.506541" y="285.812966" style="fill: #1f77b4; stroke: #1f77b4"/>
     <use xlink:href="#m4fec8b6b6c" x="286.353612" y="282.084239" style="fill: #1f77b4; stroke: #1f77b4"/>
     <use xlink:href="#m4fec8b6b6c" x="299.648214" y="276.13743" style="fill: #1f77b4; stroke: #1f77b4"/>
     <use xlink:href="#m4fec8b6b6c" x="310.832214" y="269.219703" style="fill: #1f77b4; stroke: #1f77b4"/>
     <use xlink:href="#m4fec8b6b6c" x="320.887178" y="264.535032" style="fill: #1f77b4; stroke: #1f77b4"/>
     <use xlink:href="#m4fec8b6b6c" x="331.115095" y="258.065379" style="fill: #1f77b4; stroke: #1f77b4"/>
     <use xlink:href="#m4fec8b6b6c" x="340.24512" y="249.051197" style="fill: #1f77b4; stroke: #1f77b4"/>
     <use xlink:href="#m4fec8b6b6c" x="347.703617" y="240.913753" style="fill: #1f77b4; stroke: #1f77b4"/>
     <use xlink:href="#m4fec8b6b6c" x="354.354723" y="233.623839" style="fill: #1f77b4; stroke: #1f77b4"/>
     <use xlink:href="#m4fec8b6b6c" x="361.798379" y="226.06929" style="fill: #1f77b4; stroke: #1f77b4"/>
     <use xlink:href="#m4fec8b6b6c" x="369.696567" y="218.756063" style="fill: #1f77b4; stroke: #1f77b4"/>
     <use xlink:href="#m4fec8b6b6c" x="375.778918" y="207.741995" style="fill: #1f77b4; stroke: #1f77b4"/>
     <use xlink:href="#m4fec8b6b6c" x="380.789586" y="197.703977" style="fill: #1f77b4; stroke: #1f77b4"/>
     <use xlink:href="#m4fec8b6b6c" x="384.624357" y="182.513715" style="fill: #1f77b4; stroke: #1f77b4"/>
     <use xlink:href="#m4fec8b6b6c" x="388.504463" y="177.608353" style="fill: #1f77b4; stroke: #1f77b4"/>
     <use xlink:href="#m4fec8b6b6c" x="394.371542" y="165.295673" style="fill: #1f77b4; stroke: #1f77b4"/>
     <use xlink:href="#m4fec8b6b6c" x="396.038282" y="204.084642" style="fill: #1f77b4; stroke: #1f77b4"/>
     <use xlink:href="#m4fec8b6b6c" x="396.448675" y="157.219534" style="fill: #1f77b4; stroke: #1f77b4"/>
     <use xlink:href="#m4fec8b6b6c" x="398.487273" y="150.219701" style="fill: #1f77b4; stroke: #1f77b4"/>
    </g>
   </g>
   <g id="matplotlib.axis_1">
    <g id="xtick_1">
     <g id="line2d_1">
      <path d="M 68.113129 307.584 
L 68.113129 41.472 
" clip-path="url(#pdf669744f3)" style="fill: none; stroke: #b0b0b0; stroke-width: 0.8; stroke-linecap: square"/>
     </g>
     <g id="line2d_2">
      <defs>
       <path id="md0f3f9d582" d="M 0 0 
L 0 3.5 
" style="stroke: #000000; stroke-width: 0.8"/>
      </defs>
      <g>
       <use xlink:href="#md0f3f9d582" x="68.113129" y="307.584" style="stroke: #000000; stroke-width: 0.8"/>
      </g>
     </g>
     <g id="text_1">
      <!-- −0.1 -->
      <g transform="translate(55.971722 322.182437) scale(0.1 -0.1)">
       <defs>
        <path id="DejaVuSans-2212" d="M 678 2272 
L 4684 2272 
L 4684 1741 
L 678 1741 
L 678 2272 
z
" transform="scale(0.015625)"/>
        <path id="DejaVuSans-30" d="M 2034 4250 
Q 1547 4250 1301 3770 
Q 1056 3291 1056 2328 
Q 1056 1369 1301 889 
Q 1547 409 2034 409 
Q 2525 409 2770 889 
Q 3016 1369 3016 2328 
Q 3016 3291 2770 3770 
Q 2525 4250 2034 4250 
z
M 2034 4750 
Q 2819 4750 3233 4129 
Q 3647 3509 3647 2328 
Q 3647 1150 3233 529 
Q 2819 -91 2034 -91 
Q 1250 -91 836 529 
Q 422 1150 422 2328 
Q 422 3509 836 4129 
Q 1250 4750 2034 4750 
z
" transform="scale(0.015625)"/>
        <path id="DejaVuSans-2e" d="M 684 794 
L 1344 794 
L 1344 0 
L 684 0 
L 684 794 
z
" transform="scale(0.015625)"/>
        <path id="DejaVuSans-31" d="M 794 531 
L 1825 531 
L 1825 4091 
L 703 3866 
L 703 4441 
L 1819 4666 
L 2450 4666 
L 2450 531 
L 3481 531 
L 3481 0 
L 794 0 
L 794 531 
z
" transform="scale(0.015625)"/>
       </defs>
       <use xlink:href="#DejaVuSans-2212"/>
       <use xlink:href="#DejaVuSans-30" transform="translate(83.789062 0)"/>
       <use xlink:href="#DejaVuSans-2e" transform="translate(147.412109 0)"/>
       <use xlink:href="#DejaVuSans-31" transform="translate(179.199219 0)"/>
      </g>
     </g>
    </g>
    <g id="xtick_2">
     <g id="line2d_3">
      <path d="M 119.049442 307.584 
L 119.049442 41.472 
" clip-path="url(#pdf669744f3)" style="fill: none; stroke: #b0b0b0; stroke-width: 0.8; stroke-linecap: square"/>
     </g>
     <g id="line2d_4">
      <g>
       <use xlink:href="#md0f3f9d582" x="119.049442" y="307.584" style="stroke: #000000; stroke-width: 0.8"/>
      </g>
     </g>
     <g id="text_2">
      <!-- 0.0 -->
      <g transform="translate(111.097879 322.182437) scale(0.1 -0.1)">
       <use xlink:href="#DejaVuSans-30"/>
       <use xlink:href="#DejaVuSans-2e" transform="translate(63.623047 0)"/>
       <use xlink:href="#DejaVuSans-30" transform="translate(95.410156 0)"/>
      </g>
     </g>
    </g>
    <g id="xtick_3">
     <g id="line2d_5">
      <path d="M 169.985755 307.584 
L 169.985755 41.472 
" clip-path="url(#pdf669744f3)" style="fill: none; stroke: #b0b0b0; stroke-width: 0.8; stroke-linecap: square"/>
     </g>
     <g id="line2d_6">
      <g>
       <use xlink:href="#md0f3f9d582" x="169.985755" y="307.584" style="stroke: #000000; stroke-width: 0.8"/>
      </g>
     </g>
     <g id="text_3">
      <!-- 0.1 -->
      <g transform="translate(162.034192 322.182437) scale(0.1 -0.1)">
       <use xlink:href="#DejaVuSans-30"/>
       <use xlink:href="#DejaVuSans-2e" transform="translate(63.623047 0)"/>
       <use xlink:href="#DejaVuSans-31" transform="translate(95.410156 0)"/>
      </g>
     </g>
    </g>
    <g id="xtick_4">
     <g id="line2d_7">
      <path d="M 220.922068 307.584 
L 220.922068 41.472 
" clip-path="url(#pdf669744f3)" style="fill: none; stroke: #b0b0b0; stroke-width: 0.8; stroke-linecap: square"/>
     </g>
     <g id="line2d_8">
      <g>
       <use xlink:href="#md0f3f9d582" x="220.922068" y="307.584" style="stroke: #000000; stroke-width: 0.8"/>
      </g>
     </g>
     <g id="text_4">
      <!-- 0.2 -->
      <g transform="translate(212.970505 322.182437) scale(0.1 -0.1)">
       <defs>
        <path id="DejaVuSans-32" d="M 1228 531 
L 3431 531 
L 3431 0 
L 469 0 
L 469 531 
Q 828 903 1448 1529 
Q 2069 2156 2228 2338 
Q 2531 2678 2651 2914 
Q 2772 3150 2772 3378 
Q 2772 3750 2511 3984 
Q 2250 4219 1831 4219 
Q 1534 4219 1204 4116 
Q 875 4013 500 3803 
L 500 4441 
Q 881 4594 1212 4672 
Q 1544 4750 1819 4750 
Q 2544 4750 2975 4387 
Q 3406 4025 3406 3419 
Q 3406 3131 3298 2873 
Q 3191 2616 2906 2266 
Q 2828 2175 2409 1742 
Q 1991 1309 1228 531 
z
" transform="scale(0.015625)"/>
       </defs>
       <use xlink:href="#DejaVuSans-30"/>
       <use xlink:href="#DejaVuSans-2e" transform="translate(63.623047 0)"/>
       <use xlink:href="#DejaVuSans-32" transform="translate(95.410156 0)"/>
      </g>
     </g>
    </g>
    <g id="xtick_5">
     <g id="line2d_9">
      <path d="M 271.858381 307.584 
L 271.858381 41.472 
" clip-path="url(#pdf669744f3)" style="fill: none; stroke: #b0b0b0; stroke-width: 0.8; stroke-linecap: square"/>
     </g>
     <g id="line2d_10">
      <g>
       <use xlink:href="#md0f3f9d582" x="271.858381" y="307.584" style="stroke: #000000; stroke-width: 0.8"/>
      </g>
     </g>
     <g id="text_5">
      <!-- 0.3 -->
      <g transform="translate(263.906818 322.182437) scale(0.1 -0.1)">
       <defs>
        <path id="DejaVuSans-33" d="M 2597 2516 
Q 3050 2419 3304 2112 
Q 3559 1806 3559 1356 
Q 3559 666 3084 287 
Q 2609 -91 1734 -91 
Q 1441 -91 1130 -33 
Q 819 25 488 141 
L 488 750 
Q 750 597 1062 519 
Q 1375 441 1716 441 
Q 2309 441 2620 675 
Q 2931 909 2931 1356 
Q 2931 1769 2642 2001 
Q 2353 2234 1838 2234 
L 1294 2234 
L 1294 2753 
L 1863 2753 
Q 2328 2753 2575 2939 
Q 2822 3125 2822 3475 
Q 2822 3834 2567 4026 
Q 2313 4219 1838 4219 
Q 1578 4219 1281 4162 
Q 984 4106 628 3988 
L 628 4550 
Q 988 4650 1302 4700 
Q 1616 4750 1894 4750 
Q 2613 4750 3031 4423 
Q 3450 4097 3450 3541 
Q 3450 3153 3228 2886 
Q 3006 2619 2597 2516 
z
" transform="scale(0.015625)"/>
       </defs>
       <use xlink:href="#DejaVuSans-30"/>
       <use xlink:href="#DejaVuSans-2e" transform="translate(63.623047 0)"/>
       <use xlink:href="#DejaVuSans-33" transform="translate(95.410156 0)"/>
      </g>
     </g>
    </g>
    <g id="xtick_6">
     <g id="line2d_11">
      <path d="M 322.794694 307.584 
L 322.794694 41.472 
" clip-path="url(#pdf669744f3)" style="fill: none; stroke: #b0b0b0; stroke-width: 0.8; stroke-linecap: square"/>
     </g>
     <g id="line2d_12">
      <g>
       <use xlink:href="#md0f3f9d582" x="322.794694" y="307.584" style="stroke: #000000; stroke-width: 0.8"/>
      </g>
     </g>
     <g id="text_6">
      <!-- 0.4 -->
      <g transform="translate(314.843131 322.182437) scale(0.1 -0.1)">
       <defs>
        <path id="DejaVuSans-34" d="M 2419 4116 
L 825 1625 
L 2419 1625 
L 2419 4116 
z
M 2253 4666 
L 3047 4666 
L 3047 1625 
L 3713 1625 
L 3713 1100 
L 3047 1100 
L 3047 0 
L 2419 0 
L 2419 1100 
L 313 1100 
L 313 1709 
L 2253 4666 
z
" transform="scale(0.015625)"/>
       </defs>
       <use xlink:href="#DejaVuSans-30"/>
       <use xlink:href="#DejaVuSans-2e" transform="translate(63.623047 0)"/>
       <use xlink:href="#DejaVuSans-34" transform="translate(95.410156 0)"/>
      </g>
     </g>
    </g>
    <g id="xtick_7">
     <g id="line2d_13">
      <path d="M 373.731007 307.584 
L 373.731007 41.472 
" clip-path="url(#pdf669744f3)" style="fill: none; stroke: #b0b0b0; stroke-width: 0.8; stroke-linecap: square"/>
     </g>
     <g id="line2d_14">
      <g>
       <use xlink:href="#md0f3f9d582" x="373.731007" y="307.584" style="stroke: #000000; stroke-width: 0.8"/>
      </g>
     </g>
     <g id="text_7">
      <!-- 0.5 -->
      <g transform="translate(365.779444 322.182437) scale(0.1 -0.1)">
       <defs>
        <path id="DejaVuSans-35" d="M 691 4666 
L 3169 4666 
L 3169 4134 
L 1269 4134 
L 1269 2991 
Q 1406 3038 1543 3061 
Q 1681 3084 1819 3084 
Q 2600 3084 3056 2656 
Q 3513 2228 3513 1497 
Q 3513 744 3044 326 
Q 2575 -91 1722 -91 
Q 1428 -91 1123 -41 
Q 819 9 494 109 
L 494 744 
Q 775 591 1075 516 
Q 1375 441 1709 441 
Q 2250 441 2565 725 
Q 2881 1009 2881 1497 
Q 2881 1984 2565 2268 
Q 2250 2553 1709 2553 
Q 1456 2553 1204 2497 
Q 953 2441 691 2322 
L 691 4666 
z
" transform="scale(0.015625)"/>
       </defs>
       <use xlink:href="#DejaVuSans-30"/>
       <use xlink:href="#DejaVuSans-2e" transform="translate(63.623047 0)"/>
       <use xlink:href="#DejaVuSans-35" transform="translate(95.410156 0)"/>
      </g>
     </g>
    </g>
    <g id="text_8">
     <!-- Re(G(jω)) -->
     <g transform="translate(212.581094 335.860562) scale(0.1 -0.1)">
      <defs>
       <path id="DejaVuSans-52" d="M 2841 2188 
Q 3044 2119 3236 1894 
Q 3428 1669 3622 1275 
L 4263 0 
L 3584 0 
L 2988 1197 
Q 2756 1666 2539 1819 
Q 2322 1972 1947 1972 
L 1259 1972 
L 1259 0 
L 628 0 
L 628 4666 
L 2053 4666 
Q 2853 4666 3247 4331 
Q 3641 3997 3641 3322 
Q 3641 2881 3436 2590 
Q 3231 2300 2841 2188 
z
M 1259 4147 
L 1259 2491 
L 2053 2491 
Q 2509 2491 2742 2702 
Q 2975 2913 2975 3322 
Q 2975 3731 2742 3939 
Q 2509 4147 2053 4147 
L 1259 4147 
z
" transform="scale(0.015625)"/>
       <path id="DejaVuSans-65" d="M 3597 1894 
L 3597 1613 
L 953 1613 
Q 991 1019 1311 708 
Q 1631 397 2203 397 
Q 2534 397 2845 478 
Q 3156 559 3463 722 
L 3463 178 
Q 3153 47 2828 -22 
Q 2503 -91 2169 -91 
Q 1331 -91 842 396 
Q 353 884 353 1716 
Q 353 2575 817 3079 
Q 1281 3584 2069 3584 
Q 2775 3584 3186 3129 
Q 3597 2675 3597 1894 
z
M 3022 2063 
Q 3016 2534 2758 2815 
Q 2500 3097 2075 3097 
Q 1594 3097 1305 2825 
Q 1016 2553 972 2059 
L 3022 2063 
z
" transform="scale(0.015625)"/>
       <path id="DejaVuSans-28" d="M 1984 4856 
Q 1566 4138 1362 3434 
Q 1159 2731 1159 2009 
Q 1159 1288 1364 580 
Q 1569 -128 1984 -844 
L 1484 -844 
Q 1016 -109 783 600 
Q 550 1309 550 2009 
Q 550 2706 781 3412 
Q 1013 4119 1484 4856 
L 1984 4856 
z
" transform="scale(0.015625)"/>
       <path id="DejaVuSans-47" d="M 3809 666 
L 3809 1919 
L 2778 1919 
L 2778 2438 
L 4434 2438 
L 4434 434 
Q 4069 175 3628 42 
Q 3188 -91 2688 -91 
Q 1594 -91 976 548 
Q 359 1188 359 2328 
Q 359 3472 976 4111 
Q 1594 4750 2688 4750 
Q 3144 4750 3555 4637 
Q 3966 4525 4313 4306 
L 4313 3634 
Q 3963 3931 3569 4081 
Q 3175 4231 2741 4231 
Q 1884 4231 1454 3753 
Q 1025 3275 1025 2328 
Q 1025 1384 1454 906 
Q 1884 428 2741 428 
Q 3075 428 3337 486 
Q 3600 544 3809 666 
z
" transform="scale(0.015625)"/>
       <path id="DejaVuSans-6a" d="M 603 3500 
L 1178 3500 
L 1178 -63 
Q 1178 -731 923 -1031 
Q 669 -1331 103 -1331 
L -116 -1331 
L -116 -844 
L 38 -844 
Q 366 -844 484 -692 
Q 603 -541 603 -63 
L 603 3500 
z
M 603 4863 
L 1178 4863 
L 1178 4134 
L 603 4134 
L 603 4863 
z
" transform="scale(0.015625)"/>
       <path id="DejaVuSans-3c9" d="M 1719 -91 
Q 422 -91 422 1766 
Q 422 2500 906 3500 
L 1525 3500 
Q 1078 2500 1078 1750 
Q 1078 397 1772 397 
Q 2406 397 2406 2078 
L 2938 2078 
Q 2938 397 3572 397 
Q 4266 397 4266 1750 
Q 4266 2500 3819 3500 
L 4438 3500 
Q 4922 2500 4922 1766 
Q 4922 -91 3625 -91 
Q 2775 -91 2672 844 
Q 2544 -91 1719 -91 
z
" transform="scale(0.015625)"/>
       <path id="DejaVuSans-29" d="M 513 4856 
L 1013 4856 
Q 1481 4119 1714 3412 
Q 1947 2706 1947 2009 
Q 1947 1309 1714 600 
Q 1481 -109 1013 -844 
L 513 -844 
Q 928 -128 1133 580 
Q 1338 1288 1338 2009 
Q 1338 2731 1133 3434 
Q 928 4138 513 4856 
z
" transform="scale(0.015625)"/>
      </defs>
      <use xlink:href="#DejaVuSans-52"/>
      <use xlink:href="#DejaVuSans-65" transform="translate(64.982422 0)"/>
      <use xlink:href="#DejaVuSans-28" transform="translate(126.505859 0)"/>
      <use xlink:href="#DejaVuSans-47" transform="translate(165.519531 0)"/>
      <use xlink:href="#DejaVuSans-28" transform="translate(243.009766 0)"/>
      <use xlink:href="#DejaVuSans-6a" transform="translate(282.023438 0)"/>
      <use xlink:href="#DejaVuSans-3c9" transform="translate(309.806641 0)"/>
      <use xlink:href="#DejaVuSans-29" transform="translate(393.546875 0)"/>
      <use xlink:href="#DejaVuSans-29" transform="translate(432.560547 0)"/>
     </g>
    </g>
   </g>
   <g id="matplotlib.axis_2">
    <g id="ytick_1">
     <g id="line2d_15">
      <path d="M 57.6 271.731455 
L 414.72 271.731455 
" clip-path="url(#pdf669744f3)" style="fill: none; stroke: #b0b0b0; stroke-width: 0.8; stroke-linecap: square"/>
     </g>
     <g id="line2d_16">
      <defs>
       <path id="me2d65667a5" d="M 0 0 
L -3.5 0 
" style="stroke: #000000; stroke-width: 0.8"/>
      </defs>
      <g>
       <use xlink:href="#me2d65667a5" x="57.6" y="271.731455" style="stroke: #000000; stroke-width: 0.8"/>
      </g>
     </g>
     <g id="text_9">
      <!-- −0.30 -->
      <g transform="translate(19.954687 275.530674) scale(0.1 -0.1)">
       <use xlink:href="#DejaVuSans-2212"/>
       <use xlink:href="#DejaVuSans-30" transform="translate(83.789062 0)"/>
       <use xlink:href="#DejaVuSans-2e" transform="translate(147.412109 0)"/>
       <use xlink:href="#DejaVuSans-33" transform="translate(179.199219 0)"/>
       <use xlink:href="#DejaVuSans-30" transform="translate(242.822266 0)"/>
      </g>
     </g>
    </g>
    <g id="ytick_2">
     <g id="line2d_17">
      <path d="M 57.6 235.428379 
L 414.72 235.428379 
" clip-path="url(#pdf669744f3)" style="fill: none; stroke: #b0b0b0; stroke-width: 0.8; stroke-linecap: square"/>
     </g>
     <g id="line2d_18">
      <g>
       <use xlink:href="#me2d65667a5" x="57.6" y="235.428379" style="stroke: #000000; stroke-width: 0.8"/>
      </g>
     </g>
     <g id="text_10">
      <!-- −0.25 -->
      <g transform="translate(19.954687 239.227597) scale(0.1 -0.1)">
       <use xlink:href="#DejaVuSans-2212"/>
       <use xlink:href="#DejaVuSans-30" transform="translate(83.789062 0)"/>
       <use xlink:href="#DejaVuSans-2e" transform="translate(147.412109 0)"/>
       <use xlink:href="#DejaVuSans-32" transform="translate(179.199219 0)"/>
       <use xlink:href="#DejaVuSans-35" transform="translate(242.822266 0)"/>
      </g>
     </g>
    </g>
    <g id="ytick_3">
     <g id="line2d_19">
      <path d="M 57.6 199.125302 
L 414.72 199.125302 
" clip-path="url(#pdf669744f3)" style="fill: none; stroke: #b0b0b0; stroke-width: 0.8; stroke-linecap: square"/>
     </g>
     <g id="line2d_20">
      <g>
       <use xlink:href="#me2d65667a5" x="57.6" y="199.125302" style="stroke: #000000; stroke-width: 0.8"/>
      </g>
     </g>
     <g id="text_11">
      <!-- −0.20 -->
      <g transform="translate(19.954687 202.924521) scale(0.1 -0.1)">
       <use xlink:href="#DejaVuSans-2212"/>
       <use xlink:href="#DejaVuSans-30" transform="translate(83.789062 0)"/>
       <use xlink:href="#DejaVuSans-2e" transform="translate(147.412109 0)"/>
       <use xlink:href="#DejaVuSans-32" transform="translate(179.199219 0)"/>
       <use xlink:href="#DejaVuSans-30" transform="translate(242.822266 0)"/>
      </g>
     </g>
    </g>
    <g id="ytick_4">
     <g id="line2d_21">
      <path d="M 57.6 162.822226 
L 414.72 162.822226 
" clip-path="url(#pdf669744f3)" style="fill: none; stroke: #b0b0b0; stroke-width: 0.8; stroke-linecap: square"/>
     </g>
     <g id="line2d_22">
      <g>
       <use xlink:href="#me2d65667a5" x="57.6" y="162.822226" style="stroke: #000000; stroke-width: 0.8"/>
      </g>
     </g>
     <g id="text_12">
      <!-- −0.15 -->
      <g transform="translate(19.954687 166.621445) scale(0.1 -0.1)">
       <use xlink:href="#DejaVuSans-2212"/>
       <use xlink:href="#DejaVuSans-30" transform="translate(83.789062 0)"/>
       <use xlink:href="#DejaVuSans-2e" transform="translate(147.412109 0)"/>
       <use xlink:href="#DejaVuSans-31" transform="translate(179.199219 0)"/>
       <use xlink:href="#DejaVuSans-35" transform="translate(242.822266 0)"/>
      </g>
     </g>
    </g>
    <g id="ytick_5">
     <g id="line2d_23">
      <path d="M 57.6 126.51915 
L 414.72 126.51915 
" clip-path="url(#pdf669744f3)" style="fill: none; stroke: #b0b0b0; stroke-width: 0.8; stroke-linecap: square"/>
     </g>
     <g id="line2d_24">
      <g>
       <use xlink:href="#me2d65667a5" x="57.6" y="126.51915" style="stroke: #000000; stroke-width: 0.8"/>
      </g>
     </g>
     <g id="text_13">
      <!-- −0.10 -->
      <g transform="translate(19.954687 130.318369) scale(0.1 -0.1)">
       <use xlink:href="#DejaVuSans-2212"/>
       <use xlink:href="#DejaVuSans-30" transform="translate(83.789062 0)"/>
       <use xlink:href="#DejaVuSans-2e" transform="translate(147.412109 0)"/>
       <use xlink:href="#DejaVuSans-31" transform="translate(179.199219 0)"/>
       <use xlink:href="#DejaVuSans-30" transform="translate(242.822266 0)"/>
      </g>
     </g>
    </g>
    <g id="ytick_6">
     <g id="line2d_25">
      <path d="M 57.6 90.216074 
L 414.72 90.216074 
" clip-path="url(#pdf669744f3)" style="fill: none; stroke: #b0b0b0; stroke-width: 0.8; stroke-linecap: square"/>
     </g>
     <g id="line2d_26">
      <g>
       <use xlink:href="#me2d65667a5" x="57.6" y="90.216074" style="stroke: #000000; stroke-width: 0.8"/>
      </g>
     </g>
     <g id="text_14">
      <!-- −0.05 -->
      <g transform="translate(19.954687 94.015292) scale(0.1 -0.1)">
       <use xlink:href="#DejaVuSans-2212"/>
       <use xlink:href="#DejaVuSans-30" transform="translate(83.789062 0)"/>
       <use xlink:href="#DejaVuSans-2e" transform="translate(147.412109 0)"/>
       <use xlink:href="#DejaVuSans-30" transform="translate(179.199219 0)"/>
       <use xlink:href="#DejaVuSans-35" transform="translate(242.822266 0)"/>
      </g>
     </g>
    </g>
    <g id="ytick_7">
     <g id="line2d_27">
      <path d="M 57.6 53.912997 
L 414.72 53.912997 
" clip-path="url(#pdf669744f3)" style="fill: none; stroke: #b0b0b0; stroke-width: 0.8; stroke-linecap: square"/>
     </g>
     <g id="line2d_28">
      <g>
       <use xlink:href="#me2d65667a5" x="57.6" y="53.912997" style="stroke: #000000; stroke-width: 0.8"/>
      </g>
     </g>
     <g id="text_15">
      <!-- 0.00 -->
      <g transform="translate(28.334375 57.712216) scale(0.1 -0.1)">
       <use xlink:href="#DejaVuSans-30"/>
       <use xlink:href="#DejaVuSans-2e" transform="translate(63.623047 0)"/>
       <use xlink:href="#DejaVuSans-30" transform="translate(95.410156 0)"/>
       <use xlink:href="#DejaVuSans-30" transform="translate(159.033203 0)"/>
      </g>
     </g>
    </g>
    <g id="text_16">
     <!-- Im(G(jω)) -->
     <g transform="translate(13.875 198.126438) rotate(-90) scale(0.1 -0.1)">
      <defs>
       <path id="DejaVuSans-49" d="M 628 4666 
L 1259 4666 
L 1259 0 
L 628 0 
L 628 4666 
z
" transform="scale(0.015625)"/>
       <path id="DejaVuSans-6d" d="M 3328 2828 
Q 3544 3216 3844 3400 
Q 4144 3584 4550 3584 
Q 5097 3584 5394 3201 
Q 5691 2819 5691 2113 
L 5691 0 
L 5113 0 
L 5113 2094 
Q 5113 2597 4934 2840 
Q 4756 3084 4391 3084 
Q 3944 3084 3684 2787 
Q 3425 2491 3425 1978 
L 3425 0 
L 2847 0 
L 2847 2094 
Q 2847 2600 2669 2842 
Q 2491 3084 2119 3084 
Q 1678 3084 1418 2786 
Q 1159 2488 1159 1978 
L 1159 0 
L 581 0 
L 581 3500 
L 1159 3500 
L 1159 2956 
Q 1356 3278 1631 3431 
Q 1906 3584 2284 3584 
Q 2666 3584 2933 3390 
Q 3200 3197 3328 2828 
z
" transform="scale(0.015625)"/>
      </defs>
      <use xlink:href="#DejaVuSans-49"/>
      <use xlink:href="#DejaVuSans-6d" transform="translate(29.492188 0)"/>
      <use xlink:href="#DejaVuSans-28" transform="translate(126.904297 0)"/>
      <use xlink:href="#DejaVuSans-47" transform="translate(165.917969 0)"/>
      <use xlink:href="#DejaVuSans-28" transform="translate(243.408203 0)"/>
      <use xlink:href="#DejaVuSans-6a" transform="translate(282.421875 0)"/>
      <use xlink:href="#DejaVuSans-3c9" transform="translate(310.205078 0)"/>
      <use xlink:href="#DejaVuSans-29" transform="translate(393.945312 0)"/>
      <use xlink:href="#DejaVuSans-29" transform="translate(432.958984 0)"/>
     </g>
    </g>
   </g>
   <g id="patch_3">
    <path d="M 57.6 307.584 
L 57.6 41.472 
" style="fill: none; stroke: #000000; stroke-width: 0.8; stroke-linejoin: miter; stroke-linecap: square"/>
   </g>
   <g id="patch_4">
    <path d="M 414.72 307.584 
L 414.72 41.472 
" style="fill: none; stroke: #000000; stroke-width: 0.8; stroke-linejoin: miter; stroke-linecap: square"/>
   </g>
   <g id="patch_5">
    <path d="M 57.6 307.584 
L 414.72 307.584 
" style="fill: none; stroke: #000000; stroke-width: 0.8; stroke-linejoin: miter; stroke-linecap: square"/>
   </g>
   <g id="patch_6">
    <path d="M 57.6 41.472 
L 414.72 41.472 
" style="fill: none; stroke: #000000; stroke-width: 0.8; stroke-linejoin: miter; stroke-linecap: square"/>
   </g>
   <g id="text_17">
    <!-- Nyquist Plot -->
    <g transform="translate(200.14875 35.472) scale(0.12 -0.12)">
     <defs>
      <path id="DejaVuSans-4e" d="M 628 4666 
L 1478 4666 
L 3547 763 
L 3547 4666 
L 4159 4666 
L 4159 0 
L 3309 0 
L 1241 3903 
L 1241 0 
L 628 0 
L 628 4666 
z
" transform="scale(0.015625)"/>
      <path id="DejaVuSans-79" d="M 2059 -325 
Q 1816 -950 1584 -1140 
Q 1353 -1331 966 -1331 
L 506 -1331 
L 506 -850 
L 844 -850 
Q 1081 -850 1212 -737 
Q 1344 -625 1503 -206 
L 1606 56 
L 191 3500 
L 800 3500 
L 1894 763 
L 2988 3500 
L 3597 3500 
L 2059 -325 
z
" transform="scale(0.015625)"/>
      <path id="DejaVuSans-71" d="M 947 1747 
Q 947 1113 1208 752 
Q 1469 391 1925 391 
Q 2381 391 2643 752 
Q 2906 1113 2906 1747 
Q 2906 2381 2643 2742 
Q 2381 3103 1925 3103 
Q 1469 3103 1208 2742 
Q 947 2381 947 1747 
z
M 2906 525 
Q 2725 213 2448 61 
Q 2172 -91 1784 -91 
Q 1150 -91 751 415 
Q 353 922 353 1747 
Q 353 2572 751 3078 
Q 1150 3584 1784 3584 
Q 2172 3584 2448 3432 
Q 2725 3281 2906 2969 
L 2906 3500 
L 3481 3500 
L 3481 -1331 
L 2906 -1331 
L 2906 525 
z
" transform="scale(0.015625)"/>
      <path id="DejaVuSans-75" d="M 544 1381 
L 544 3500 
L 1119 3500 
L 1119 1403 
Q 1119 906 1312 657 
Q 1506 409 1894 409 
Q 2359 409 2629 706 
Q 2900 1003 2900 1516 
L 2900 3500 
L 3475 3500 
L 3475 0 
L 2900 0 
L 2900 538 
Q 2691 219 2414 64 
Q 2138 -91 1772 -91 
Q 1169 -91 856 284 
Q 544 659 544 1381 
z
M 1991 3584 
L 1991 3584 
z
" transform="scale(0.015625)"/>
      <path id="DejaVuSans-69" d="M 603 3500 
L 1178 3500 
L 1178 0 
L 603 0 
L 603 3500 
z
M 603 4863 
L 1178 4863 
L 1178 4134 
L 603 4134 
L 603 4863 
z
" transform="scale(0.015625)"/>
      <path id="DejaVuSans-73" d="M 2834 3397 
L 2834 2853 
Q 2591 2978 2328 3040 
Q 2066 3103 1784 3103 
Q 1356 3103 1142 2972 
Q 928 2841 928 2578 
Q 928 2378 1081 2264 
Q 1234 2150 1697 2047 
L 1894 2003 
Q 2506 1872 2764 1633 
Q 3022 1394 3022 966 
Q 3022 478 2636 193 
Q 2250 -91 1575 -91 
Q 1294 -91 989 -36 
Q 684 19 347 128 
L 347 722 
Q 666 556 975 473 
Q 1284 391 1588 391 
Q 1994 391 2212 530 
Q 2431 669 2431 922 
Q 2431 1156 2273 1281 
Q 2116 1406 1581 1522 
L 1381 1569 
Q 847 1681 609 1914 
Q 372 2147 372 2553 
Q 372 3047 722 3315 
Q 1072 3584 1716 3584 
Q 2034 3584 2315 3537 
Q 2597 3491 2834 3397 
z
" transform="scale(0.015625)"/>
      <path id="DejaVuSans-74" d="M 1172 4494 
L 1172 3500 
L 2356 3500 
L 2356 3053 
L 1172 3053 
L 1172 1153 
Q 1172 725 1289 603 
Q 1406 481 1766 481 
L 2356 481 
L 2356 0 
L 1766 0 
Q 1100 0 847 248 
Q 594 497 594 1153 
L 594 3053 
L 172 3053 
L 172 3500 
L 594 3500 
L 594 4494 
L 1172 4494 
z
" transform="scale(0.015625)"/>
      <path id="DejaVuSans-20" transform="scale(0.015625)"/>
      <path id="DejaVuSans-50" d="M 1259 4147 
L 1259 2394 
L 2053 2394 
Q 2494 2394 2734 2622 
Q 2975 2850 2975 3272 
Q 2975 3691 2734 3919 
Q 2494 4147 2053 4147 
L 1259 4147 
z
M 628 4666 
L 2053 4666 
Q 2838 4666 3239 4311 
Q 3641 3956 3641 3272 
Q 3641 2581 3239 2228 
Q 2838 1875 2053 1875 
L 1259 1875 
L 1259 0 
L 628 0 
L 628 4666 
z
" transform="scale(0.015625)"/>
      <path id="DejaVuSans-6c" d="M 603 4863 
L 1178 4863 
L 1178 0 
L 603 0 
L 603 4863 
z
" transform="scale(0.015625)"/>
      <path id="DejaVuSans-6f" d="M 1959 3097 
Q 1497 3097 1228 2736 
Q 959 2375 959 1747 
Q 959 1119 1226 758 
Q 1494 397 1959 397 
Q 2419 397 2687 759 
Q 2956 1122 2956 1747 
Q 2956 2369 2687 2733 
Q 2419 3097 1959 3097 
z
M 1959 3584 
Q 2709 3584 3137 3096 
Q 3566 2609 3566 1747 
Q 3566 888 3137 398 
Q 2709 -91 1959 -91 
Q 1206 -91 779 398 
Q 353 888 353 1747 
Q 353 2609 779 3096 
Q 1206 3584 1959 3584 
z
" transform="scale(0.015625)"/>
     </defs>
     <use xlink:href="#DejaVuSans-4e"/>
     <use xlink:href="#DejaVuSans-79" transform="translate(74.804688 0)"/>
     <use xlink:href="#DejaVuSans-71" transform="translate(133.984375 0)"/>
     <use xlink:href="#DejaVuSans-75" transform="translate(197.460938 0)"/>
     <use xlink:href="#DejaVuSans-69" transform="translate(260.839844 0)"/>
     <use xlink:href="#DejaVuSans-73" transform="translate(288.623047 0)"/>
     <use xlink:href="#DejaVuSans-74" transform="translate(340.722656 0)"/>
     <use xlink:href="#DejaVuSans-20" transform="translate(379.931641 0)"/>
     <use xlink:href="#DejaVuSans-50" transform="translate(411.71875 0)"/>
     <use xlink:href="#DejaVuSans-6c" transform="translate(472.021484 0)"/>
     <use xlink:href="#DejaVuSans-6f" transform="translate(499.804688 0)"/>
     <use xlink:href="#DejaVuSans-74" transform="translate(560.986328 0)"/>
    </g>
   </g>
  </g>
 </g>
 <defs>
  <clipPath id="pdf669744f3">
   <rect x="57.6" y="41.472" width="357.12" height="266.112"/>
  </clipPath>
 </defs>
</svg>
