<?xml version="1.0" encoding="utf-8" standalone="no"?>
<!DOCTYPE svg PUBLIC "-//W3C//DTD SVG 1.1//EN"
  "http://www.w3.org/Graphics/SVG/1.1/DTD/svg11.dtd">
<svg xmlns:xlink="http://www.w3.org/1999/xlink" width="460.8pt" height="345.6pt" viewBox="0 0 460.8 345.6" xmlns="http://www.w3.org/2000/svg" version="1.1">
 <metadata>
  <rdf:RDF xmlns:dc="http://purl.org/dc/elements/1.1/" xmlns:cc="http://creativecommons.org/ns#" xmlns:rdf="http://www.w3.org/1999/02/22-rdf-syntax-ns#">
   <cc:Work>
    <dc:type rdf:resource="http://purl.org/dc/dcmitype/StillImage"/>
    <dc:date>2025-04-12T02:34:45.709080</dc:date>
    <dc:format>image/svg+xml</dc:format>
    <dc:creator>
     <cc:Agent>
      <dc:title>Matplotlib v3.10.1, https://matplotlib.org/</dc:title>
     </cc:Agent>
    </dc:creator>
   </cc:Work>
  </rdf:RDF>
 </metadata>
 <defs>
  <style type="text/css">*{stroke-linejoin: round; stroke-linecap: butt}</style>
 </defs>
 <g id="figure_1">
  <g id="patch_1">
   <path d="M 0 345.6 
L 460.8 345.6 
L 460.8 0 
L 0 0 
z
" style="fill: #ffffff"/>
  </g>
  <g id="axes_1">
   <g id="patch_2">
    <path d="M 57.6 307.584 
L 414.72 307.584 
L 414.72 41.472 
L 57.6 41.472 
z
" style="fill: #ffffff"/>
   </g>
   <g id="PathCollection_1">
    <defs>
     <path id="m354f8067f6" d="M 0 3 
C 0.795609 3 1.55874 2.683901 2.12132 2.12132 
C 2.683901 1.55874 3 0.795609 3 0 
C 3 -0.795609 2.683901 -1.55874 2.12132 -2.12132 
C 1.55874 -2.683901 0.795609 -3 0 -3 
C -0.795609 -3 -1.55874 -2.683901 -2.12132 -2.12132 
C -2.683901 -1.55874 -3 -0.795609 -3 0 
C -3 0.795609 -2.683901 1.55874 -2.12132 2.12132 
C -1.55874 2.683901 -0.795609 3 0 3 
z
" style="stroke: #1f77b4"/>
    </defs>
    <g clip-path="url(#pedcc578949)">
     <use xlink:href="#m354f8067f6" x="73.832727" y="54.460116" style="fill: #1f77b4; stroke: #1f77b4"/>
     <use xlink:href="#m354f8067f6" x="73.846594" y="54.539917" style="fill: #1f77b4; stroke: #1f77b4"/>
     <use xlink:href="#m354f8067f6" x="73.861556" y="54.592715" style="fill: #1f77b4; stroke: #1f77b4"/>
     <use xlink:href="#m354f8067f6" x="73.877701" y="54.914155" style="fill: #1f77b4; stroke: #1f77b4"/>
     <use xlink:href="#m354f8067f6" x="73.895118" y="55.185712" style="fill: #1f77b4; stroke: #1f77b4"/>
     <use xlink:href="#m354f8067f6" x="73.913911" y="53.568" style="fill: #1f77b4; stroke: #1f77b4"/>
     <use xlink:href="#m354f8067f6" x="73.934188" y="55.183043" style="fill: #1f77b4; stroke: #1f77b4"/>
     <use xlink:href="#m354f8067f6" x="73.956067" y="55.395206" style="fill: #1f77b4; stroke: #1f77b4"/>
     <use xlink:href="#m354f8067f6" x="73.979663" y="55.654985" style="fill: #1f77b4; stroke: #1f77b4"/>
     <use xlink:href="#m354f8067f6" x="74.005131" y="56.182085" style="fill: #1f77b4; stroke: #1f77b4"/>
     <use xlink:href="#m354f8067f6" x="74.032613" y="56.639047" style="fill: #1f77b4; stroke: #1f77b4"/>
     <use xlink:href="#m354f8067f6" x="74.062275" y="57.008779" style="fill: #1f77b4; stroke: #1f77b4"/>
     <use xlink:href="#m354f8067f6" x="74.094258" y="57.399908" style="fill: #1f77b4; stroke: #1f77b4"/>
     <use xlink:href="#m354f8067f6" x="74.128784" y="57.882206" style="fill: #1f77b4; stroke: #1f77b4"/>
     <use xlink:href="#m354f8067f6" x="74.166023" y="58.550998" style="fill: #1f77b4; stroke: #1f77b4"/>
     <use xlink:href="#m354f8067f6" x="74.206197" y="59.267238" style="fill: #1f77b4; stroke: #1f77b4"/>
     <use xlink:href="#m354f8067f6" x="74.24953" y="59.942307" style="fill: #1f77b4; stroke: #1f77b4"/>
     <use xlink:href="#m354f8067f6" x="74.296302" y="60.822121" style="fill: #1f77b4; stroke: #1f77b4"/>
     <use xlink:href="#m354f8067f6" x="74.346792" y="61.933216" style="fill: #1f77b4; stroke: #1f77b4"/>
     <use xlink:href="#m354f8067f6" x="74.401223" y="62.336935" style="fill: #1f77b4; stroke: #1f77b4"/>
     <use xlink:href="#m354f8067f6" x="74.459989" y="63.644331" style="fill: #1f77b4; stroke: #1f77b4"/>
     <use xlink:href="#m354f8067f6" x="74.523367" y="64.885331" style="fill: #1f77b4; stroke: #1f77b4"/>
     <use xlink:href="#m354f8067f6" x="74.591749" y="66.109728" style="fill: #1f77b4; stroke: #1f77b4"/>
     <use xlink:href="#m354f8067f6" x="74.665555" y="67.486962" style="fill: #1f77b4; stroke: #1f77b4"/>
     <use xlink:href="#m354f8067f6" x="74.745176" y="68.68243" style="fill: #1f77b4; stroke: #1f77b4"/>
     <use xlink:href="#m354f8067f6" x="74.831059" y="70.506336" style="fill: #1f77b4; stroke: #1f77b4"/>
     <use xlink:href="#m354f8067f6" x="74.923764" y="71.949992" style="fill: #1f77b4; stroke: #1f77b4"/>
     <use xlink:href="#m354f8067f6" x="75.023738" y="73.599764" style="fill: #1f77b4; stroke: #1f77b4"/>
     <use xlink:href="#m354f8067f6" x="75.131651" y="75.719928" style="fill: #1f77b4; stroke: #1f77b4"/>
     <use xlink:href="#m354f8067f6" x="75.248063" y="77.512525" style="fill: #1f77b4; stroke: #1f77b4"/>
     <use xlink:href="#m354f8067f6" x="75.373673" y="78.980495" style="fill: #1f77b4; stroke: #1f77b4"/>
     <use xlink:href="#m354f8067f6" x="75.50918" y="80.689162" style="fill: #1f77b4; stroke: #1f77b4"/>
     <use xlink:href="#m354f8067f6" x="75.655394" y="82.924092" style="fill: #1f77b4; stroke: #1f77b4"/>
     <use xlink:href="#m354f8067f6" x="75.813154" y="84.926025" style="fill: #1f77b4; stroke: #1f77b4"/>
     <use xlink:href="#m354f8067f6" x="75.983383" y="87.344065" style="fill: #1f77b4; stroke: #1f77b4"/>
     <use xlink:href="#m354f8067f6" x="76.167032" y="89.388628" style="fill: #1f77b4; stroke: #1f77b4"/>
     <use xlink:href="#m354f8067f6" x="76.36519" y="92.153187" style="fill: #1f77b4; stroke: #1f77b4"/>
     <use xlink:href="#m354f8067f6" x="76.579115" y="94.328805" style="fill: #1f77b4; stroke: #1f77b4"/>
     <use xlink:href="#m354f8067f6" x="76.809759" y="96.92247" style="fill: #1f77b4; stroke: #1f77b4"/>
     <use xlink:href="#m354f8067f6" x="77.058574" y="99.730834" style="fill: #1f77b4; stroke: #1f77b4"/>
     <use xlink:href="#m354f8067f6" x="77.32696" y="102.698705" style="fill: #1f77b4; stroke: #1f77b4"/>
     <use xlink:href="#m354f8067f6" x="77.616872" y="105.102933" style="fill: #1f77b4; stroke: #1f77b4"/>
     <use xlink:href="#m354f8067f6" x="77.929429" y="109.151784" style="fill: #1f77b4; stroke: #1f77b4"/>
     <use xlink:href="#m354f8067f6" x="78.266588" y="113.223155" style="fill: #1f77b4; stroke: #1f77b4"/>
     <use xlink:href="#m354f8067f6" x="78.630586" y="109.052208" style="fill: #1f77b4; stroke: #1f77b4"/>
     <use xlink:href="#m354f8067f6" x="79.023379" y="123.53435" style="fill: #1f77b4; stroke: #1f77b4"/>
     <use xlink:href="#m354f8067f6" x="79.446925" y="130.657433" style="fill: #1f77b4; stroke: #1f77b4"/>
     <use xlink:href="#m354f8067f6" x="79.904019" y="141.70633" style="fill: #1f77b4; stroke: #1f77b4"/>
     <use xlink:href="#m354f8067f6" x="80.397177" y="161.599461" style="fill: #1f77b4; stroke: #1f77b4"/>
     <use xlink:href="#m354f8067f6" x="80.929195" y="207.592283" style="fill: #1f77b4; stroke: #1f77b4"/>
     <use xlink:href="#m354f8067f6" x="81.503428" y="160.00536" style="fill: #1f77b4; stroke: #1f77b4"/>
     <use xlink:href="#m354f8067f6" x="82.122951" y="143.876255" style="fill: #1f77b4; stroke: #1f77b4"/>
     <use xlink:href="#m354f8067f6" x="82.791119" y="137.458981" style="fill: #1f77b4; stroke: #1f77b4"/>
     <use xlink:href="#m354f8067f6" x="83.512405" y="135.183989" style="fill: #1f77b4; stroke: #1f77b4"/>
     <use xlink:href="#m354f8067f6" x="84.290443" y="134.738667" style="fill: #1f77b4; stroke: #1f77b4"/>
     <use xlink:href="#m354f8067f6" x="85.129706" y="94.791331" style="fill: #1f77b4; stroke: #1f77b4"/>
     <use xlink:href="#m354f8067f6" x="86.035507" y="137.895292" style="fill: #1f77b4; stroke: #1f77b4"/>
     <use xlink:href="#m354f8067f6" x="87.012877" y="140.951319" style="fill: #1f77b4; stroke: #1f77b4"/>
     <use xlink:href="#m354f8067f6" x="88.067128" y="143.307074" style="fill: #1f77b4; stroke: #1f77b4"/>
     <use xlink:href="#m354f8067f6" x="89.204691" y="145.594041" style="fill: #1f77b4; stroke: #1f77b4"/>
     <use xlink:href="#m354f8067f6" x="90.432275" y="150.82271" style="fill: #1f77b4; stroke: #1f77b4"/>
     <use xlink:href="#m354f8067f6" x="91.756589" y="153.742034" style="fill: #1f77b4; stroke: #1f77b4"/>
     <use xlink:href="#m354f8067f6" x="93.185462" y="158.043101" style="fill: #1f77b4; stroke: #1f77b4"/>
     <use xlink:href="#m354f8067f6" x="94.72728" y="160.999796" style="fill: #1f77b4; stroke: #1f77b4"/>
     <use xlink:href="#m354f8067f6" x="96.39071" y="165.48182" style="fill: #1f77b4; stroke: #1f77b4"/>
     <use xlink:href="#m354f8067f6" x="98.185258" y="168.396111" style="fill: #1f77b4; stroke: #1f77b4"/>
     <use xlink:href="#m354f8067f6" x="100.121826" y="173.246219" style="fill: #1f77b4; stroke: #1f77b4"/>
     <use xlink:href="#m354f8067f6" x="102.212157" y="176.813834" style="fill: #1f77b4; stroke: #1f77b4"/>
     <use xlink:href="#m354f8067f6" x="104.465476" y="179.514521" style="fill: #1f77b4; stroke: #1f77b4"/>
     <use xlink:href="#m354f8067f6" x="106.897719" y="180.680977" style="fill: #1f77b4; stroke: #1f77b4"/>
     <use xlink:href="#m354f8067f6" x="109.522864" y="189.202492" style="fill: #1f77b4; stroke: #1f77b4"/>
     <use xlink:href="#m354f8067f6" x="112.352093" y="193.744969" style="fill: #1f77b4; stroke: #1f77b4"/>
     <use xlink:href="#m354f8067f6" x="115.407773" y="196.687631" style="fill: #1f77b4; stroke: #1f77b4"/>
     <use xlink:href="#m354f8067f6" x="118.703881" y="215.363902" style="fill: #1f77b4; stroke: #1f77b4"/>
     <use xlink:href="#m354f8067f6" x="122.259987" y="204.821602" style="fill: #1f77b4; stroke: #1f77b4"/>
     <use xlink:href="#m354f8067f6" x="126.098458" y="209.567125" style="fill: #1f77b4; stroke: #1f77b4"/>
     <use xlink:href="#m354f8067f6" x="130.238862" y="213.218064" style="fill: #1f77b4; stroke: #1f77b4"/>
     <use xlink:href="#m354f8067f6" x="134.703565" y="201.028615" style="fill: #1f77b4; stroke: #1f77b4"/>
     <use xlink:href="#m354f8067f6" x="139.523319" y="222.014984" style="fill: #1f77b4; stroke: #1f77b4"/>
     <use xlink:href="#m354f8067f6" x="144.723286" y="226.602562" style="fill: #1f77b4; stroke: #1f77b4"/>
     <use xlink:href="#m354f8067f6" x="150.334218" y="228.429529" style="fill: #1f77b4; stroke: #1f77b4"/>
     <use xlink:href="#m354f8067f6" x="156.386868" y="235.66444" style="fill: #1f77b4; stroke: #1f77b4"/>
     <use xlink:href="#m354f8067f6" x="162.920375" y="239.278754" style="fill: #1f77b4; stroke: #1f77b4"/>
     <use xlink:href="#m354f8067f6" x="169.965492" y="211.952611" style="fill: #1f77b4; stroke: #1f77b4"/>
     <use xlink:href="#m354f8067f6" x="177.569745" y="223.702394" style="fill: #1f77b4; stroke: #1f77b4"/>
     <use xlink:href="#m354f8067f6" x="185.772274" y="249.524268" style="fill: #1f77b4; stroke: #1f77b4"/>
     <use xlink:href="#m354f8067f6" x="194.623401" y="264.930548" style="fill: #1f77b4; stroke: #1f77b4"/>
     <use xlink:href="#m354f8067f6" x="204.173448" y="266.050795" style="fill: #1f77b4; stroke: #1f77b4"/>
     <use xlink:href="#m354f8067f6" x="214.478329" y="270.468672" style="fill: #1f77b4; stroke: #1f77b4"/>
     <use xlink:href="#m354f8067f6" x="225.596753" y="252.355672" style="fill: #1f77b4; stroke: #1f77b4"/>
     <use xlink:href="#m354f8067f6" x="237.590226" y="275.247313" style="fill: #1f77b4; stroke: #1f77b4"/>
     <use xlink:href="#m354f8067f6" x="250.531434" y="185.869198" style="fill: #1f77b4; stroke: #1f77b4"/>
     <use xlink:href="#m354f8067f6" x="264.495862" y="198.621441" style="fill: #1f77b4; stroke: #1f77b4"/>
     <use xlink:href="#m354f8067f6" x="279.561788" y="208.936179" style="fill: #1f77b4; stroke: #1f77b4"/>
     <use xlink:href="#m354f8067f6" x="295.818675" y="295.488" style="fill: #1f77b4; stroke: #1f77b4"/>
     <use xlink:href="#m354f8067f6" x="313.355983" y="281.712375" style="fill: #1f77b4; stroke: #1f77b4"/>
     <use xlink:href="#m354f8067f6" x="332.27995" y="228.198212" style="fill: #1f77b4; stroke: #1f77b4"/>
     <use xlink:href="#m354f8067f6" x="352.69681" y="286.103617" style="fill: #1f77b4; stroke: #1f77b4"/>
     <use xlink:href="#m354f8067f6" x="374.723982" y="213.692503" style="fill: #1f77b4; stroke: #1f77b4"/>
     <use xlink:href="#m354f8067f6" x="398.487273" y="158.521972" style="fill: #1f77b4; stroke: #1f77b4"/>
    </g>
   </g>
   <g id="matplotlib.axis_1">
    <g id="xtick_1">
     <g id="line2d_1">
      <defs>
       <path id="ma529b8c358" d="M 0 0 
L 0 3.5 
" style="stroke: #000000; stroke-width: 0.8"/>
      </defs>
      <g>
       <use xlink:href="#ma529b8c358" x="73.657069" y="307.584" style="stroke: #000000; stroke-width: 0.8"/>
      </g>
     </g>
     <g id="text_1">
      <!-- 0 -->
      <g transform="translate(70.475819 322.182437) scale(0.1 -0.1)">
       <defs>
        <path id="DejaVuSans-30" d="M 2034 4250 
Q 1547 4250 1301 3770 
Q 1056 3291 1056 2328 
Q 1056 1369 1301 889 
Q 1547 409 2034 409 
Q 2525 409 2770 889 
Q 3016 1369 3016 2328 
Q 3016 3291 2770 3770 
Q 2525 4250 2034 4250 
z
M 2034 4750 
Q 2819 4750 3233 4129 
Q 3647 3509 3647 2328 
Q 3647 1150 3233 529 
Q 2819 -91 2034 -91 
Q 1250 -91 836 529 
Q 422 1150 422 2328 
Q 422 3509 836 4129 
Q 1250 4750 2034 4750 
z
" transform="scale(0.015625)"/>
       </defs>
       <use xlink:href="#DejaVuSans-30"/>
      </g>
     </g>
    </g>
    <g id="xtick_2">
     <g id="line2d_2">
      <g>
       <use xlink:href="#ma529b8c358" x="129.570694" y="307.584" style="stroke: #000000; stroke-width: 0.8"/>
      </g>
     </g>
     <g id="text_2">
      <!-- 200 -->
      <g transform="translate(120.026944 322.182437) scale(0.1 -0.1)">
       <defs>
        <path id="DejaVuSans-32" d="M 1228 531 
L 3431 531 
L 3431 0 
L 469 0 
L 469 531 
Q 828 903 1448 1529 
Q 2069 2156 2228 2338 
Q 2531 2678 2651 2914 
Q 2772 3150 2772 3378 
Q 2772 3750 2511 3984 
Q 2250 4219 1831 4219 
Q 1534 4219 1204 4116 
Q 875 4013 500 3803 
L 500 4441 
Q 881 4594 1212 4672 
Q 1544 4750 1819 4750 
Q 2544 4750 2975 4387 
Q 3406 4025 3406 3419 
Q 3406 3131 3298 2873 
Q 3191 2616 2906 2266 
Q 2828 2175 2409 1742 
Q 1991 1309 1228 531 
z
" transform="scale(0.015625)"/>
       </defs>
       <use xlink:href="#DejaVuSans-32"/>
       <use xlink:href="#DejaVuSans-30" transform="translate(63.623047 0)"/>
       <use xlink:href="#DejaVuSans-30" transform="translate(127.246094 0)"/>
      </g>
     </g>
    </g>
    <g id="xtick_3">
     <g id="line2d_3">
      <g>
       <use xlink:href="#ma529b8c358" x="185.484319" y="307.584" style="stroke: #000000; stroke-width: 0.8"/>
      </g>
     </g>
     <g id="text_3">
      <!-- 400 -->
      <g transform="translate(175.940569 322.182437) scale(0.1 -0.1)">
       <defs>
        <path id="DejaVuSans-34" d="M 2419 4116 
L 825 1625 
L 2419 1625 
L 2419 4116 
z
M 2253 4666 
L 3047 4666 
L 3047 1625 
L 3713 1625 
L 3713 1100 
L 3047 1100 
L 3047 0 
L 2419 0 
L 2419 1100 
L 313 1100 
L 313 1709 
L 2253 4666 
z
" transform="scale(0.015625)"/>
       </defs>
       <use xlink:href="#DejaVuSans-34"/>
       <use xlink:href="#DejaVuSans-30" transform="translate(63.623047 0)"/>
       <use xlink:href="#DejaVuSans-30" transform="translate(127.246094 0)"/>
      </g>
     </g>
    </g>
    <g id="xtick_4">
     <g id="line2d_4">
      <g>
       <use xlink:href="#ma529b8c358" x="241.397944" y="307.584" style="stroke: #000000; stroke-width: 0.8"/>
      </g>
     </g>
     <g id="text_4">
      <!-- 600 -->
      <g transform="translate(231.854194 322.182437) scale(0.1 -0.1)">
       <defs>
        <path id="DejaVuSans-36" d="M 2113 2584 
Q 1688 2584 1439 2293 
Q 1191 2003 1191 1497 
Q 1191 994 1439 701 
Q 1688 409 2113 409 
Q 2538 409 2786 701 
Q 3034 994 3034 1497 
Q 3034 2003 2786 2293 
Q 2538 2584 2113 2584 
z
M 3366 4563 
L 3366 3988 
Q 3128 4100 2886 4159 
Q 2644 4219 2406 4219 
Q 1781 4219 1451 3797 
Q 1122 3375 1075 2522 
Q 1259 2794 1537 2939 
Q 1816 3084 2150 3084 
Q 2853 3084 3261 2657 
Q 3669 2231 3669 1497 
Q 3669 778 3244 343 
Q 2819 -91 2113 -91 
Q 1303 -91 875 529 
Q 447 1150 447 2328 
Q 447 3434 972 4092 
Q 1497 4750 2381 4750 
Q 2619 4750 2861 4703 
Q 3103 4656 3366 4563 
z
" transform="scale(0.015625)"/>
       </defs>
       <use xlink:href="#DejaVuSans-36"/>
       <use xlink:href="#DejaVuSans-30" transform="translate(63.623047 0)"/>
       <use xlink:href="#DejaVuSans-30" transform="translate(127.246094 0)"/>
      </g>
     </g>
    </g>
    <g id="xtick_5">
     <g id="line2d_5">
      <g>
       <use xlink:href="#ma529b8c358" x="297.311569" y="307.584" style="stroke: #000000; stroke-width: 0.8"/>
      </g>
     </g>
     <g id="text_5">
      <!-- 800 -->
      <g transform="translate(287.767819 322.182437) scale(0.1 -0.1)">
       <defs>
        <path id="DejaVuSans-38" d="M 2034 2216 
Q 1584 2216 1326 1975 
Q 1069 1734 1069 1313 
Q 1069 891 1326 650 
Q 1584 409 2034 409 
Q 2484 409 2743 651 
Q 3003 894 3003 1313 
Q 3003 1734 2745 1975 
Q 2488 2216 2034 2216 
z
M 1403 2484 
Q 997 2584 770 2862 
Q 544 3141 544 3541 
Q 544 4100 942 4425 
Q 1341 4750 2034 4750 
Q 2731 4750 3128 4425 
Q 3525 4100 3525 3541 
Q 3525 3141 3298 2862 
Q 3072 2584 2669 2484 
Q 3125 2378 3379 2068 
Q 3634 1759 3634 1313 
Q 3634 634 3220 271 
Q 2806 -91 2034 -91 
Q 1263 -91 848 271 
Q 434 634 434 1313 
Q 434 1759 690 2068 
Q 947 2378 1403 2484 
z
M 1172 3481 
Q 1172 3119 1398 2916 
Q 1625 2713 2034 2713 
Q 2441 2713 2670 2916 
Q 2900 3119 2900 3481 
Q 2900 3844 2670 4047 
Q 2441 4250 2034 4250 
Q 1625 4250 1398 4047 
Q 1172 3844 1172 3481 
z
" transform="scale(0.015625)"/>
       </defs>
       <use xlink:href="#DejaVuSans-38"/>
       <use xlink:href="#DejaVuSans-30" transform="translate(63.623047 0)"/>
       <use xlink:href="#DejaVuSans-30" transform="translate(127.246094 0)"/>
      </g>
     </g>
    </g>
    <g id="xtick_6">
     <g id="line2d_6">
      <g>
       <use xlink:href="#ma529b8c358" x="353.225193" y="307.584" style="stroke: #000000; stroke-width: 0.8"/>
      </g>
     </g>
     <g id="text_6">
      <!-- 1000 -->
      <g transform="translate(340.500193 322.182437) scale(0.1 -0.1)">
       <defs>
        <path id="DejaVuSans-31" d="M 794 531 
L 1825 531 
L 1825 4091 
L 703 3866 
L 703 4441 
L 1819 4666 
L 2450 4666 
L 2450 531 
L 3481 531 
L 3481 0 
L 794 0 
L 794 531 
z
" transform="scale(0.015625)"/>
       </defs>
       <use xlink:href="#DejaVuSans-31"/>
       <use xlink:href="#DejaVuSans-30" transform="translate(63.623047 0)"/>
       <use xlink:href="#DejaVuSans-30" transform="translate(127.246094 0)"/>
       <use xlink:href="#DejaVuSans-30" transform="translate(190.869141 0)"/>
      </g>
     </g>
    </g>
    <g id="xtick_7">
     <g id="line2d_7">
      <g>
       <use xlink:href="#ma529b8c358" x="409.138818" y="307.584" style="stroke: #000000; stroke-width: 0.8"/>
      </g>
     </g>
     <g id="text_7">
      <!-- 1200 -->
      <g transform="translate(396.413818 322.182437) scale(0.1 -0.1)">
       <use xlink:href="#DejaVuSans-31"/>
       <use xlink:href="#DejaVuSans-32" transform="translate(63.623047 0)"/>
       <use xlink:href="#DejaVuSans-30" transform="translate(127.246094 0)"/>
       <use xlink:href="#DejaVuSans-30" transform="translate(190.869141 0)"/>
      </g>
     </g>
    </g>
    <g id="text_8">
     <!-- ω -->
     <g transform="translate(231.973281 335.860562) scale(0.1 -0.1)">
      <defs>
       <path id="DejaVuSans-3c9" d="M 1719 -91 
Q 422 -91 422 1766 
Q 422 2500 906 3500 
L 1525 3500 
Q 1078 2500 1078 1750 
Q 1078 397 1772 397 
Q 2406 397 2406 2078 
L 2938 2078 
Q 2938 397 3572 397 
Q 4266 397 4266 1750 
Q 4266 2500 3819 3500 
L 4438 3500 
Q 4922 2500 4922 1766 
Q 4922 -91 3625 -91 
Q 2775 -91 2672 844 
Q 2544 -91 1719 -91 
z
" transform="scale(0.015625)"/>
      </defs>
      <use xlink:href="#DejaVuSans-3c9"/>
     </g>
    </g>
   </g>
   <g id="matplotlib.axis_2">
    <g id="ytick_1">
     <g id="line2d_8">
      <defs>
       <path id="m37f45e2307" d="M 0 0 
L -3.5 0 
" style="stroke: #000000; stroke-width: 0.8"/>
      </defs>
      <g>
       <use xlink:href="#m37f45e2307" x="57.6" y="274.567581" style="stroke: #000000; stroke-width: 0.8"/>
      </g>
     </g>
     <g id="text_9">
      <!-- −70 -->
      <g transform="translate(29.495313 278.3668) scale(0.1 -0.1)">
       <defs>
        <path id="DejaVuSans-2212" d="M 678 2272 
L 4684 2272 
L 4684 1741 
L 678 1741 
L 678 2272 
z
" transform="scale(0.015625)"/>
        <path id="DejaVuSans-37" d="M 525 4666 
L 3525 4666 
L 3525 4397 
L 1831 0 
L 1172 0 
L 2766 4134 
L 525 4134 
L 525 4666 
z
" transform="scale(0.015625)"/>
       </defs>
       <use xlink:href="#DejaVuSans-2212"/>
       <use xlink:href="#DejaVuSans-37" transform="translate(83.789062 0)"/>
       <use xlink:href="#DejaVuSans-30" transform="translate(147.412109 0)"/>
      </g>
     </g>
    </g>
    <g id="ytick_2">
     <g id="line2d_9">
      <g>
       <use xlink:href="#m37f45e2307" x="57.6" y="240.721502" style="stroke: #000000; stroke-width: 0.8"/>
      </g>
     </g>
     <g id="text_10">
      <!-- −60 -->
      <g transform="translate(29.495313 244.52072) scale(0.1 -0.1)">
       <use xlink:href="#DejaVuSans-2212"/>
       <use xlink:href="#DejaVuSans-36" transform="translate(83.789062 0)"/>
       <use xlink:href="#DejaVuSans-30" transform="translate(147.412109 0)"/>
      </g>
     </g>
    </g>
    <g id="ytick_3">
     <g id="line2d_10">
      <g>
       <use xlink:href="#m37f45e2307" x="57.6" y="206.875422" style="stroke: #000000; stroke-width: 0.8"/>
      </g>
     </g>
     <g id="text_11">
      <!-- −50 -->
      <g transform="translate(29.495313 210.674641) scale(0.1 -0.1)">
       <defs>
        <path id="DejaVuSans-35" d="M 691 4666 
L 3169 4666 
L 3169 4134 
L 1269 4134 
L 1269 2991 
Q 1406 3038 1543 3061 
Q 1681 3084 1819 3084 
Q 2600 3084 3056 2656 
Q 3513 2228 3513 1497 
Q 3513 744 3044 326 
Q 2575 -91 1722 -91 
Q 1428 -91 1123 -41 
Q 819 9 494 109 
L 494 744 
Q 775 591 1075 516 
Q 1375 441 1709 441 
Q 2250 441 2565 725 
Q 2881 1009 2881 1497 
Q 2881 1984 2565 2268 
Q 2250 2553 1709 2553 
Q 1456 2553 1204 2497 
Q 953 2441 691 2322 
L 691 4666 
z
" transform="scale(0.015625)"/>
       </defs>
       <use xlink:href="#DejaVuSans-2212"/>
       <use xlink:href="#DejaVuSans-35" transform="translate(83.789062 0)"/>
       <use xlink:href="#DejaVuSans-30" transform="translate(147.412109 0)"/>
      </g>
     </g>
    </g>
    <g id="ytick_4">
     <g id="line2d_11">
      <g>
       <use xlink:href="#m37f45e2307" x="57.6" y="173.029343" style="stroke: #000000; stroke-width: 0.8"/>
      </g>
     </g>
     <g id="text_12">
      <!-- −40 -->
      <g transform="translate(29.495313 176.828562) scale(0.1 -0.1)">
       <use xlink:href="#DejaVuSans-2212"/>
       <use xlink:href="#DejaVuSans-34" transform="translate(83.789062 0)"/>
       <use xlink:href="#DejaVuSans-30" transform="translate(147.412109 0)"/>
      </g>
     </g>
    </g>
    <g id="ytick_5">
     <g id="line2d_12">
      <g>
       <use xlink:href="#m37f45e2307" x="57.6" y="139.183263" style="stroke: #000000; stroke-width: 0.8"/>
      </g>
     </g>
     <g id="text_13">
      <!-- −30 -->
      <g transform="translate(29.495313 142.982482) scale(0.1 -0.1)">
       <defs>
        <path id="DejaVuSans-33" d="M 2597 2516 
Q 3050 2419 3304 2112 
Q 3559 1806 3559 1356 
Q 3559 666 3084 287 
Q 2609 -91 1734 -91 
Q 1441 -91 1130 -33 
Q 819 25 488 141 
L 488 750 
Q 750 597 1062 519 
Q 1375 441 1716 441 
Q 2309 441 2620 675 
Q 2931 909 2931 1356 
Q 2931 1769 2642 2001 
Q 2353 2234 1838 2234 
L 1294 2234 
L 1294 2753 
L 1863 2753 
Q 2328 2753 2575 2939 
Q 2822 3125 2822 3475 
Q 2822 3834 2567 4026 
Q 2313 4219 1838 4219 
Q 1578 4219 1281 4162 
Q 984 4106 628 3988 
L 628 4550 
Q 988 4650 1302 4700 
Q 1616 4750 1894 4750 
Q 2613 4750 3031 4423 
Q 3450 4097 3450 3541 
Q 3450 3153 3228 2886 
Q 3006 2619 2597 2516 
z
" transform="scale(0.015625)"/>
       </defs>
       <use xlink:href="#DejaVuSans-2212"/>
       <use xlink:href="#DejaVuSans-33" transform="translate(83.789062 0)"/>
       <use xlink:href="#DejaVuSans-30" transform="translate(147.412109 0)"/>
      </g>
     </g>
    </g>
    <g id="ytick_6">
     <g id="line2d_13">
      <g>
       <use xlink:href="#m37f45e2307" x="57.6" y="105.337184" style="stroke: #000000; stroke-width: 0.8"/>
      </g>
     </g>
     <g id="text_14">
      <!-- −20 -->
      <g transform="translate(29.495313 109.136403) scale(0.1 -0.1)">
       <use xlink:href="#DejaVuSans-2212"/>
       <use xlink:href="#DejaVuSans-32" transform="translate(83.789062 0)"/>
       <use xlink:href="#DejaVuSans-30" transform="translate(147.412109 0)"/>
      </g>
     </g>
    </g>
    <g id="ytick_7">
     <g id="line2d_14">
      <g>
       <use xlink:href="#m37f45e2307" x="57.6" y="71.491105" style="stroke: #000000; stroke-width: 0.8"/>
      </g>
     </g>
     <g id="text_15">
      <!-- −10 -->
      <g transform="translate(29.495313 75.290323) scale(0.1 -0.1)">
       <use xlink:href="#DejaVuSans-2212"/>
       <use xlink:href="#DejaVuSans-31" transform="translate(83.789062 0)"/>
       <use xlink:href="#DejaVuSans-30" transform="translate(147.412109 0)"/>
      </g>
     </g>
    </g>
    <g id="text_16">
     <!-- 20log|G(jω)| -->
     <g transform="translate(23.1375 205.233469) rotate(-90) scale(0.1 -0.1)">
      <defs>
       <path id="DejaVuSans-6c" d="M 603 4863 
L 1178 4863 
L 1178 0 
L 603 0 
L 603 4863 
z
" transform="scale(0.015625)"/>
       <path id="DejaVuSans-6f" d="M 1959 3097 
Q 1497 3097 1228 2736 
Q 959 2375 959 1747 
Q 959 1119 1226 758 
Q 1494 397 1959 397 
Q 2419 397 2687 759 
Q 2956 1122 2956 1747 
Q 2956 2369 2687 2733 
Q 2419 3097 1959 3097 
z
M 1959 3584 
Q 2709 3584 3137 3096 
Q 3566 2609 3566 1747 
Q 3566 888 3137 398 
Q 2709 -91 1959 -91 
Q 1206 -91 779 398 
Q 353 888 353 1747 
Q 353 2609 779 3096 
Q 1206 3584 1959 3584 
z
" transform="scale(0.015625)"/>
       <path id="DejaVuSans-67" d="M 2906 1791 
Q 2906 2416 2648 2759 
Q 2391 3103 1925 3103 
Q 1463 3103 1205 2759 
Q 947 2416 947 1791 
Q 947 1169 1205 825 
Q 1463 481 1925 481 
Q 2391 481 2648 825 
Q 2906 1169 2906 1791 
z
M 3481 434 
Q 3481 -459 3084 -895 
Q 2688 -1331 1869 -1331 
Q 1566 -1331 1297 -1286 
Q 1028 -1241 775 -1147 
L 775 -588 
Q 1028 -725 1275 -790 
Q 1522 -856 1778 -856 
Q 2344 -856 2625 -561 
Q 2906 -266 2906 331 
L 2906 616 
Q 2728 306 2450 153 
Q 2172 0 1784 0 
Q 1141 0 747 490 
Q 353 981 353 1791 
Q 353 2603 747 3093 
Q 1141 3584 1784 3584 
Q 2172 3584 2450 3431 
Q 2728 3278 2906 2969 
L 2906 3500 
L 3481 3500 
L 3481 434 
z
" transform="scale(0.015625)"/>
       <path id="DejaVuSans-7c" d="M 1344 4891 
L 1344 -1509 
L 813 -1509 
L 813 4891 
L 1344 4891 
z
" transform="scale(0.015625)"/>
       <path id="DejaVuSans-47" d="M 3809 666 
L 3809 1919 
L 2778 1919 
L 2778 2438 
L 4434 2438 
L 4434 434 
Q 4069 175 3628 42 
Q 3188 -91 2688 -91 
Q 1594 -91 976 548 
Q 359 1188 359 2328 
Q 359 3472 976 4111 
Q 1594 4750 2688 4750 
Q 3144 4750 3555 4637 
Q 3966 4525 4313 4306 
L 4313 3634 
Q 3963 3931 3569 4081 
Q 3175 4231 2741 4231 
Q 1884 4231 1454 3753 
Q 1025 3275 1025 2328 
Q 1025 1384 1454 906 
Q 1884 428 2741 428 
Q 3075 428 3337 486 
Q 3600 544 3809 666 
z
" transform="scale(0.015625)"/>
       <path id="DejaVuSans-28" d="M 1984 4856 
Q 1566 4138 1362 3434 
Q 1159 2731 1159 2009 
Q 1159 1288 1364 580 
Q 1569 -128 1984 -844 
L 1484 -844 
Q 1016 -109 783 600 
Q 550 1309 550 2009 
Q 550 2706 781 3412 
Q 1013 4119 1484 4856 
L 1984 4856 
z
" transform="scale(0.015625)"/>
       <path id="DejaVuSans-6a" d="M 603 3500 
L 1178 3500 
L 1178 -63 
Q 1178 -731 923 -1031 
Q 669 -1331 103 -1331 
L -116 -1331 
L -116 -844 
L 38 -844 
Q 366 -844 484 -692 
Q 603 -541 603 -63 
L 603 3500 
z
M 603 4863 
L 1178 4863 
L 1178 4134 
L 603 4134 
L 603 4863 
z
" transform="scale(0.015625)"/>
       <path id="DejaVuSans-29" d="M 513 4856 
L 1013 4856 
Q 1481 4119 1714 3412 
Q 1947 2706 1947 2009 
Q 1947 1309 1714 600 
Q 1481 -109 1013 -844 
L 513 -844 
Q 928 -128 1133 580 
Q 1338 1288 1338 2009 
Q 1338 2731 1133 3434 
Q 928 4138 513 4856 
z
" transform="scale(0.015625)"/>
      </defs>
      <use xlink:href="#DejaVuSans-32"/>
      <use xlink:href="#DejaVuSans-30" transform="translate(63.623047 0)"/>
      <use xlink:href="#DejaVuSans-6c" transform="translate(127.246094 0)"/>
      <use xlink:href="#DejaVuSans-6f" transform="translate(155.029297 0)"/>
      <use xlink:href="#DejaVuSans-67" transform="translate(216.210938 0)"/>
      <use xlink:href="#DejaVuSans-7c" transform="translate(279.6875 0)"/>
      <use xlink:href="#DejaVuSans-47" transform="translate(313.378906 0)"/>
      <use xlink:href="#DejaVuSans-28" transform="translate(390.869141 0)"/>
      <use xlink:href="#DejaVuSans-6a" transform="translate(429.882812 0)"/>
      <use xlink:href="#DejaVuSans-3c9" transform="translate(457.666016 0)"/>
      <use xlink:href="#DejaVuSans-29" transform="translate(541.40625 0)"/>
      <use xlink:href="#DejaVuSans-7c" transform="translate(580.419922 0)"/>
     </g>
    </g>
   </g>
   <g id="patch_3">
    <path d="M 57.6 307.584 
L 57.6 41.472 
" style="fill: none; stroke: #000000; stroke-width: 0.8; stroke-linejoin: miter; stroke-linecap: square"/>
   </g>
   <g id="patch_4">
    <path d="M 414.72 307.584 
L 414.72 41.472 
" style="fill: none; stroke: #000000; stroke-width: 0.8; stroke-linejoin: miter; stroke-linecap: square"/>
   </g>
   <g id="patch_5">
    <path d="M 57.6 307.584 
L 414.72 307.584 
" style="fill: none; stroke: #000000; stroke-width: 0.8; stroke-linejoin: miter; stroke-linecap: square"/>
   </g>
   <g id="patch_6">
    <path d="M 57.6 41.472 
L 414.72 41.472 
" style="fill: none; stroke: #000000; stroke-width: 0.8; stroke-linejoin: miter; stroke-linecap: square"/>
   </g>
  </g>
 </g>
 <defs>
  <clipPath id="pedcc578949">
   <rect x="57.6" y="41.472" width="357.12" height="266.112"/>
  </clipPath>
 </defs>
</svg>
